<!-- Generated by readme-aura https://github.com/collectioneur/readme-aura -->
<svg width="800" height="200" viewBox="0 0 800 200" xmlns="http://www.w3.org/2000/svg"><clipPath id="satori_cp-id"><path x="0" y="0" width="800" height="200" d="M20,0 h760 a20,20 0 0 1 20,20 v160 a20,20 0 0 1 -20,20 h-760 a20,20 0 0 1 -20,-20 v-160 a20,20 0 0 1 20,-20"/></clipPath><mask id="satori_om-id"><rect x="0" y="0" width="800" height="200" fill="#fff"/></mask><path x="0" y="0" width="800" height="200" fill="#08080d" d="M20,0 h760 a20,20 0 0 1 20,20 v160 a20,20 0 0 1 -20,20 h-760 a20,20 0 0 1 -20,-20 v-160 a20,20 0 0 1 20,-20"/><clipPath id="satori_cp-id-0" clip-path="url(#satori_cp-id)"><rect x="0" y="0" width="800" height="200"/></clipPath><mask id="satori_om-id-0"><rect x="0" y="0" width="800" height="200" fill="#fff" mask="url(#satori_om-id)"/></mask><svg x="0" y="0" width="800" height="200" preserveAspectRatio="none" clip-path="url(#satori_cp-id-0)" mask="url(#satori_om-id-0)"><defs><radialGradient id="sg1" cx="50%" cy="50%" r="50%"><stop offset="0%" stop-color="rgba(108,195,130,0.4)"></stop><stop offset="100%" stop-color="rgba(108,195,130,0)"></stop></radialGradient><radialGradient id="sg2" cx="50%" cy="50%" r="50%"><stop offset="0%" stop-color="rgba(230,100,115,0.35)"></stop><stop offset="100%" stop-color="rgba(230,100,115,0)"></stop></radialGradient><radialGradient id="sg3" cx="50%" cy="50%" r="50%"><stop offset="0%" stop-color="rgba(80,160,220,0.3)"></stop><stop offset="100%" stop-color="rgba(80,160,220,0)"></stop></radialGradient><radialGradient id="sg4" cx="50%" cy="50%" r="50%"><stop offset="0%" stop-color="rgba(195,155,255,0.3)"></stop><stop offset="100%" stop-color="rgba(195,155,255,0)"></stop></radialGradient></defs><ellipse id="st-o1" cx="80" cy="160" rx="160" ry="120" fill="url(#sg1)"></ellipse><ellipse id="st-o2" cx="730" cy="50" rx="150" ry="120" fill="url(#sg2)"></ellipse><ellipse id="st-o3" cx="640" cy="170" rx="140" ry="110" fill="url(#sg3)"></ellipse><ellipse id="st-o4" cx="180" cy="40" rx="130" ry="100" fill="url(#sg4)"></ellipse><style>

    @keyframes stack-orb { 0%, 100% { transform: translate(0,0); opacity: 0.45; } 50% { transform: translate(18px,-14px); opacity: 0.7; } }
    @keyframes stack-orb-b { 0%, 100% { transform: translate(0,0); opacity: 0.4; } 50% { transform: translate(-14px,10px); opacity: 0.65; } }
    @keyframes chip-appear { 0% { opacity: 0; transform: translateY(8px); } 100% { opacity: 1; transform: translateY(0); } }
    #st-o1 { animation: stack-orb 10s ease-in-out infinite; }
    #st-o2 { animation: stack-orb-b 12s ease-in-out infinite 1s; }
    #st-o3 { animation: stack-orb 9s ease-in-out infinite 2.5s; }
    #st-o4 { animation: stack-orb-b 11s ease-in-out infinite 0.5s; }
  
</style>
</svg><mask id="satori_om-id-0-0"><rect x="0" y="0" width="0" height="200" fill="#fff" mask="url(#satori_om-id)"/></mask><mask id="satori_om-id-0-0-0"><rect x="0" y="0" width="0" height="200" fill="#fff" mask="url(#satori_om-id)"/></mask><mask id="satori_om-id-0-0-0-0"><rect x="0" y="0" width="0" height="200" fill="#fff" mask="url(#satori_om-id)"/></mask><mask id="satori_om-id-0-0-0-1"><rect x="0" y="0" width="0" height="200" fill="#fff" mask="url(#satori_om-id)"/></mask><mask id="satori_om-id-0-0-1"><rect x="0" y="0" width="0" height="200" fill="#fff" mask="url(#satori_om-id)"/></mask><mask id="satori_om-id-0-0-1-0"><rect x="0" y="0" width="0" height="200" fill="#fff" mask="url(#satori_om-id)"/></mask><mask id="satori_om-id-0-0-1-1"><rect x="0" y="0" width="0" height="200" fill="#fff" mask="url(#satori_om-id)"/></mask><mask id="satori_om-id-0-0-2"><rect x="0" y="0" width="0" height="200" fill="#fff" mask="url(#satori_om-id)"/></mask><mask id="satori_om-id-0-0-2-0"><rect x="0" y="0" width="0" height="200" fill="#fff" mask="url(#satori_om-id)"/></mask><mask id="satori_om-id-0-0-2-1"><rect x="0" y="0" width="0" height="200" fill="#fff" mask="url(#satori_om-id)"/></mask><mask id="satori_om-id-0-0-3"><rect x="0" y="0" width="0" height="200" fill="#fff" mask="url(#satori_om-id)"/></mask><mask id="satori_om-id-0-0-3-0"><rect x="0" y="0" width="0" height="200" fill="#fff" mask="url(#satori_om-id)"/></mask><mask id="satori_om-id-0-0-3-1"><rect x="0" y="0" width="0" height="200" fill="#fff" mask="url(#satori_om-id)"/></mask><mask id="satori_om-id-0-1"><rect x="0" y="0" width="0" height="200" fill="#fff" mask="url(#satori_om-id)"/></mask><mask id="satori_om-id-0-2"><rect x="0" y="0" width="0" height="200" fill="#fff" mask="url(#satori_om-id)"/></mask><mask id="satori_om-id-0-3"><rect x="0" y="0" width="0" height="200" fill="#fff" mask="url(#satori_om-id)"/></mask><mask id="satori_om-id-0-4"><rect x="0" y="0" width="0" height="200" fill="#fff" mask="url(#satori_om-id)"/></mask><mask id="satori_om-id-1"><rect x="371" y="48" width="58" height="13" fill="#fff" mask="url(#satori_om-id)"/></mask><g mask="url(#satori_om-id)" clip-path="url(#satori_cp-id)"><path fill="rgba(255,255,255,0.3)" d="M374.5 59.1L374.5 59.1Q373.7 59.1 373.0 58.9Q372.4 58.6 372.0 58.1Q371.7 57.6 371.6 56.9L371.6 56.9L372.7 56.9Q372.7 57.4 373.0 57.6Q373.2 57.9 373.7 58.1Q374.1 58.2 374.5 58.2L374.5 58.2Q375.1 58.2 375.5 58.0Q375.9 57.9 376.2 57.5Q376.4 57.2 376.4 56.8L376.4 56.8Q376.4 56.4 376.2 56.2Q376.0 55.9 375.6 55.8Q375.3 55.6 374.9 55.5L374.9 55.5L373.9 55.2Q372.9 55.0 372.4 54.4Q371.8 53.9 371.8 53.1L371.8 53.1Q371.8 52.5 372.2 52.0Q372.6 51.4 373.2 51.2Q373.8 50.9 374.6 50.9L374.6 50.9Q375.4 50.9 376.0 51.2Q376.6 51.4 377.0 51.9Q377.3 52.4 377.3 53.0L377.3 53.0L376.3 53.0Q376.3 52.4 375.8 52.1Q375.3 51.8 374.6 51.8L374.6 51.8Q374.1 51.8 373.7 52.0Q373.3 52.1 373.1 52.4Q372.8 52.7 372.8 53.1L372.8 53.1Q372.8 53.5 373.1 53.8Q373.4 54.0 373.7 54.2Q374.1 54.3 374.4 54.4L374.4 54.4L375.2 54.6Q375.5 54.7 375.9 54.8Q376.3 55.0 376.6 55.2Q377.0 55.5 377.2 55.9Q377.4 56.3 377.4 56.8L377.4 56.8Q377.4 57.5 377.1 58.0Q376.8 58.5 376.1 58.8Q375.5 59.1 374.5 59.1ZM385.1 51.9L382.6 51.9L382.6 51.0L388.6 51.0L388.6 51.9L386.1 51.9L386.1 59L385.1 59L385.1 51.9ZM394.5 59L393.4 59L396.3 51.0L397.5 51.0L400.5 59L399.4 59L398.6 56.8L395.3 56.8L394.5 59ZM395.6 55.9L398.3 55.9L397.7 54.3Q397.5 53.8 397.3 53.2L397.3 53.2Q397.2 52.6 396.9 51.8L396.9 51.8Q396.7 52.6 396.5 53.2L396.5 53.2Q396.3 53.8 396.2 54.3L396.2 54.3L395.6 55.9ZM409.0 59.1L409.0 59.1Q407.9 59.1 407.1 58.6Q406.3 58.1 405.9 57.2Q405.4 56.3 405.4 55.0L405.4 55.0Q405.4 53.7 405.9 52.8Q406.3 51.9 407.1 51.4Q407.9 50.9 409.0 50.9L409.0 50.9Q409.6 50.9 410.1 51.1Q410.6 51.2 411.1 51.6Q411.5 51.9 411.8 52.4Q412.1 52.9 412.2 53.5L412.2 53.5L411.2 53.5Q411.1 53.1 410.9 52.8Q410.7 52.5 410.4 52.3Q410.1 52.0 409.7 51.9Q409.3 51.8 409.0 51.8L409.0 51.8Q408.2 51.8 407.7 52.2Q407.1 52.6 406.7 53.3Q406.4 54.0 406.4 55.0L406.4 55.0Q406.4 56.0 406.7 56.7Q407.1 57.4 407.7 57.8Q408.2 58.2 409.0 58.2L409.0 58.2Q409.3 58.2 409.7 58.1Q410.1 57.9 410.4 57.7Q410.7 57.5 410.9 57.2Q411.1 56.9 411.2 56.5L411.2 56.5L412.2 56.5Q412.1 57.1 411.8 57.6Q411.5 58.1 411.1 58.4Q410.6 58.7 410.1 58.9Q409.6 59.1 409.0 59.1ZM418.8 59L417.7 59L417.7 51.0L418.8 51.0L418.8 53.7L418.8 55.2Q418.9 55.1 419.0 54.9L419.0 54.9Q419.3 54.6 419.5 54.2Q419.8 53.9 420.1 53.6L420.1 53.6L422.5 51.0L423.9 51.0L420.6 54.5L423.9 59L422.7 59L419.9 55.2L418.8 56.4L418.8 59Z "/></g><mask id="satori_om-id-2"><rect x="60" y="81" width="680" height="72" fill="#fff" mask="url(#satori_om-id)"/></mask><defs><clipPath id="satori_bc-id-2-0" clip-path="url(#satori_cp-id)"><path x="70" y="81" width="73" height="31" d="M85.5,81 h42 a15.5,15.5 0 0 1 15.5,15.5 v0 a15.5,15.5 0 0 1 -15.5,15.5 h-42 a15.5,15.5 0 0 1 -15.5,-15.5 v0 a15.5,15.5 0 0 1 15.5,-15.5"/></clipPath></defs><mask id="satori_om-id-2-0"><rect x="71" y="82" width="71" height="29" fill="#fff" mask="url(#satori_om-id)"/><path width="73" height="31" fill="none" stroke="#000" stroke-width="2" d="M74.53999999999999,85.53999999999999 A15.5,15.5 0 0 1 85.5,81 h42 a15.5,15.5 0 0 1 15.5,15.5 v0 a15.5,15.5 0 0 1 -15.5,15.5 h-42 a15.5,15.5 0 0 1 -15.5,-15.5 v0 A15.5,15.5 0 0 1 74.53999999999999,85.53999999999999"/></mask><path x="70" y="81" width="73" height="31" fill="rgba(255,255,255,0.04)" d="M85.5,81 h42 a15.5,15.5 0 0 1 15.5,15.5 v0 a15.5,15.5 0 0 1 -15.5,15.5 h-42 a15.5,15.5 0 0 1 -15.5,-15.5 v0 a15.5,15.5 0 0 1 15.5,-15.5" clip-path="url(#satori_cp-id)" mask="url(#satori_om-id)"/><path width="73" height="31" clip-path="url(#satori_bc-id-2-0)" fill="none" stroke="rgba(255,255,255,0.08)" stroke-width="2" d="M74.53999999999999,85.53999999999999 A15.5,15.5 0 0 1 85.5,81 h42 a15.5,15.5 0 0 1 15.5,15.5 v0 a15.5,15.5 0 0 1 -15.5,15.5 h-42 a15.5,15.5 0 0 1 -15.5,-15.5 v0 A15.5,15.5 0 0 1 74.53999999999999,85.53999999999999"/><g mask="url(#satori_om-id)" clip-path="url(#satori_cp-id)"><path fill="rgba(255,255,255,0.65)" d="M91.2 101L90.1 101L90.1 92.3L93.0 92.3Q94.1 92.3 94.7 92.6Q95.4 93.0 95.7 93.6Q96.0 94.2 96.0 95.0Q96.0 95.7 95.7 96.3Q95.4 96.9 94.7 97.3L94.7 97.3Q94.6 97.4 94.4 97.4L94.4 97.4L96.4 101L95.1 101L93.3 97.6Q93.2 97.6 93.0 97.6L93.0 97.6L91.2 97.6L91.2 101ZM91.2 93.2L91.2 96.6L93.0 96.6Q93.7 96.6 94.1 96.4Q94.5 96.2 94.7 95.8Q94.9 95.5 94.9 95.0L94.9 95.0Q94.9 94.4 94.7 94.1Q94.5 93.7 94.1 93.5Q93.7 93.2 93.0 93.2L93.0 93.2L91.2 93.2ZM100.9 101.1L100.9 101.1Q100.0 101.1 99.3 100.7Q98.6 100.3 98.2 99.5Q97.8 98.8 97.8 97.8Q97.8 96.8 98.2 96.0Q98.6 95.2 99.2 94.8Q99.9 94.4 100.8 94.4L100.8 94.4Q101.3 94.4 101.8 94.5Q102.3 94.7 102.7 95.1Q103.1 95.5 103.4 96.1Q103.6 96.7 103.6 97.6L103.6 97.6L103.6 98.1L98.9 98.1Q98.9 98.7 99.2 99.2L99.2 99.2Q99.4 99.7 99.9 99.9Q100.3 100.2 100.9 100.2L100.9 100.2Q101.3 100.2 101.6 100.1Q101.9 100.0 102.2 99.8Q102.4 99.5 102.5 99.2L102.5 99.2L103.5 99.5Q103.4 100.0 103.0 100.3Q102.6 100.7 102.1 100.9Q101.6 101.1 100.9 101.1ZM98.9 97.2L98.9 97.2L102.6 97.2Q102.5 96.7 102.4 96.4L102.4 96.4Q102.2 95.9 101.8 95.6Q101.4 95.3 100.8 95.3Q100.2 95.3 99.8 95.6Q99.3 95.9 99.1 96.3L99.1 96.3Q98.9 96.7 98.9 97.2ZM107.5 101.2L107.5 101.2Q106.9 101.2 106.4 100.9Q105.8 100.7 105.5 100.2Q105.2 99.8 105.2 99.1L105.2 99.1Q105.2 98.6 105.5 98.2Q105.7 97.9 106.1 97.7Q106.4 97.5 106.9 97.4Q107.3 97.3 107.8 97.2L107.8 97.2Q108.4 97.1 108.8 97.1Q109.1 97.1 109.3 97.0Q109.5 96.9 109.5 96.6L109.5 96.6L109.5 96.6Q109.5 96.2 109.3 95.9Q109.2 95.6 108.9 95.4Q108.6 95.3 108.1 95.3L108.1 95.3Q107.6 95.3 107.3 95.4Q107.0 95.6 106.8 95.8Q106.6 96.0 106.4 96.3L106.4 96.3L105.4 95.9Q105.7 95.3 106.1 95.0Q106.5 94.6 107.1 94.5Q107.6 94.4 108.1 94.4L108.1 94.4Q108.4 94.4 108.8 94.4Q109.2 94.5 109.6 94.8Q110.0 95.0 110.3 95.5Q110.5 95.9 110.5 96.7L110.5 96.7L110.5 101L109.5 101L109.5 100.1L109.4 100.1Q109.3 100.3 109.1 100.6Q108.8 100.8 108.4 101.0Q108.0 101.2 107.5 101.2ZM107.7 100.2L107.7 100.2Q108.2 100.2 108.7 100.0Q109.1 99.8 109.3 99.4Q109.5 99.0 109.5 98.6L109.5 98.6L109.5 97.7Q109.4 97.8 109.2 97.9Q109.0 97.9 108.7 98.0Q108.4 98.0 108.2 98.0Q107.9 98.1 107.7 98.1L107.7 98.1Q107.4 98.1 107.0 98.3Q106.7 98.4 106.5 98.6Q106.3 98.8 106.3 99.2L106.3 99.2Q106.3 99.5 106.5 99.8Q106.7 100.0 107.0 100.1Q107.3 100.2 107.7 100.2ZM115.5 101.1L115.5 101.1Q114.7 101.1 114.0 100.7Q113.3 100.3 112.9 99.5Q112.6 98.8 112.6 97.8L112.6 97.8Q112.6 96.7 112.9 96.0Q113.3 95.2 114.0 94.8Q114.7 94.4 115.5 94.4L115.5 94.4Q116.0 94.4 116.4 94.5Q116.9 94.6 117.2 94.8Q117.6 95.1 117.8 95.4Q118.1 95.8 118.2 96.2L118.2 96.2L117.2 96.5Q117.1 96.2 117.0 96.0Q116.8 95.8 116.6 95.6Q116.4 95.5 116.1 95.4Q115.9 95.3 115.5 95.3L115.5 95.3Q114.9 95.3 114.5 95.7Q114.0 96.0 113.8 96.6Q113.6 97.1 113.6 97.8L113.6 97.8Q113.6 98.4 113.8 99.0Q114.0 99.5 114.5 99.9Q114.9 100.2 115.5 100.2L115.5 100.2Q115.9 100.2 116.2 100.1Q116.4 100.0 116.6 99.9Q116.9 99.7 117.0 99.5Q117.1 99.3 117.2 99.0L117.2 99.0L118.2 99.3Q118.1 99.7 117.8 100.1Q117.6 100.4 117.2 100.6Q116.9 100.9 116.5 101.0Q116.0 101.1 115.5 101.1ZM121.5 94.4L122.8 94.4L122.8 95.4L121.5 95.4L121.5 99.3Q121.5 99.7 121.6 99.9Q121.8 100.1 122.2 100.1L122.2 100.1Q122.3 100.1 122.5 100.1Q122.7 100.1 122.8 100.1L122.8 100.1L123.0 101.0Q122.8 101.0 122.6 101.1Q122.4 101.1 122.2 101.1L122.2 101.1Q121.4 101.1 120.9 100.6Q120.4 100.2 120.4 99.4L120.4 99.4L120.4 95.4L119.4 95.4L119.4 94.4L120.4 94.4L120.4 92.9L121.5 92.9L121.5 94.4Z "/></g><defs><clipPath id="satori_bc-id-2-1" clip-path="url(#satori_cp-id)"><path x="153" y="81" width="106" height="31" d="M168.5,81 h75 a15.5,15.5 0 0 1 15.5,15.5 v0 a15.5,15.5 0 0 1 -15.5,15.5 h-75 a15.5,15.5 0 0 1 -15.5,-15.5 v0 a15.5,15.5 0 0 1 15.5,-15.5"/></clipPath></defs><mask id="satori_om-id-2-1"><rect x="154" y="82" width="104" height="29" fill="#fff" mask="url(#satori_om-id)"/><path width="106" height="31" fill="none" stroke="#000" stroke-width="2" d="M157.54,85.53999999999999 A15.5,15.5 0 0 1 168.5,81 h75 a15.5,15.5 0 0 1 15.5,15.5 v0 a15.5,15.5 0 0 1 -15.5,15.5 h-75 a15.5,15.5 0 0 1 -15.5,-15.5 v0 A15.5,15.5 0 0 1 157.54,85.53999999999999"/></mask><path x="153" y="81" width="106" height="31" fill="rgba(255,255,255,0.04)" d="M168.5,81 h75 a15.5,15.5 0 0 1 15.5,15.5 v0 a15.5,15.5 0 0 1 -15.5,15.5 h-75 a15.5,15.5 0 0 1 -15.5,-15.5 v0 a15.5,15.5 0 0 1 15.5,-15.5" clip-path="url(#satori_cp-id)" mask="url(#satori_om-id)"/><path width="106" height="31" clip-path="url(#satori_bc-id-2-1)" fill="none" stroke="rgba(255,255,255,0.08)" stroke-width="2" d="M157.54,85.53999999999999 A15.5,15.5 0 0 1 168.5,81 h75 a15.5,15.5 0 0 1 15.5,15.5 v0 a15.5,15.5 0 0 1 -15.5,15.5 h-75 a15.5,15.5 0 0 1 -15.5,-15.5 v0 A15.5,15.5 0 0 1 157.54,85.53999999999999"/><g mask="url(#satori_om-id)" clip-path="url(#satori_cp-id)"><path fill="rgba(255,255,255,0.65)" d="M175.3 93.3L172.6 93.3L172.6 92.3L179.2 92.3L179.2 93.3L176.4 93.3L176.4 101L175.3 101L175.3 93.3ZM181.1 103.4L181.1 103.4L181.3 102.5L181.4 102.5Q181.8 102.6 182.0 102.5Q182.3 102.5 182.5 102.3Q182.7 102.0 182.9 101.6L182.9 101.6L183.1 101.0L180.6 94.4L181.7 94.4L183.1 98.3Q183.3 98.9 183.5 99.5L183.5 99.5Q183.6 99.8 183.6 100.0L183.6 100.0Q183.7 99.8 183.8 99.5L183.8 99.5Q183.9 98.9 184.1 98.3L184.1 98.3L185.5 94.4L186.7 94.4L183.8 102.0Q183.6 102.5 183.3 102.8Q183.0 103.2 182.7 103.3Q182.3 103.5 181.8 103.5L181.8 103.5Q181.6 103.5 181.4 103.5Q181.1 103.4 181.1 103.4ZM189.5 103.4L188.4 103.4L188.4 94.4L189.4 94.4L189.4 95.5L189.6 95.5Q189.7 95.3 189.9 95.1Q190.1 94.8 190.4 94.6Q190.8 94.4 191.5 94.4L191.5 94.4Q192.3 94.4 192.9 94.8Q193.5 95.2 193.9 95.9Q194.2 96.7 194.2 97.7L194.2 97.7Q194.2 98.8 193.9 99.5Q193.5 100.3 192.9 100.7Q192.3 101.1 191.5 101.1L191.5 101.1Q190.8 101.1 190.5 100.9Q190.1 100.7 189.9 100.4Q189.7 100.2 189.6 100.0L189.6 100.0L189.5 100.0L189.5 103.4ZM191.3 100.2L191.3 100.2Q191.9 100.2 192.3 99.9Q192.7 99.5 192.9 99.0Q193.2 98.4 193.2 97.7L193.2 97.7Q193.2 97.1 193.0 96.5Q192.7 96.0 192.3 95.6Q191.9 95.3 191.3 95.3L191.3 95.3Q190.7 95.3 190.3 95.6Q189.9 95.9 189.7 96.5Q189.5 97.0 189.5 97.7L189.5 97.7Q189.5 98.5 189.7 99.0Q189.9 99.6 190.3 99.9Q190.7 100.2 191.3 100.2ZM199.0 101.1L199.0 101.1Q198.1 101.1 197.4 100.7Q196.7 100.3 196.3 99.5Q195.9 98.8 195.9 97.8Q195.9 96.8 196.3 96.0Q196.7 95.2 197.3 94.8Q198.0 94.4 198.9 94.4L198.9 94.4Q199.4 94.4 199.9 94.5Q200.4 94.7 200.8 95.1Q201.3 95.5 201.5 96.1Q201.7 96.7 201.7 97.6L201.7 97.6L201.7 98.1L197.0 98.1Q197.0 98.7 197.3 99.2L197.3 99.2Q197.5 99.7 198.0 99.9Q198.4 100.2 199.0 100.2L199.0 100.2Q199.4 100.2 199.7 100.1Q200.0 100.0 200.3 99.8Q200.5 99.5 200.6 99.2L200.6 99.2L201.6 99.5Q201.5 100.0 201.1 100.3Q200.8 100.7 200.2 100.9Q199.7 101.1 199.0 101.1ZM197.0 97.2L197.0 97.2L200.7 97.2Q200.6 96.7 200.5 96.4L200.5 96.4Q200.3 95.9 199.9 95.6Q199.5 95.3 198.9 95.3Q198.3 95.3 197.9 95.6Q197.5 95.9 197.2 96.3L197.2 96.3Q197.0 96.7 197.0 97.2ZM206.7 101.2L206.7 101.2Q205.7 101.2 205.0 100.8Q204.4 100.5 204.0 100.0Q203.6 99.4 203.5 98.7L203.5 98.7L204.7 98.7Q204.7 99.2 205.0 99.5Q205.3 99.8 205.7 100.0Q206.2 100.2 206.7 100.2L206.7 100.2Q207.3 100.2 207.7 100.0Q208.2 99.8 208.5 99.4Q208.8 99.1 208.8 98.6L208.8 98.6Q208.8 98.2 208.5 97.9Q208.3 97.7 207.9 97.5Q207.5 97.3 207.0 97.2L207.0 97.2L206.0 96.9Q204.9 96.6 204.3 96.0Q203.8 95.5 203.8 94.6L203.8 94.6Q203.8 93.9 204.2 93.3Q204.6 92.8 205.2 92.5Q205.9 92.2 206.8 92.2L206.8 92.2Q207.6 92.2 208.3 92.5Q208.9 92.8 209.3 93.3Q209.7 93.8 209.7 94.5L209.7 94.5L208.6 94.5Q208.6 93.8 208.0 93.5Q207.5 93.1 206.7 93.1L206.7 93.1Q206.2 93.1 205.7 93.3Q205.3 93.5 205.1 93.8Q204.8 94.1 204.8 94.6L204.8 94.6Q204.8 95.0 205.1 95.3Q205.4 95.6 205.8 95.7Q206.2 95.9 206.5 96.0L206.5 96.0L207.4 96.2Q207.7 96.3 208.2 96.5Q208.6 96.6 209.0 96.9Q209.4 97.2 209.6 97.6Q209.9 98.0 209.9 98.6L209.9 98.6Q209.9 99.3 209.5 99.9Q209.1 100.5 208.4 100.8Q207.7 101.2 206.7 101.2ZM214.6 101.1L214.6 101.1Q213.7 101.1 213.1 100.7Q212.4 100.3 212.0 99.5Q211.6 98.8 211.6 97.8L211.6 97.8Q211.6 96.7 212.0 96.0Q212.4 95.2 213.1 94.8Q213.7 94.4 214.6 94.4L214.6 94.4Q215.1 94.4 215.5 94.5Q215.9 94.6 216.3 94.8Q216.6 95.1 216.9 95.4Q217.1 95.8 217.3 96.2L217.3 96.2L216.3 96.5Q216.2 96.2 216.0 96.0Q215.9 95.8 215.7 95.6Q215.5 95.5 215.2 95.4Q214.9 95.3 214.6 95.3L214.6 95.3Q214.0 95.3 213.5 95.7Q213.1 96.0 212.9 96.6Q212.7 97.1 212.7 97.8L212.7 97.8Q212.7 98.4 212.9 99.0Q213.1 99.5 213.5 99.9Q214.0 100.2 214.6 100.2L214.6 100.2Q215.0 100.2 215.2 100.1Q215.5 100.0 215.7 99.9Q215.9 99.7 216.1 99.5Q216.2 99.3 216.3 99.0L216.3 99.0L217.3 99.3Q217.2 99.7 216.9 100.1Q216.7 100.4 216.3 100.6Q216.0 100.9 215.5 101.0Q215.1 101.1 214.6 101.1ZM220.4 101L219.3 101L219.3 94.4L220.3 94.4L220.3 95.5L220.4 95.5Q220.6 95.0 221.1 94.7Q221.5 94.4 222.1 94.4L222.1 94.4Q222.2 94.4 222.4 94.4Q222.5 94.4 222.6 94.4L222.6 94.4L222.6 95.4Q222.6 95.4 222.4 95.4Q222.2 95.4 222.0 95.4L222.0 95.4Q221.5 95.4 221.2 95.6Q220.8 95.8 220.6 96.1Q220.4 96.5 220.4 96.9L220.4 96.9L220.4 101ZM225.4 101L224.3 101L224.3 94.4L225.4 94.4L225.4 101ZM224.9 93.4L224.9 93.4Q224.6 93.4 224.3 93.2Q224.1 93.0 224.1 92.7L224.1 92.7Q224.1 92.4 224.3 92.2Q224.6 92.0 224.9 92.0L224.9 92.0Q225.2 92.0 225.4 92.2Q225.6 92.4 225.6 92.7L225.6 92.7Q225.6 93.0 225.4 93.2Q225.2 93.4 224.9 93.4ZM228.8 103.4L227.7 103.4L227.7 94.4L228.8 94.4L228.8 95.5L228.9 95.5Q229.0 95.3 229.2 95.1Q229.4 94.8 229.8 94.6Q230.1 94.4 230.8 94.4L230.8 94.4Q231.6 94.4 232.2 94.8Q232.8 95.2 233.2 95.9Q233.6 96.7 233.6 97.7L233.6 97.7Q233.6 98.8 233.2 99.5Q232.8 100.3 232.2 100.7Q231.6 101.1 230.8 101.1L230.8 101.1Q230.2 101.1 229.8 100.9Q229.4 100.7 229.2 100.4Q229.0 100.2 228.9 100.0L228.9 100.0L228.8 100.0L228.8 103.4ZM230.6 100.2L230.6 100.2Q231.2 100.2 231.6 99.9Q232.1 99.5 232.3 99.0Q232.5 98.4 232.5 97.7L232.5 97.7Q232.5 97.1 232.3 96.5Q232.1 96.0 231.7 95.6Q231.2 95.3 230.6 95.3L230.6 95.3Q230.0 95.3 229.6 95.6Q229.2 95.9 229.0 96.5Q228.8 97.0 228.8 97.7L228.8 97.7Q228.8 98.5 229.0 99.0Q229.2 99.6 229.6 99.9Q230.0 100.2 230.6 100.2ZM236.8 94.4L238.2 94.4L238.2 95.4L236.8 95.4L236.8 99.3Q236.8 99.7 237.0 99.9Q237.2 100.1 237.6 100.1L237.6 100.1Q237.7 100.1 237.8 100.1Q238 100.1 238.1 100.1L238.1 100.1L238.3 101.0Q238.2 101.0 238.0 101.1Q237.8 101.1 237.6 101.1L237.6 101.1Q236.7 101.1 236.2 100.6Q235.8 100.2 235.8 99.4L235.8 99.4L235.8 95.4L234.8 95.4L234.8 94.4L235.8 94.4L235.8 92.9L236.8 92.9L236.8 94.4Z "/></g><defs><clipPath id="satori_bc-id-2-2" clip-path="url(#satori_cp-id)"><path x="269" y="81" width="85" height="31" d="M284.5,81 h54 a15.5,15.5 0 0 1 15.5,15.5 v0 a15.5,15.5 0 0 1 -15.5,15.5 h-54 a15.5,15.5 0 0 1 -15.5,-15.5 v0 a15.5,15.5 0 0 1 15.5,-15.5"/></clipPath></defs><mask id="satori_om-id-2-2"><rect x="270" y="82" width="83" height="29" fill="#fff" mask="url(#satori_om-id)"/><path width="85" height="31" fill="none" stroke="#000" stroke-width="2" d="M273.54,85.53999999999999 A15.5,15.5 0 0 1 284.5,81 h54 a15.5,15.5 0 0 1 15.5,15.5 v0 a15.5,15.5 0 0 1 -15.5,15.5 h-54 a15.5,15.5 0 0 1 -15.5,-15.5 v0 A15.5,15.5 0 0 1 273.54,85.53999999999999"/></mask><path x="269" y="81" width="85" height="31" fill="rgba(255,255,255,0.04)" d="M284.5,81 h54 a15.5,15.5 0 0 1 15.5,15.5 v0 a15.5,15.5 0 0 1 -15.5,15.5 h-54 a15.5,15.5 0 0 1 -15.5,-15.5 v0 a15.5,15.5 0 0 1 15.5,-15.5" clip-path="url(#satori_cp-id)" mask="url(#satori_om-id)"/><path width="85" height="31" clip-path="url(#satori_bc-id-2-2)" fill="none" stroke="rgba(255,255,255,0.08)" stroke-width="2" d="M273.54,85.53999999999999 A15.5,15.5 0 0 1 284.5,81 h54 a15.5,15.5 0 0 1 15.5,15.5 v0 a15.5,15.5 0 0 1 -15.5,15.5 h-54 a15.5,15.5 0 0 1 -15.5,-15.5 v0 A15.5,15.5 0 0 1 273.54,85.53999999999999"/><g mask="url(#satori_om-id)" clip-path="url(#satori_cp-id)"><path fill="rgba(255,255,255,0.65)" d="M290.2 101L289.1 101L289.1 92.3L290.4 92.3L293.9 97.9Q294.1 98.1 294.3 98.4Q294.5 98.8 294.7 99.2L294.7 99.2Q294.8 99.4 294.9 99.7L294.9 99.7Q294.9 99.4 294.9 99.1L294.9 99.1Q294.9 98.7 294.9 98.3Q294.9 97.9 294.9 97.6L294.9 97.6L294.9 92.3L296.0 92.3L296.0 101L294.7 101L291.5 96.0Q291.3 95.7 291.1 95.3Q290.8 95.0 290.6 94.4L290.6 94.4Q290.4 94.1 290.1 93.6L290.1 93.6Q290.1 94.0 290.1 94.4L290.1 94.4Q290.1 95.0 290.2 95.4Q290.2 95.8 290.2 96.0L290.2 96.0L290.2 101ZM301.1 101.1L301.1 101.1Q300.2 101.1 299.6 100.7Q298.9 100.3 298.5 99.5Q298.2 98.8 298.2 97.8L298.2 97.8Q298.2 96.7 298.5 96.0Q298.9 95.2 299.6 94.8Q300.2 94.4 301.1 94.4L301.1 94.4Q302.0 94.4 302.7 94.8Q303.4 95.2 303.8 96.0Q304.1 96.7 304.1 97.8L304.1 97.8Q304.1 98.8 303.8 99.5Q303.4 100.3 302.7 100.7Q302.0 101.1 301.1 101.1ZM301.1 100.2L301.1 100.2Q301.8 100.2 302.2 99.9Q302.7 99.5 302.9 99.0Q303.1 98.4 303.1 97.8L303.1 97.8Q303.1 97.1 302.9 96.6Q302.7 96.0 302.2 95.7Q301.8 95.3 301.1 95.3L301.1 95.3Q300.5 95.3 300.1 95.7Q299.6 96.0 299.4 96.6Q299.2 97.1 299.2 97.8L299.2 97.8Q299.2 98.4 299.4 99.0Q299.6 99.5 300.1 99.9Q300.5 100.2 301.1 100.2ZM308.6 101.1L308.6 101.1Q307.8 101.1 307.2 100.7Q306.5 100.3 306.2 99.5Q305.8 98.8 305.8 97.7L305.8 97.7Q305.8 96.7 306.2 95.9Q306.6 95.2 307.2 94.8Q307.8 94.4 308.6 94.4L308.6 94.4Q309.3 94.4 309.6 94.6Q310.0 94.8 310.2 95.1Q310.4 95.3 310.5 95.5L310.5 95.5L310.6 95.5L310.6 92.3L311.7 92.3L311.7 101L310.6 101L310.6 100.0L310.5 100.0Q310.4 100.2 310.2 100.4Q310 100.7 309.6 100.9Q309.2 101.1 308.6 101.1ZM308.8 100.2L308.8 100.2Q309.4 100.2 309.8 99.9Q310.2 99.6 310.4 99.0Q310.6 98.5 310.6 97.7L310.6 97.7Q310.6 97.0 310.4 96.5Q310.2 95.9 309.8 95.6Q309.4 95.3 308.8 95.3L308.8 95.3Q308.2 95.3 307.7 95.6Q307.3 96.0 307.1 96.5Q306.9 97.1 306.9 97.7L306.9 97.7Q306.9 98.4 307.1 99.0Q307.3 99.5 307.8 99.9Q308.2 100.2 308.8 100.2ZM316.8 101.1L316.8 101.1Q315.8 101.1 315.1 100.7Q314.4 100.3 314.1 99.5Q313.7 98.8 313.7 97.8Q313.7 96.8 314.1 96.0Q314.4 95.2 315.1 94.8Q315.8 94.4 316.6 94.4L316.6 94.4Q317.2 94.4 317.7 94.5Q318.2 94.7 318.6 95.1Q319.0 95.5 319.2 96.1Q319.5 96.7 319.5 97.6L319.5 97.6L319.5 98.1L314.8 98.1Q314.8 98.7 315.0 99.2L315.0 99.2Q315.3 99.7 315.7 99.9Q316.2 100.2 316.8 100.2L316.8 100.2Q317.2 100.2 317.5 100.1Q317.8 100.0 318.0 99.8Q318.2 99.5 318.4 99.2L318.4 99.2L319.4 99.5Q319.2 100.0 318.9 100.3Q318.5 100.7 318.0 100.9Q317.4 101.1 316.8 101.1ZM314.8 97.2L314.8 97.2L318.4 97.2Q318.4 96.7 318.2 96.4L318.2 96.4Q318.0 95.9 317.6 95.6Q317.2 95.3 316.6 95.3Q316.0 95.3 315.6 95.6Q315.2 95.9 315.0 96.3L315.0 96.3Q314.8 96.7 314.8 97.2ZM322.3 101.1L322.3 101.1Q322.0 101.1 321.7 100.8Q321.5 100.6 321.5 100.3L321.5 100.3Q321.5 100.0 321.7 99.7Q322.0 99.5 322.3 99.5L322.3 99.5Q322.6 99.5 322.9 99.7Q323.1 100.0 323.1 100.3L323.1 100.3Q323.1 100.6 322.9 100.8Q322.6 101.1 322.3 101.1ZM325.5 101.5L325.5 94.4L326.5 94.4L326.5 101.5Q326.5 102.1 326.3 102.5Q326.1 103.0 325.7 103.2Q325.2 103.4 324.6 103.4L324.6 103.4L324.4 103.4L324.4 102.5L324.6 102.5Q325.0 102.5 325.2 102.2Q325.5 102.0 325.5 101.5L325.5 101.5ZM326.0 93.4L326.0 93.4Q325.7 93.4 325.5 93.2Q325.3 93.0 325.3 92.7L325.3 92.7Q325.3 92.4 325.5 92.2Q325.7 92.0 326.0 92.0L326.0 92.0Q326.3 92.0 326.5 92.2Q326.7 92.4 326.7 92.7L326.7 92.7Q326.7 93.0 326.5 93.2Q326.3 93.4 326.0 93.4ZM331.1 101.1L331.1 101.1Q330.4 101.1 329.9 100.9Q329.4 100.7 329.0 100.4Q328.7 100.0 328.6 99.4L328.6 99.4L329.6 99.2Q329.7 99.7 330.1 100.0Q330.5 100.2 331.1 100.2L331.1 100.2Q331.8 100.2 332.2 99.9Q332.6 99.6 332.6 99.2L332.6 99.2Q332.6 98.9 332.3 98.7Q332.1 98.4 331.6 98.3L331.6 98.3L330.5 98.1Q329.6 97.9 329.2 97.4Q328.8 97.0 328.8 96.3L328.8 96.3Q328.8 95.7 329.1 95.3Q329.4 94.9 330.0 94.6Q330.5 94.4 331.2 94.4L331.2 94.4Q331.9 94.4 332.3 94.6Q332.8 94.8 333.1 95.1Q333.4 95.5 333.6 95.9L333.6 95.9L332.6 96.2Q332.5 95.8 332.2 95.6Q331.8 95.3 331.2 95.3L331.2 95.3Q330.6 95.3 330.2 95.5Q329.8 95.8 329.8 96.2L329.8 96.2Q329.8 96.6 330.1 96.8Q330.4 97.0 330.9 97.2L330.9 97.2L331.9 97.4Q332.8 97.6 333.3 98.0Q333.7 98.5 333.7 99.2L333.7 99.2Q333.7 99.7 333.4 100.2Q333.0 100.6 332.4 100.9Q331.9 101.1 331.1 101.1Z "/></g><defs><clipPath id="satori_bc-id-2-3" clip-path="url(#satori_cp-id)"><path x="364" y="81" width="87" height="31" d="M379.5,81 h56 a15.5,15.5 0 0 1 15.5,15.5 v0 a15.5,15.5 0 0 1 -15.5,15.5 h-56 a15.5,15.5 0 0 1 -15.5,-15.5 v0 a15.5,15.5 0 0 1 15.5,-15.5"/></clipPath></defs><mask id="satori_om-id-2-3"><rect x="365" y="82" width="85" height="29" fill="#fff" mask="url(#satori_om-id)"/><path width="87" height="31" fill="none" stroke="#000" stroke-width="2" d="M368.54,85.53999999999999 A15.5,15.5 0 0 1 379.5,81 h56 a15.5,15.5 0 0 1 15.5,15.5 v0 a15.5,15.5 0 0 1 -15.5,15.5 h-56 a15.5,15.5 0 0 1 -15.5,-15.5 v0 A15.5,15.5 0 0 1 368.54,85.53999999999999"/></mask><path x="364" y="81" width="87" height="31" fill="rgba(255,255,255,0.04)" d="M379.5,81 h56 a15.5,15.5 0 0 1 15.5,15.5 v0 a15.5,15.5 0 0 1 -15.5,15.5 h-56 a15.5,15.5 0 0 1 -15.5,-15.5 v0 a15.5,15.5 0 0 1 15.5,-15.5" clip-path="url(#satori_cp-id)" mask="url(#satori_om-id)"/><path width="87" height="31" clip-path="url(#satori_bc-id-2-3)" fill="none" stroke="rgba(255,255,255,0.08)" stroke-width="2" d="M368.54,85.53999999999999 A15.5,15.5 0 0 1 379.5,81 h56 a15.5,15.5 0 0 1 15.5,15.5 v0 a15.5,15.5 0 0 1 -15.5,15.5 h-56 a15.5,15.5 0 0 1 -15.5,-15.5 v0 A15.5,15.5 0 0 1 368.54,85.53999999999999"/><g mask="url(#satori_om-id)" clip-path="url(#satori_cp-id)"><path fill="rgba(255,255,255,0.65)" d="M389.4 101L384.1 101L384.1 92.3L389.4 92.3L389.4 93.3L385.2 93.3L385.2 96.1L389.1 96.1L389.1 97.1L385.2 97.1L385.2 100.0L389.4 100.0L389.4 101ZM392.3 101L391.1 101L393.4 97.6L391.2 94.4L392.5 94.4L393.3 95.7Q393.6 96.2 393.8 96.6L393.8 96.6Q393.9 96.8 394.0 97.0L394.0 97.0Q394.1 96.8 394.2 96.6L394.2 96.6Q394.4 96.2 394.7 95.7L394.7 95.7L395.6 94.4L396.8 94.4L394.6 97.7L396.9 101L395.7 101L394.7 99.5Q394.4 99.0 394.2 98.6L394.2 98.6Q394.1 98.5 394.0 98.3L394.0 98.3Q393.9 98.5 393.8 98.6L393.8 98.6Q393.6 99.0 393.3 99.5L393.3 99.5L392.3 101ZM399.7 103.4L398.7 103.4L398.7 94.4L399.7 94.4L399.7 95.5L399.8 95.5Q399.9 95.3 400.1 95.1Q400.3 94.8 400.7 94.6Q401.1 94.4 401.7 94.4L401.7 94.4Q402.5 94.4 403.2 94.8Q403.8 95.2 404.1 95.9Q404.5 96.7 404.5 97.7L404.5 97.7Q404.5 98.8 404.2 99.5Q403.8 100.3 403.2 100.7Q402.6 101.1 401.7 101.1L401.7 101.1Q401.1 101.1 400.7 100.9Q400.3 100.7 400.1 100.4Q399.9 100.2 399.8 100.0L399.8 100.0L399.7 100.0L399.7 103.4ZM401.6 100.2L401.6 100.2Q402.2 100.2 402.6 99.9Q403.0 99.5 403.2 99.0Q403.4 98.4 403.4 97.7L403.4 97.7Q403.4 97.1 403.2 96.5Q403.0 96.0 402.6 95.6Q402.2 95.3 401.6 95.3L401.6 95.3Q401.0 95.3 400.6 95.6Q400.1 95.9 399.9 96.5Q399.7 97.0 399.7 97.7L399.7 97.7Q399.7 98.5 399.9 99.0Q400.2 99.6 400.6 99.9Q401.0 100.2 401.6 100.2ZM407.6 101L406.5 101L406.5 94.4L407.6 94.4L407.6 95.5L407.6 95.5Q407.8 95.0 408.3 94.7Q408.7 94.4 409.3 94.4L409.3 94.4Q409.4 94.4 409.6 94.4Q409.8 94.4 409.9 94.4L409.9 94.4L409.9 95.4Q409.8 95.4 409.6 95.4Q409.4 95.4 409.2 95.4L409.2 95.4Q408.8 95.4 408.4 95.6Q408.0 95.8 407.8 96.1Q407.6 96.5 407.6 96.9L407.6 96.9L407.6 101ZM414.3 101.1L414.3 101.1Q413.4 101.1 412.7 100.7Q412.0 100.3 411.6 99.5Q411.2 98.8 411.2 97.8Q411.2 96.8 411.6 96.0Q412.0 95.2 412.6 94.8Q413.3 94.4 414.2 94.4L414.2 94.4Q414.7 94.4 415.2 94.5Q415.7 94.7 416.1 95.1Q416.5 95.5 416.8 96.1Q417.0 96.7 417.0 97.6L417.0 97.6L417.0 98.1L412.3 98.1Q412.3 98.7 412.6 99.2L412.6 99.2Q412.8 99.7 413.3 99.9Q413.7 100.2 414.3 100.2L414.3 100.2Q414.7 100.2 415.0 100.1Q415.3 100.0 415.6 99.8Q415.8 99.5 415.9 99.2L415.9 99.2L416.9 99.5Q416.8 100.0 416.4 100.3Q416.1 100.7 415.5 100.9Q415.0 101.1 414.3 101.1ZM412.3 97.2L412.3 97.2L416.0 97.2Q415.9 96.7 415.8 96.4L415.8 96.4Q415.6 95.9 415.2 95.6Q414.8 95.3 414.2 95.3Q413.6 95.3 413.2 95.6Q412.8 95.9 412.5 96.3L412.5 96.3Q412.3 96.7 412.3 97.2ZM421.3 101.1L421.3 101.1Q420.6 101.1 420.1 100.9Q419.6 100.7 419.2 100.4Q418.9 100.0 418.8 99.4L418.8 99.4L419.8 99.2Q419.9 99.7 420.3 100.0Q420.7 100.2 421.3 100.2L421.3 100.2Q422.0 100.2 422.4 99.9Q422.8 99.6 422.8 99.2L422.8 99.2Q422.8 98.9 422.5 98.7Q422.3 98.4 421.8 98.3L421.8 98.3L420.7 98.1Q419.8 97.9 419.4 97.4Q419.0 97.0 419.0 96.3L419.0 96.3Q419.0 95.7 419.3 95.3Q419.6 94.9 420.1 94.6Q420.7 94.4 421.4 94.4L421.4 94.4Q422.1 94.4 422.5 94.6Q423 94.8 423.3 95.1Q423.6 95.5 423.7 95.9L423.7 95.9L422.8 96.2Q422.6 95.8 422.3 95.6Q422.0 95.3 421.4 95.3L421.4 95.3Q420.8 95.3 420.4 95.5Q420.0 95.8 420.0 96.2L420.0 96.2Q420.0 96.6 420.3 96.8Q420.6 97.0 421.1 97.2L421.1 97.2L422.1 97.4Q423.0 97.6 423.4 98.0Q423.9 98.5 423.9 99.2L423.9 99.2Q423.9 99.7 423.5 100.2Q423.2 100.6 422.6 100.9Q422.0 101.1 421.3 101.1ZM428.1 101.1L428.1 101.1Q427.4 101.1 426.9 100.9Q426.4 100.7 426.0 100.4Q425.7 100.0 425.6 99.4L425.6 99.4L426.6 99.2Q426.7 99.7 427.1 100.0Q427.5 100.2 428.1 100.2L428.1 100.2Q428.8 100.2 429.2 99.9Q429.6 99.6 429.6 99.2L429.6 99.2Q429.6 98.9 429.4 98.7Q429.1 98.4 428.6 98.3L428.6 98.3L427.5 98.1Q426.7 97.9 426.2 97.4Q425.8 97.0 425.8 96.3L425.8 96.3Q425.8 95.7 426.1 95.3Q426.4 94.9 427.0 94.6Q427.5 94.4 428.2 94.4L428.2 94.4Q428.9 94.4 429.4 94.6Q429.8 94.8 430.1 95.1Q430.4 95.5 430.6 95.9L430.6 95.9L429.6 96.2Q429.5 95.8 429.2 95.6Q428.9 95.3 428.2 95.3L428.2 95.3Q427.6 95.3 427.2 95.5Q426.9 95.8 426.9 96.2L426.9 96.2Q426.9 96.6 427.1 96.8Q427.4 97.0 428.0 97.2L428.0 97.2L428.9 97.4Q429.8 97.6 430.3 98.0Q430.7 98.5 430.7 99.2L430.7 99.2Q430.7 99.7 430.4 100.2Q430.0 100.6 429.5 100.9Q428.9 101.1 428.1 101.1Z "/></g><defs><clipPath id="satori_bc-id-2-4" clip-path="url(#satori_cp-id)"><path x="461" y="81" width="90" height="31" d="M476.5,81 h59 a15.5,15.5 0 0 1 15.5,15.5 v0 a15.5,15.5 0 0 1 -15.5,15.5 h-59 a15.5,15.5 0 0 1 -15.5,-15.5 v0 a15.5,15.5 0 0 1 15.5,-15.5"/></clipPath></defs><mask id="satori_om-id-2-4"><rect x="462" y="82" width="88" height="29" fill="#fff" mask="url(#satori_om-id)"/><path width="90" height="31" fill="none" stroke="#000" stroke-width="2" d="M465.54,85.53999999999999 A15.5,15.5 0 0 1 476.5,81 h59 a15.5,15.5 0 0 1 15.5,15.5 v0 a15.5,15.5 0 0 1 -15.5,15.5 h-59 a15.5,15.5 0 0 1 -15.5,-15.5 v0 A15.5,15.5 0 0 1 465.54,85.53999999999999"/></mask><path x="461" y="81" width="90" height="31" fill="rgba(255,255,255,0.04)" d="M476.5,81 h59 a15.5,15.5 0 0 1 15.5,15.5 v0 a15.5,15.5 0 0 1 -15.5,15.5 h-59 a15.5,15.5 0 0 1 -15.5,-15.5 v0 a15.5,15.5 0 0 1 15.5,-15.5" clip-path="url(#satori_cp-id)" mask="url(#satori_om-id)"/><path width="90" height="31" clip-path="url(#satori_bc-id-2-4)" fill="none" stroke="rgba(255,255,255,0.08)" stroke-width="2" d="M465.54,85.53999999999999 A15.5,15.5 0 0 1 476.5,81 h59 a15.5,15.5 0 0 1 15.5,15.5 v0 a15.5,15.5 0 0 1 -15.5,15.5 h-59 a15.5,15.5 0 0 1 -15.5,-15.5 v0 A15.5,15.5 0 0 1 465.54,85.53999999999999"/><g mask="url(#satori_om-id)" clip-path="url(#satori_cp-id)"><path fill="rgba(255,255,255,0.65)" d="M483.3 93.3L480.6 93.3L480.6 92.3L487.2 92.3L487.2 93.3L484.4 93.3L484.4 101L483.3 101L483.3 93.3ZM491.0 101.2L491.0 101.2Q490.4 101.2 489.9 100.9Q489.4 100.7 489.1 100.2Q488.8 99.8 488.8 99.1L488.8 99.1Q488.8 98.6 489.0 98.2Q489.2 97.9 489.6 97.7Q490.0 97.5 490.4 97.4Q490.9 97.3 491.3 97.2L491.3 97.2Q491.9 97.1 492.3 97.1Q492.6 97.1 492.8 97.0Q493.0 96.9 493.0 96.6L493.0 96.6L493.0 96.6Q493.0 96.2 492.9 95.9Q492.7 95.6 492.4 95.4Q492.1 95.3 491.6 95.3L491.6 95.3Q491.2 95.3 490.8 95.4Q490.5 95.6 490.3 95.8Q490.1 96.0 490.0 96.3L490.0 96.3L489.0 95.9Q489.2 95.3 489.6 95.0Q490.1 94.6 490.6 94.5Q491.1 94.4 491.6 94.4L491.6 94.4Q491.9 94.4 492.4 94.4Q492.8 94.5 493.2 94.8Q493.5 95.0 493.8 95.5Q494.1 95.9 494.1 96.7L494.1 96.7L494.1 101L493.0 101L493.0 100.1L493.0 100.1Q492.8 100.3 492.6 100.6Q492.3 100.8 492.0 101.0Q491.6 101.2 491.0 101.2ZM491.2 100.2L491.2 100.2Q491.8 100.2 492.2 100.0Q492.6 99.8 492.8 99.4Q493.0 99.0 493.0 98.6L493.0 98.6L493.0 97.7Q492.9 97.8 492.7 97.9Q492.5 97.9 492.2 98.0Q491.9 98.0 491.7 98.0Q491.4 98.1 491.3 98.1L491.3 98.1Q490.9 98.1 490.6 98.3Q490.2 98.4 490.0 98.6Q489.8 98.8 489.8 99.2L489.8 99.2Q489.8 99.5 490.0 99.8Q490.2 100.0 490.5 100.1Q490.8 100.2 491.2 100.2ZM497.5 101L496.4 101L496.4 94.4L497.5 94.4L497.5 101ZM496.9 93.4L496.9 93.4Q496.6 93.4 496.4 93.2Q496.2 93.0 496.2 92.7L496.2 92.7Q496.2 92.4 496.4 92.2Q496.6 92.0 496.9 92.0L496.9 92.0Q497.2 92.0 497.5 92.2Q497.7 92.4 497.7 92.7L497.7 92.7Q497.7 93.0 497.5 93.2Q497.2 93.4 496.9 93.4ZM499.8 92.3L500.9 92.3L500.9 101L499.8 101L499.8 92.3ZM505.7 101L504.7 101L502.7 94.4L503.8 94.4L504.6 97.3Q504.8 97.9 505.0 98.6L505.0 98.6Q505.1 99.2 505.3 99.9L505.3 99.9Q505.4 99.2 505.5 98.7L505.5 98.7Q505.7 97.9 505.9 97.3L505.9 97.3L506.7 94.4L507.8 94.4L508.6 97.3Q508.7 97.9 508.9 98.7L508.9 98.7Q509.0 99.2 509.2 99.9L509.2 99.9Q509.3 99.2 509.4 98.7L509.4 98.7Q509.6 97.9 509.8 97.3L509.8 97.3L510.6 94.4L511.7 94.4L509.7 101L508.7 101L507.8 98.0Q507.7 97.6 507.6 97.1Q507.4 96.6 507.3 96.2L507.3 96.2Q507.3 95.9 507.2 95.6L507.2 95.6Q507.1 95.9 507.1 96.1L507.1 96.1Q507.0 96.6 506.8 97.1Q506.7 97.6 506.6 98.0L506.6 98.0L505.7 101ZM514.6 101L513.5 101L513.5 94.4L514.6 94.4L514.6 101ZM514.1 93.4L514.1 93.4Q513.8 93.4 513.6 93.2Q513.3 93.0 513.3 92.7L513.3 92.7Q513.3 92.4 513.6 92.2Q513.8 92.0 514.1 92.0L514.1 92.0Q514.4 92.0 514.6 92.2Q514.8 92.4 514.8 92.7L514.8 92.7Q514.8 93.0 514.6 93.2Q514.4 93.4 514.1 93.4ZM518.0 97.1L518.0 97.1L518.0 101L516.9 101L516.9 94.4L518.0 94.4L518.0 95.7Q518.2 95.0 518.7 94.7L518.7 94.7Q519.2 94.4 520.0 94.4L520.0 94.4Q520.6 94.4 521.1 94.6Q521.6 94.9 521.9 95.5Q522.2 96.0 522.2 96.8L522.2 96.8L522.2 101L521.1 101L521.1 96.9Q521.1 96.2 520.7 95.7Q520.3 95.3 519.7 95.3L519.7 95.3Q519.2 95.3 518.8 95.5Q518.4 95.7 518.2 96.1Q518.0 96.5 518.0 97.1ZM527.0 101.1L527.0 101.1Q526.2 101.1 525.6 100.7Q524.9 100.3 524.6 99.5Q524.2 98.8 524.2 97.7L524.2 97.7Q524.2 96.7 524.6 95.9Q524.9 95.2 525.6 94.8Q526.2 94.4 527 94.4L527 94.4Q527.6 94.4 528.0 94.6Q528.4 94.8 528.6 95.1Q528.8 95.3 528.9 95.5L528.9 95.5L529.0 95.5L529.0 92.3L530.0 92.3L530.0 101L529.0 101L529.0 100.0L528.9 100.0Q528.8 100.2 528.6 100.4Q528.4 100.7 528.0 100.9Q527.6 101.1 527.0 101.1ZM527.2 100.2L527.2 100.2Q527.8 100.2 528.2 99.9Q528.6 99.6 528.8 99.0Q529.0 98.5 529.0 97.7L529.0 97.7Q529.0 97.0 528.8 96.5Q528.6 95.9 528.2 95.6Q527.8 95.3 527.2 95.3L527.2 95.3Q526.5 95.3 526.1 95.6Q525.7 96.0 525.5 96.5Q525.3 97.1 525.3 97.7L525.3 97.7Q525.3 98.4 525.5 99.0Q525.7 99.5 526.1 99.9Q526.5 100.2 527.2 100.2Z "/></g><defs><clipPath id="satori_bc-id-2-5" clip-path="url(#satori_cp-id)"><path x="561" y="81" width="104" height="31" d="M576.5,81 h73 a15.5,15.5 0 0 1 15.5,15.5 v0 a15.5,15.5 0 0 1 -15.5,15.5 h-73 a15.5,15.5 0 0 1 -15.5,-15.5 v0 a15.5,15.5 0 0 1 15.5,-15.5"/></clipPath></defs><mask id="satori_om-id-2-5"><rect x="562" y="82" width="102" height="29" fill="#fff" mask="url(#satori_om-id)"/><path width="104" height="31" fill="none" stroke="#000" stroke-width="2" d="M565.54,85.53999999999999 A15.5,15.5 0 0 1 576.5,81 h73 a15.5,15.5 0 0 1 15.5,15.5 v0 a15.5,15.5 0 0 1 -15.5,15.5 h-73 a15.5,15.5 0 0 1 -15.5,-15.5 v0 A15.5,15.5 0 0 1 565.54,85.53999999999999"/></mask><path x="561" y="81" width="104" height="31" fill="rgba(255,255,255,0.04)" d="M576.5,81 h73 a15.5,15.5 0 0 1 15.5,15.5 v0 a15.5,15.5 0 0 1 -15.5,15.5 h-73 a15.5,15.5 0 0 1 -15.5,-15.5 v0 a15.5,15.5 0 0 1 15.5,-15.5" clip-path="url(#satori_cp-id)" mask="url(#satori_om-id)"/><path width="104" height="31" clip-path="url(#satori_bc-id-2-5)" fill="none" stroke="rgba(255,255,255,0.08)" stroke-width="2" d="M565.54,85.53999999999999 A15.5,15.5 0 0 1 576.5,81 h73 a15.5,15.5 0 0 1 15.5,15.5 v0 a15.5,15.5 0 0 1 -15.5,15.5 h-73 a15.5,15.5 0 0 1 -15.5,-15.5 v0 A15.5,15.5 0 0 1 565.54,85.53999999999999"/><g mask="url(#satori_om-id)" clip-path="url(#satori_cp-id)"><path fill="rgba(255,255,255,0.65)" d="M581.5 101L580.3 101L583.5 92.3L584.8 92.3L588.0 101L586.8 101L585.9 98.6L582.3 98.6L581.5 101ZM582.7 97.6L585.6 97.6L585.0 95.8Q584.8 95.3 584.6 94.6L584.6 94.6Q584.4 94.0 584.1 93.2L584.1 93.2Q583.9 94.0 583.7 94.6L583.7 94.6Q583.4 95.4 583.3 95.8L583.3 95.8L582.7 97.6ZM590.8 101L589.7 101L589.7 94.4L590.7 94.4L590.7 95.5L590.8 95.5Q591.0 95.0 591.4 94.7Q591.9 94.4 592.5 94.4L592.5 94.4Q592.6 94.4 592.8 94.4Q592.9 94.4 593.0 94.4L593.0 94.4L593.0 95.4Q593.0 95.4 592.8 95.4Q592.6 95.4 592.4 95.4L592.4 95.4Q591.9 95.4 591.6 95.6Q591.2 95.8 591.0 96.1Q590.8 96.5 590.8 96.9L590.8 96.9L590.8 101ZM597.4 101.1L597.4 101.1Q596.5 101.1 595.8 100.7Q595.2 100.3 594.8 99.5Q594.4 98.8 594.4 97.8L594.4 97.8Q594.4 96.7 594.8 96.0Q595.2 95.2 595.8 94.8Q596.5 94.4 597.4 94.4L597.4 94.4Q597.9 94.4 598.3 94.5Q598.7 94.6 599.1 94.8Q599.4 95.1 599.7 95.4Q599.9 95.8 600.0 96.2L600.0 96.2L599.0 96.5Q599.0 96.2 598.8 96.0Q598.7 95.8 598.5 95.6Q598.3 95.5 598.0 95.4Q597.7 95.3 597.4 95.3L597.4 95.3Q596.7 95.3 596.3 95.7Q595.9 96.0 595.7 96.6Q595.5 97.1 595.5 97.8L595.5 97.8Q595.5 98.4 595.7 99.0Q595.9 99.5 596.3 99.9Q596.7 100.2 597.4 100.2L597.4 100.2Q597.7 100.2 598.0 100.1Q598.3 100.0 598.5 99.9Q598.7 99.7 598.8 99.5Q599.0 99.3 599.1 99.0L599.1 99.0L600.1 99.3Q599.9 99.7 599.7 100.1Q599.4 100.4 599.1 100.6Q598.7 100.9 598.3 101.0Q597.9 101.1 597.4 101.1ZM603.1 97.1L603.1 97.1L603.1 101L602.1 101L602.1 92.3L603.1 92.3L603.1 95.6Q603.4 95.0 603.8 94.7L603.8 94.7Q604.4 94.4 605.1 94.4L605.1 94.4Q605.8 94.4 606.3 94.6Q606.8 94.9 607.0 95.5Q607.3 96.0 607.3 96.8L607.3 96.8L607.3 101L606.3 101L606.3 96.9Q606.3 96.2 605.9 95.7Q605.5 95.3 604.8 95.3L604.8 95.3Q604.3 95.3 603.9 95.5Q603.6 95.7 603.3 96.1Q603.1 96.5 603.1 97.1Z M618.8 101L613.7 101L613.7 92.3L614.8 92.3L614.8 100.0L618.8 100.0L618.8 101ZM621.9 101L620.8 101L620.8 94.4L621.9 94.4L621.9 101ZM621.4 93.4L621.4 93.4Q621.1 93.4 620.9 93.2Q620.6 93.0 620.6 92.7L620.6 92.7Q620.6 92.4 620.9 92.2Q621.1 92.0 621.4 92.0L621.4 92.0Q621.7 92.0 621.9 92.2Q622.1 92.4 622.1 92.7L622.1 92.7Q622.1 93.0 621.9 93.2Q621.7 93.4 621.4 93.4ZM625.3 97.1L625.3 97.1L625.3 101L624.2 101L624.2 94.4L625.3 94.4L625.3 95.7Q625.5 95.0 626.0 94.7L626.0 94.7Q626.5 94.4 627.3 94.4L627.3 94.4Q627.9 94.4 628.4 94.6Q628.9 94.9 629.2 95.5Q629.5 96.0 629.5 96.8L629.5 96.8L629.5 101L628.4 101L628.4 96.9Q628.4 96.2 628.0 95.7Q627.6 95.3 626.9 95.3L626.9 95.3Q626.5 95.3 626.1 95.5Q625.7 95.7 625.5 96.1Q625.3 96.5 625.3 97.1ZM634.1 101.1L634.1 101.1Q633.4 101.1 632.9 100.8Q632.4 100.5 632.1 100.0Q631.8 99.4 631.8 98.6L631.8 98.6L631.8 94.4L632.9 94.4L632.9 98.5Q632.9 99.3 633.3 99.7Q633.7 100.1 634.4 100.1L634.4 100.1Q634.8 100.1 635.2 99.9Q635.6 99.7 635.8 99.3Q636.0 98.9 636.0 98.4L636.0 98.4L636.0 94.4L637.1 94.4L637.1 101L636.1 101L636.1 99.8Q635.8 100.4 635.3 100.7L635.3 100.7Q634.8 101.1 634.1 101.1ZM640.1 101L638.9 101L641.2 97.6L639.0 94.4L640.2 94.4L641.1 95.7Q641.4 96.2 641.6 96.6L641.6 96.6Q641.7 96.8 641.8 97.0L641.8 97.0Q641.9 96.8 642.0 96.6L642.0 96.6Q642.2 96.2 642.5 95.7L642.5 95.7L643.4 94.4L644.6 94.4L642.4 97.7L644.7 101L643.4 101L642.5 99.5Q642.2 99.0 642.0 98.6L642.0 98.6Q641.9 98.5 641.8 98.3L641.8 98.3Q641.7 98.5 641.6 98.6L641.6 98.6Q641.4 99.0 641.1 99.5L641.1 99.5L640.1 101Z "/></g><defs><clipPath id="satori_bc-id-2-6" clip-path="url(#satori_cp-id)"><path x="675" y="81" width="56" height="31" d="M690.5,81 h25 a15.5,15.5 0 0 1 15.5,15.5 v0 a15.5,15.5 0 0 1 -15.5,15.5 h-25 a15.5,15.5 0 0 1 -15.5,-15.5 v0 a15.5,15.5 0 0 1 15.5,-15.5"/></clipPath></defs><mask id="satori_om-id-2-6"><rect x="676" y="82" width="54" height="29" fill="#fff" mask="url(#satori_om-id)"/><path width="56" height="31" fill="none" stroke="#000" stroke-width="2" d="M679.54,85.53999999999999 A15.5,15.5 0 0 1 690.5,81 h25 a15.5,15.5 0 0 1 15.5,15.5 v0 a15.5,15.5 0 0 1 -15.5,15.5 h-25 a15.5,15.5 0 0 1 -15.5,-15.5 v0 A15.5,15.5 0 0 1 679.54,85.53999999999999"/></mask><path x="675" y="81" width="56" height="31" fill="rgba(255,255,255,0.04)" d="M690.5,81 h25 a15.5,15.5 0 0 1 15.5,15.5 v0 a15.5,15.5 0 0 1 -15.5,15.5 h-25 a15.5,15.5 0 0 1 -15.5,-15.5 v0 a15.5,15.5 0 0 1 15.5,-15.5" clip-path="url(#satori_cp-id)" mask="url(#satori_om-id)"/><path width="56" height="31" clip-path="url(#satori_bc-id-2-6)" fill="none" stroke="rgba(255,255,255,0.08)" stroke-width="2" d="M679.54,85.53999999999999 A15.5,15.5 0 0 1 690.5,81 h25 a15.5,15.5 0 0 1 15.5,15.5 v0 a15.5,15.5 0 0 1 -15.5,15.5 h-25 a15.5,15.5 0 0 1 -15.5,-15.5 v0 A15.5,15.5 0 0 1 679.54,85.53999999999999"/><g mask="url(#satori_om-id)" clip-path="url(#satori_cp-id)"><path fill="rgba(255,255,255,0.65)" d="M698.6 101.1L698.6 101.1Q697.5 101.1 696.6 100.6Q695.7 100.0 695.2 99.0Q694.7 98.0 694.7 96.6L694.7 96.6Q694.7 95.3 695.2 94.2Q695.7 93.2 696.6 92.7Q697.4 92.2 698.6 92.2L698.6 92.2Q699.2 92.2 699.8 92.4Q700.4 92.6 700.9 92.9Q701.4 93.3 701.7 93.8Q702.0 94.4 702.1 95.0L702.1 95.0L701.0 95.0Q700.9 94.6 700.6 94.3Q700.4 93.9 700.1 93.7Q699.8 93.4 699.4 93.3Q699.0 93.2 698.6 93.2L698.6 93.2Q697.8 93.2 697.2 93.6Q696.5 94.0 696.2 94.7Q695.8 95.5 695.8 96.6L695.8 96.6Q695.8 97.8 696.2 98.5Q696.5 99.3 697.2 99.7Q697.8 100.1 698.6 100.1L698.6 100.1Q699.4 100.1 699.9 99.8Q700.5 99.5 700.8 98.9L700.8 98.9Q701.1 98.3 701.1 97.6L701.1 97.6L698.9 97.6L698.9 96.6L702.2 96.6L702.2 97.6Q702.2 98.7 701.7 99.4Q701.3 100.2 700.5 100.7Q699.7 101.1 698.6 101.1ZM705.4 101L704.4 101L704.4 94.4L705.4 94.4L705.4 101ZM704.9 93.4L704.9 93.4Q704.6 93.4 704.4 93.2Q704.2 93.0 704.2 92.7L704.2 92.7Q704.2 92.4 704.4 92.2Q704.6 92.0 704.9 92.0L704.9 92.0Q705.2 92.0 705.4 92.2Q705.7 92.4 705.7 92.7L705.7 92.7Q705.7 93.0 705.4 93.2Q705.2 93.4 704.9 93.4ZM709.0 94.4L710.4 94.4L710.4 95.4L709.0 95.4L709.0 99.3Q709.0 99.7 709.2 99.9Q709.4 100.1 709.8 100.1L709.8 100.1Q709.9 100.1 710.0 100.1Q710.2 100.1 710.3 100.1L710.3 100.1L710.5 101.0Q710.4 101.0 710.2 101.1Q710.0 101.1 709.8 101.1L709.8 101.1Q708.9 101.1 708.4 100.6Q708.0 100.2 708.0 99.4L708.0 99.4L708.0 95.4L707.0 95.4L707.0 94.4L708.0 94.4L708.0 92.9L709.0 92.9L709.0 94.4Z "/></g><defs><clipPath id="satori_bc-id-2-7" clip-path="url(#satori_cp-id)"><path x="333" y="122" width="48" height="31" d="M348.5,122 h17 a15.5,15.5 0 0 1 15.5,15.5 v0 a15.5,15.5 0 0 1 -15.5,15.5 h-17 a15.5,15.5 0 0 1 -15.5,-15.5 v0 a15.5,15.5 0 0 1 15.5,-15.5"/></clipPath></defs><mask id="satori_om-id-2-7"><rect x="334" y="123" width="46" height="29" fill="#fff" mask="url(#satori_om-id)"/><path width="48" height="31" fill="none" stroke="#000" stroke-width="2" d="M337.54,126.53999999999999 A15.5,15.5 0 0 1 348.5,122 h17 a15.5,15.5 0 0 1 15.5,15.5 v0 a15.5,15.5 0 0 1 -15.5,15.5 h-17 a15.5,15.5 0 0 1 -15.5,-15.5 v0 A15.5,15.5 0 0 1 337.54,126.53999999999999"/></mask><path x="333" y="122" width="48" height="31" fill="rgba(255,255,255,0.04)" d="M348.5,122 h17 a15.5,15.5 0 0 1 15.5,15.5 v0 a15.5,15.5 0 0 1 -15.5,15.5 h-17 a15.5,15.5 0 0 1 -15.5,-15.5 v0 a15.5,15.5 0 0 1 15.5,-15.5" clip-path="url(#satori_cp-id)" mask="url(#satori_om-id)"/><path width="48" height="31" clip-path="url(#satori_bc-id-2-7)" fill="none" stroke="rgba(255,255,255,0.08)" stroke-width="2" d="M337.54,126.53999999999999 A15.5,15.5 0 0 1 348.5,122 h17 a15.5,15.5 0 0 1 15.5,15.5 v0 a15.5,15.5 0 0 1 -15.5,15.5 h-17 a15.5,15.5 0 0 1 -15.5,-15.5 v0 A15.5,15.5 0 0 1 337.54,126.53999999999999"/><g mask="url(#satori_om-id)" clip-path="url(#satori_cp-id)"><path fill="rgba(255,255,255,0.65)" d="M356.6 142.1L356.6 142.1Q355.5 142.1 354.6 141.6Q353.7 141.0 353.2 140.0Q352.7 139.0 352.7 137.6L352.7 137.6Q352.7 136.3 353.2 135.2Q353.7 134.2 354.6 133.7Q355.5 133.2 356.6 133.2L356.6 133.2Q357.3 133.2 357.8 133.3Q358.4 133.5 358.9 133.9Q359.4 134.3 359.7 134.8Q360.0 135.3 360.1 136.0L360.1 136.0L359.0 136.0Q358.9 135.6 358.7 135.2Q358.5 134.9 358.1 134.7Q357.8 134.4 357.4 134.3Q357.0 134.2 356.6 134.2L356.6 134.2Q355.8 134.2 355.2 134.6Q354.5 135.0 354.2 135.8Q353.8 136.5 353.8 137.6L353.8 137.6Q353.8 138.8 354.2 139.5Q354.5 140.3 355.2 140.7Q355.8 141.1 356.6 141.1L356.6 141.1Q357.0 141.1 357.4 141.0Q357.8 140.8 358.1 140.6Q358.5 140.4 358.7 140.0Q358.9 139.7 359.0 139.3L359.0 139.3L360.1 139.3Q360.0 139.9 359.7 140.4Q359.4 141.0 358.9 141.3Q358.4 141.7 357.8 141.9Q357.3 142.1 356.6 142.1Z "/></g><defs><clipPath id="satori_bc-id-2-8" clip-path="url(#satori_cp-id)"><path x="391" y="122" width="76" height="31" d="M406.5,122 h45 a15.5,15.5 0 0 1 15.5,15.5 v0 a15.5,15.5 0 0 1 -15.5,15.5 h-45 a15.5,15.5 0 0 1 -15.5,-15.5 v0 a15.5,15.5 0 0 1 15.5,-15.5"/></clipPath></defs><mask id="satori_om-id-2-8"><rect x="392" y="123" width="74" height="29" fill="#fff" mask="url(#satori_om-id)"/><path width="76" height="31" fill="none" stroke="#000" stroke-width="2" d="M395.54,126.53999999999999 A15.5,15.5 0 0 1 406.5,122 h45 a15.5,15.5 0 0 1 15.5,15.5 v0 a15.5,15.5 0 0 1 -15.5,15.5 h-45 a15.5,15.5 0 0 1 -15.5,-15.5 v0 A15.5,15.5 0 0 1 395.54,126.53999999999999"/></mask><path x="391" y="122" width="76" height="31" fill="rgba(255,255,255,0.04)" d="M406.5,122 h45 a15.5,15.5 0 0 1 15.5,15.5 v0 a15.5,15.5 0 0 1 -15.5,15.5 h-45 a15.5,15.5 0 0 1 -15.5,-15.5 v0 a15.5,15.5 0 0 1 15.5,-15.5" clip-path="url(#satori_cp-id)" mask="url(#satori_om-id)"/><path width="76" height="31" clip-path="url(#satori_bc-id-2-8)" fill="none" stroke="rgba(255,255,255,0.08)" stroke-width="2" d="M395.54,126.53999999999999 A15.5,15.5 0 0 1 406.5,122 h45 a15.5,15.5 0 0 1 15.5,15.5 v0 a15.5,15.5 0 0 1 -15.5,15.5 h-45 a15.5,15.5 0 0 1 -15.5,-15.5 v0 A15.5,15.5 0 0 1 395.54,126.53999999999999"/><g mask="url(#satori_om-id)" clip-path="url(#satori_cp-id)"><path fill="rgba(255,255,255,0.65)" d="M412.2 142L411.1 142L411.1 133.3L416.3 133.3L416.3 134.3L412.2 134.3L412.2 137.2L415.9 137.2L415.9 138.2L412.2 138.2L412.2 142ZM419.6 142L418.5 142L418.5 135.4L419.6 135.4L419.6 142ZM419.0 134.4L419.0 134.4Q418.7 134.4 418.5 134.2Q418.3 134.0 418.3 133.7L418.3 133.7Q418.3 133.4 418.5 133.2Q418.7 133.0 419.0 133.0L419.0 133.0Q419.3 133.0 419.6 133.2Q419.8 133.4 419.8 133.7L419.8 133.7Q419.8 134.0 419.6 134.2Q419.3 134.4 419.0 134.4ZM424.6 144.6L424.6 144.6Q423.8 144.6 423.3 144.4Q422.8 144.2 422.4 143.9Q422.1 143.6 421.9 143.3L421.9 143.3L422.7 142.7Q422.9 142.9 423.1 143.1Q423.3 143.3 423.6 143.5Q424.0 143.7 424.6 143.7L424.6 143.7Q425.4 143.7 425.9 143.3Q426.4 142.9 426.4 142.1L426.4 142.1L426.4 140.8L426.3 140.8Q426.2 141.0 426.0 141.2Q425.8 141.5 425.4 141.7Q425.0 141.9 424.4 141.9L424.4 141.9Q423.6 141.9 423.0 141.5Q422.3 141.2 422.0 140.4Q421.6 139.7 421.6 138.7L421.6 138.7Q421.6 137.7 422.0 136.9Q422.3 136.2 422.9 135.8Q423.6 135.4 424.4 135.4L424.4 135.4Q425.0 135.4 425.4 135.6Q425.8 135.8 426.0 136.1Q426.2 136.3 426.3 136.5L426.3 136.5L426.4 136.5L426.4 135.4L427.4 135.4L427.4 142.2Q427.4 143.0 427.0 143.5Q426.7 144.1 426.0 144.3Q425.4 144.6 424.6 144.6ZM424.5 141.0L424.5 141.0Q425.1 141.0 425.5 140.7Q426.0 140.4 426.2 139.9Q426.4 139.4 426.4 138.7L426.4 138.7Q426.4 138.0 426.2 137.4Q426.0 136.9 425.6 136.6Q425.1 136.3 424.5 136.3L424.5 136.3Q423.9 136.3 423.5 136.6Q423.1 136.9 422.9 137.5Q422.7 138.0 422.7 138.7L422.7 138.7Q422.7 139.3 422.9 139.9Q423.1 140.4 423.5 140.7Q423.9 141.0 424.5 141.0ZM430.8 142L429.8 142L429.8 135.4L430.8 135.4L430.8 136.7Q430.9 136.3 431.2 136.0L431.2 136.0Q431.4 135.7 431.8 135.5Q432.2 135.3 432.6 135.3L432.6 135.3Q433.4 135.3 433.8 135.8L433.8 135.8Q434.2 136.1 434.3 136.7L434.3 136.7Q434.4 136.3 434.7 136.1L434.7 136.1Q435.0 135.7 435.4 135.5Q435.9 135.3 436.4 135.3L436.4 135.3Q436.9 135.3 437.4 135.6Q437.9 135.8 438.2 136.3Q438.4 136.8 438.4 137.6L438.4 137.6L438.4 142L437.4 142L437.4 137.6Q437.4 136.9 437.0 136.6Q436.6 136.3 436.1 136.3L436.1 136.3Q435.6 136.3 435.3 136.5Q435.0 136.7 434.8 137.0Q434.6 137.3 434.6 137.7L434.6 137.7L434.6 142L433.6 142L433.6 137.5Q433.6 137.0 433.2 136.6Q432.9 136.3 432.3 136.3L432.3 136.3Q431.9 136.3 431.6 136.5Q431.2 136.7 431.0 137.0Q430.8 137.4 430.8 137.9L430.8 137.9L430.8 142ZM442.6 142.2L442.6 142.2Q442 142.2 441.5 141.9Q441.0 141.7 440.7 141.2Q440.4 140.8 440.4 140.1L440.4 140.1Q440.4 139.6 440.6 139.2Q440.8 138.9 441.2 138.7Q441.6 138.5 442.0 138.4Q442.5 138.3 442.9 138.2L442.9 138.2Q443.5 138.1 443.9 138.1Q444.3 138.1 444.4 138.0Q444.6 137.9 444.6 137.6L444.6 137.6L444.6 137.6Q444.6 137.2 444.5 136.9Q444.3 136.6 444.0 136.4Q443.7 136.3 443.2 136.3L443.2 136.3Q442.8 136.3 442.4 136.4Q442.1 136.6 441.9 136.8Q441.7 137.0 441.6 137.3L441.6 137.3L440.6 136.9Q440.8 136.3 441.3 136.0Q441.7 135.6 442.2 135.5Q442.7 135.4 443.2 135.4L443.2 135.4Q443.5 135.4 444.0 135.4Q444.4 135.5 444.8 135.8Q445.2 136.0 445.4 136.5Q445.7 136.9 445.7 137.7L445.7 137.7L445.7 142L444.6 142L444.6 141.1L444.6 141.1Q444.5 141.3 444.2 141.6Q444.0 141.8 443.6 142.0Q443.2 142.2 442.6 142.2ZM442.8 141.2L442.8 141.2Q443.4 141.2 443.8 141.0Q444.2 140.8 444.4 140.4Q444.6 140.0 444.6 139.6L444.6 139.6L444.6 138.7Q444.6 138.8 444.3 138.9Q444.1 138.9 443.8 139.0Q443.6 139.0 443.3 139.0Q443.0 139.1 442.9 139.1L442.9 139.1Q442.5 139.1 442.2 139.3Q441.8 139.4 441.6 139.6Q441.4 139.8 441.4 140.2L441.4 140.2Q441.4 140.5 441.6 140.8Q441.8 141.0 442.1 141.1Q442.4 141.2 442.8 141.2Z "/></g></svg>