<!-- Generated by readme-aura https://github.com/collectioneur/readme-aura -->
<svg width="800" height="140" viewBox="0 0 800 140" xmlns="http://www.w3.org/2000/svg"><defs><clipPath id="satori_bc-id"><path x="0" y="0" width="800" height="140" d="M16,0 h768 a16,16 0 0 1 16,16 v108 a16,16 0 0 1 -16,16 h-768 a16,16 0 0 1 -16,-16 v-108 a16,16 0 0 1 16,-16"/></clipPath></defs><clipPath id="satori_cp-id"><path x="0" y="0" width="800" height="140" d="M16,0 h768 a16,16 0 0 1 16,16 v108 a16,16 0 0 1 -16,16 h-768 a16,16 0 0 1 -16,-16 v-108 a16,16 0 0 1 16,-16"/></clipPath><mask id="satori_om-id"><rect x="1" y="1" width="798" height="138" fill="#fff"/><path width="800" height="140" fill="none" stroke="#000" stroke-width="2" d="M4.686,4.686 A16,16 0 0 1 16,0 h768 a16,16 0 0 1 16,16 v108 a16,16 0 0 1 -16,16 h-768 a16,16 0 0 1 -16,-16 v-108 A16,16 0 0 1 4.686,4.686"/></mask><path x="0" y="0" width="800" height="140" fill="#0a0a0f" d="M16,0 h768 a16,16 0 0 1 16,16 v108 a16,16 0 0 1 -16,16 h-768 a16,16 0 0 1 -16,-16 v-108 a16,16 0 0 1 16,-16"/><path width="800" height="140" clip-path="url(#satori_bc-id)" fill="none" stroke="rgba(255,255,255,0.05)" stroke-width="2" d="M4.686,4.686 A16,16 0 0 1 16,0 h768 a16,16 0 0 1 16,16 v108 a16,16 0 0 1 -16,16 h-768 a16,16 0 0 1 -16,-16 v-108 A16,16 0 0 1 4.686,4.686"/><clipPath id="satori_cp-id-0" clip-path="url(#satori_cp-id)"><rect x="1" y="1" width="798" height="138"/></clipPath><mask id="satori_om-id-0"><rect x="1" y="1" width="798" height="138" fill="#fff" mask="url(#satori_om-id)"/></mask><svg x="1" y="1" width="798" height="138" preserveAspectRatio="none" clip-path="url(#satori_cp-id-0)" mask="url(#satori_om-id-0)"><defs><radialGradient id="card2-g1" cx="50%" cy="100%" r="70%"><stop offset="0%" stop-color="rgba(40, 80, 255, 0.25)"></stop><stop offset="100%" stop-color="rgba(40, 80, 255, 0)"></stop></radialGradient></defs><rect width="100%" height="100%" fill="url(#card2-g1)"></rect></svg><mask id="satori_om-id-0-0"><rect x="1" y="1" width="0" height="138" fill="#fff" mask="url(#satori_om-id)"/></mask><mask id="satori_om-id-0-0-0"><rect x="1" y="1" width="0" height="138" fill="#fff" mask="url(#satori_om-id)"/></mask><mask id="satori_om-id-0-0-0-0"><rect x="1" y="1" width="0" height="138" fill="#fff" mask="url(#satori_om-id)"/></mask><mask id="satori_om-id-0-0-0-1"><rect x="1" y="1" width="0" height="138" fill="#fff" mask="url(#satori_om-id)"/></mask><mask id="satori_om-id-0-1"><rect x="1" y="1" width="0" height="138" fill="#fff" mask="url(#satori_om-id)"/></mask><mask id="satori_om-id-1"><rect x="51" y="43" width="75" height="55" fill="#fff" mask="url(#satori_om-id)"/></mask><mask id="satori_om-id-1-0"><rect x="51" y="43" width="75" height="39" fill="#fff" mask="url(#satori_om-id)"/></mask><g mask="url(#satori_om-id)" clip-path="url(#satori_cp-id)"><path fill="#b4a6ff" d="M57.8 74L53.1 74L53.1 50.7L60.4 50.7L64.2 61.4Q64.4 62.2 64.7 63.3Q65.0 64.5 65.4 65.9L65.4 65.9Q65.7 67.3 65.9 68.5L65.9 68.5Q66.2 67.3 66.5 65.9L66.5 65.9Q66.8 64.6 67.1 63.4Q67.4 62.2 67.7 61.4L67.7 61.4L71.4 50.7L78.7 50.7L78.7 74L73.9 74L73.9 63.0Q73.9 62.3 73.9 61.1Q74.0 60.0 74.0 58.7Q74.0 57.3 74.1 56L74.1 56Q74.1 55.4 74.1 54.8L74.1 54.8Q73.9 55.5 73.8 56.2L73.8 56.2Q73.4 57.5 73.0 58.8Q72.7 60.1 72.3 61.2Q72.0 62.3 71.8 63.0L71.8 63.0L67.9 74L63.9 74L60.0 63.0Q59.8 62.3 59.4 61.2Q59.1 60.2 58.7 58.9Q58.4 57.6 58.0 56.2L58.0 56.2Q57.8 55.6 57.7 55L57.7 55Q57.7 55.5 57.7 55.9L57.7 55.9Q57.7 57.3 57.8 58.6Q57.8 59.9 57.8 61.1Q57.8 62.2 57.8 63.0L57.8 63.0L57.8 74ZM96.0 74L89.7 74L81.6 50.7L86.9 50.7L90.6 62.0Q91.3 64.1 92.0 66.6L92.0 66.6Q92.4 68.3 92.9 70.2L92.9 70.2Q93.4 68.3 93.8 66.6L93.8 66.6Q94.4 64.1 95.1 62.0L95.1 62.0L98.7 50.7L103.9 50.7L96.0 74ZM111.6 74L106.8 74L106.8 50.7L115.9 50.7Q118.5 50.7 120.4 51.7Q122.3 52.7 123.2 54.5Q124.2 56.3 124.2 58.6L124.2 58.6Q124.2 60.9 123.2 62.6Q122.2 64.4 120.4 65.4Q118.5 66.4 115.8 66.4L115.8 66.4L111.6 66.4L111.6 74ZM111.6 54.7L111.6 62.5L115.0 62.5Q116.5 62.5 117.4 62.0Q118.4 61.5 118.8 60.6Q119.3 59.8 119.3 58.6Q119.3 57.4 118.8 56.5Q118.4 55.6 117.4 55.1Q116.5 54.7 115 54.7L115 54.7L111.6 54.7Z "/></g><mask id="satori_om-id-1-1"><rect x="61" y="86" width="56" height="12" fill="#fff" mask="url(#satori_om-id)"/></mask><g mask="url(#satori_om-id)" clip-path="url(#satori_cp-id)"><path fill="rgba(255,255,255,0.4)" d="M64.5 96L61.9 96L61.9 88.7L64.5 88.7Q65.2 88.7 65.7 89.0Q66.2 89.2 66.5 89.7Q66.7 90.1 66.7 90.7L66.7 90.7Q66.7 91.1 66.5 91.4Q66.4 91.7 66.1 91.9Q65.8 92.1 65.5 92.2L65.5 92.2L65.5 92.3Q65.8 92.3 66.2 92.5Q66.5 92.7 66.7 93.1Q67.0 93.5 67.0 94.1L67.0 94.1Q67.0 94.6 66.7 95.0Q66.5 95.5 65.9 95.7Q65.4 96 64.5 96L64.5 96ZM62.8 92.7L62.8 95.2L64.5 95.2Q65.4 95.2 65.7 94.9Q66.1 94.5 66.1 94.1L66.1 94.1Q66.1 93.7 65.9 93.4Q65.7 93.1 65.4 92.9Q65.0 92.7 64.6 92.7L64.6 92.7L62.8 92.7ZM62.8 89.5L62.8 91.9L64.4 91.9Q64.8 91.9 65.1 91.8Q65.4 91.6 65.6 91.3Q65.8 91.0 65.8 90.7L65.8 90.7Q65.8 90.2 65.5 89.9Q65.1 89.5 64.4 89.5L64.4 89.5L62.8 89.5ZM73.3 96.1L73.3 96.1Q72.4 96.1 71.8 95.8Q71.1 95.4 70.8 94.9Q70.4 94.3 70.4 93.5L70.4 93.5L70.4 88.7L71.3 88.7L71.3 93.5Q71.3 94.0 71.6 94.4Q71.8 94.8 72.2 95.0Q72.7 95.3 73.3 95.3L73.3 95.3Q73.9 95.3 74.3 95.0Q74.7 94.8 74.9 94.4Q75.2 94.0 75.2 93.5L75.2 93.5L75.2 88.7L76.1 88.7L76.1 93.5Q76.1 94.3 75.8 94.9Q75.4 95.4 74.8 95.8Q74.1 96.1 73.3 96.1ZM79.9 88.7L80.8 88.7L80.8 96L79.9 96L79.9 88.7ZM88.8 96L84.5 96L84.5 88.7L85.5 88.7L85.5 95.2L88.8 95.2L88.8 96ZM94.5 96L94.5 96L92.2 96L92.2 88.7L94.6 88.7Q95.6 88.7 96.4 89.2Q97.1 89.6 97.5 90.4Q97.9 91.2 97.9 92.3L97.9 92.3Q97.9 93.5 97.5 94.3Q97.1 95.1 96.4 95.6Q95.6 96 94.5 96ZM93.1 89.5L93.1 95.2L94.4 95.2Q95.3 95.2 95.9 94.8Q96.5 94.5 96.8 93.9Q97.0 93.2 97.0 92.3L97.0 92.3Q97.0 91.5 96.8 90.8Q96.5 90.2 95.9 89.9Q95.3 89.5 94.5 89.5L94.5 89.5L93.1 89.5ZM105.9 96L101.4 96L101.4 88.7L105.9 88.7L105.9 89.5L102.3 89.5L102.3 91.9L105.6 91.9L105.6 92.7L102.3 92.7L102.3 95.2L105.9 95.2L105.9 96ZM110.4 96L109.4 96L109.4 88.7L111.9 88.7Q112.8 88.7 113.3 89.0Q113.9 89.3 114.1 89.8Q114.4 90.3 114.4 91.0Q114.4 91.6 114.1 92.1Q113.9 92.6 113.3 92.9L113.3 92.9Q113.2 93.0 113.1 93.0L113.1 93.0L114.7 96L113.6 96L112.1 93.2Q112.0 93.2 111.9 93.2L111.9 93.2L110.4 93.2L110.4 96ZM110.4 89.5L110.4 92.4L111.9 92.4Q112.5 92.4 112.8 92.2Q113.2 92.0 113.3 91.7Q113.5 91.4 113.5 91.0L113.5 91.0Q113.5 90.5 113.3 90.2Q113.2 89.9 112.8 89.7Q112.5 89.5 111.9 89.5L111.9 89.5L110.4 89.5Z "/></g><mask id="satori_om-id-2"><rect x="227" y="40" width="1" height="60" fill="#fff" mask="url(#satori_om-id)"/></mask><rect x="227" y="40" width="1" height="60" fill="rgba(255,255,255,0.05)" clip-path="url(#satori_cp-id)" mask="url(#satori_om-id)"/><mask id="satori_om-id-3"><rect x="329" y="43" width="90" height="55" fill="#fff" mask="url(#satori_om-id)"/></mask><mask id="satori_om-id-3-0"><rect x="329" y="43" width="90" height="39" fill="#fff" mask="url(#satori_om-id)"/></mask><g mask="url(#satori_om-id)" clip-path="url(#satori_cp-id)"><path fill="#4da6ff" d="M335.6 50.7L340.7 50.7L340.7 74L335.9 74L335.9 54.9L335.8 54.9L330.5 58.7L330.5 54.3L335.6 50.7ZM353.6 74.3L353.6 74.3Q350.6 74.3 348.6 72.9Q346.5 71.5 345.4 68.8Q344.3 66.2 344.3 62.4L344.3 62.4Q344.3 58.6 345.4 55.9Q346.5 53.3 348.6 51.8Q350.6 50.4 353.6 50.4L353.6 50.4Q356.5 50.4 358.6 51.8Q360.7 53.3 361.8 55.9Q362.9 58.6 362.9 62.4L362.9 62.4Q362.9 66.2 361.8 68.8Q360.7 71.5 358.6 72.9Q356.5 74.3 353.6 74.3ZM353.6 70.4L353.6 70.4Q355.0 70.4 356.0 69.4Q357 68.5 357.5 66.7Q358.0 64.9 358.0 62.4L358.0 62.4Q358.0 59.8 357.5 58.0Q357 56.2 356.0 55.3Q355.0 54.3 353.6 54.3L353.6 54.3Q352.2 54.3 351.2 55.3Q350.2 56.2 349.6 58.0Q349.1 59.8 349.1 62.4L349.1 62.4Q349.1 64.9 349.6 66.7Q350.2 68.5 351.2 69.4Q352.2 70.4 353.6 70.4ZM375.2 74.3L375.2 74.3Q372.2 74.3 370.1 72.9Q368.1 71.5 367.0 68.8Q365.8 66.2 365.8 62.4L365.8 62.4Q365.8 58.6 367.0 55.9Q368.1 53.3 370.1 51.8Q372.2 50.4 375.2 50.4L375.2 50.4Q378.1 50.4 380.2 51.8Q382.3 53.3 383.4 55.9Q384.5 58.6 384.5 62.4L384.5 62.4Q384.5 66.2 383.4 68.8Q382.3 71.5 380.2 72.9Q378.1 74.3 375.2 74.3ZM375.2 70.4L375.2 70.4Q376.6 70.4 377.6 69.4Q378.6 68.5 379.1 66.7Q379.6 64.9 379.6 62.4L379.6 62.4Q379.6 59.8 379.1 58.0Q378.6 56.2 377.6 55.3Q376.6 54.3 375.2 54.3L375.2 54.3Q373.7 54.3 372.7 55.3Q371.7 56.2 371.2 58.0Q370.7 59.8 370.7 62.4L370.7 62.4Q370.7 64.9 371.2 66.7Q371.7 68.5 372.7 69.4Q373.7 70.4 375.2 70.4ZM393.9 61.8L393.9 61.8Q392.3 61.8 391.1 61.1Q390.0 60.4 389.4 59.3Q388.9 58.1 388.9 56.7L388.9 56.7L388.9 55.5Q388.9 54.1 389.5 52.9Q390.0 51.8 391.2 51.0Q392.3 50.3 393.9 50.3L393.9 50.3Q395.6 50.3 396.7 51.0Q397.9 51.8 398.4 52.9Q399.0 54.1 399.0 55.5L399.0 55.5L399.0 56.7Q399.0 58.1 398.4 59.3Q397.8 60.4 396.7 61.1Q395.6 61.8 393.9 61.8ZM393.9 59.0L393.9 59.0Q395.0 59.0 395.4 58.3Q395.8 57.6 395.8 56.7L395.8 56.7L395.8 55.5Q395.8 54.6 395.4 53.9Q395.0 53.2 393.9 53.2L393.9 53.2Q392.9 53.2 392.5 53.9Q392.1 54.7 392.1 55.5L392.1 55.5L392.1 56.7Q392.1 57.6 392.5 58.3Q392.9 59.0 393.9 59.0ZM410.5 74.4L410.5 74.4Q408.8 74.4 407.7 73.7Q406.6 73 406.0 71.8Q405.4 70.7 405.4 69.3L405.4 69.3L405.4 68.1Q405.4 66.7 406.0 65.5Q406.6 64.3 407.7 63.6Q408.9 62.9 410.5 62.9L410.5 62.9Q412.1 62.9 413.3 63.6Q414.4 64.3 415.0 65.5Q415.5 66.7 415.5 68.1L415.5 68.1L415.5 69.3Q415.5 70.7 415.0 71.8Q414.4 73.0 413.2 73.7Q412.1 74.4 410.5 74.4ZM410.5 71.5L410.5 71.5Q411.5 71.5 411.9 70.8Q412.3 70.1 412.3 69.3L412.3 69.3L412.3 68.1Q412.3 67.2 411.9 66.5Q411.5 65.8 410.5 65.8L410.5 65.8Q409.4 65.8 409.0 66.5Q408.7 67.2 408.7 68.1L408.7 68.1L408.7 69.3Q408.7 70.1 409.0 70.8Q409.4 71.5 410.5 71.5ZM395.7 74L392.5 74L408.5 50.7L411.7 50.7L395.7 74Z "/></g><mask id="satori_om-id-3-1"><rect x="333" y="86" width="82" height="12" fill="#fff" mask="url(#satori_om-id)"/></mask><g mask="url(#satori_om-id)" clip-path="url(#satori_cp-id)"><path fill="rgba(255,255,255,0.4)" d="M336.1 96L336.1 96L333.9 96L333.9 88.7L336.2 88.7Q337.3 88.7 338.1 89.2Q338.8 89.6 339.2 90.4Q339.6 91.2 339.6 92.3L339.6 92.3Q339.6 93.5 339.2 94.3Q338.8 95.1 338.0 95.6Q337.3 96 336.1 96ZM334.8 89.5L334.8 95.2L336.1 95.2Q337.0 95.2 337.6 94.8Q338.1 94.5 338.4 93.9Q338.7 93.2 338.7 92.3L338.7 92.3Q338.7 91.5 338.4 90.8Q338.2 90.2 337.6 89.9Q337.0 89.5 336.2 89.5L336.2 89.5L334.8 89.5ZM347.6 96L343.1 96L343.1 88.7L347.5 88.7L347.5 89.5L344.0 89.5L344.0 91.9L347.3 91.9L347.3 92.7L344.0 92.7L344.0 95.2L347.6 95.2L347.6 96ZM353.4 96L353.4 96L351.1 96L351.1 88.7L353.5 88.7Q354.5 88.7 355.3 89.2Q356.0 89.6 356.4 90.4Q356.8 91.2 356.8 92.3L356.8 92.3Q356.8 93.5 356.4 94.3Q356.0 95.1 355.3 95.6Q354.5 96 353.4 96ZM352.0 89.5L352.0 95.2L353.3 95.2Q354.2 95.2 354.8 94.8Q355.4 94.5 355.7 93.9Q356.0 93.2 356.0 92.3L356.0 92.3Q356.0 91.5 355.7 90.8Q355.4 90.2 354.8 89.9Q354.3 89.5 353.4 89.5L353.4 89.5L352.0 89.5ZM360.3 88.7L361.3 88.7L361.3 96L360.3 96L360.3 88.7ZM368.0 96.1L368.0 96.1Q367.0 96.1 366.3 95.6Q365.6 95.2 365.1 94.4Q364.7 93.5 364.7 92.4L364.7 92.4Q364.7 91.2 365.1 90.4Q365.6 89.5 366.3 89.1Q367.0 88.6 368.0 88.6L368.0 88.6Q368.5 88.6 369.0 88.8Q369.5 88.9 369.9 89.3Q370.3 89.6 370.5 90.0Q370.8 90.5 370.9 91.0L370.9 91.0L370.0 91.0Q369.9 90.6 369.7 90.4Q369.5 90.1 369.2 89.9Q369.0 89.7 368.6 89.6Q368.3 89.5 368.0 89.5L368.0 89.5Q367.3 89.5 366.8 89.8Q366.2 90.2 365.9 90.8Q365.6 91.4 365.6 92.4L365.6 92.4Q365.6 93.3 365.9 93.9Q366.2 94.6 366.8 94.9Q367.3 95.2 368.0 95.2L368.0 95.2Q368.3 95.2 368.6 95.1Q369.0 95.0 369.2 94.8Q369.5 94.7 369.7 94.4Q369.9 94.1 370.0 93.7L370.0 93.7L370.9 93.7Q370.8 94.3 370.5 94.7Q370.3 95.1 369.9 95.5Q369.5 95.8 369.0 95.9Q368.5 96.1 368.0 96.1ZM374.7 96L373.7 96L376.3 88.7L377.4 88.7L380.1 96L379.1 96L378.4 94.0L375.4 94.0L374.7 96ZM375.7 93.2L378.1 93.2L377.6 91.7Q377.4 91.3 377.2 90.7L377.2 90.7Q377.1 90.2 376.9 89.5L376.9 89.5Q376.7 90.2 376.5 90.7L376.5 90.7Q376.3 91.3 376.2 91.7L376.2 91.7L375.7 93.2ZM385.1 89.5L382.8 89.5L382.8 88.7L388.3 88.7L388.3 89.5L386.0 89.5L386.0 96L385.1 96L385.1 89.5ZM391.7 88.7L392.6 88.7L392.6 96L391.7 96L391.7 88.7ZM399.3 96.1L399.3 96.1Q398.4 96.1 397.6 95.6Q396.9 95.2 396.5 94.4Q396.1 93.5 396.1 92.4L396.1 92.4Q396.1 91.2 396.5 90.4Q396.9 89.5 397.6 89.1Q398.4 88.6 399.3 88.6L399.3 88.6Q400.2 88.6 401.0 89.1Q401.7 89.5 402.1 90.4Q402.5 91.2 402.5 92.4L402.5 92.4Q402.5 93.5 402.1 94.4Q401.7 95.2 401.0 95.6Q400.2 96.1 399.3 96.1ZM399.3 95.2L399.3 95.2Q400.0 95.2 400.5 94.9Q401.0 94.6 401.3 93.9Q401.6 93.3 401.6 92.4L401.6 92.4Q401.6 91.4 401.3 90.8Q401.0 90.1 400.5 89.8Q400.0 89.5 399.3 89.5L399.3 89.5Q398.6 89.5 398.1 89.8Q397.6 90.2 397.3 90.8Q397.0 91.4 397.0 92.4L397.0 92.4Q397.0 93.3 397.3 93.9Q397.6 94.6 398.1 94.9Q398.6 95.2 399.3 95.2ZM406.9 96L406 96L406 88.7L407.1 88.7L410.1 93.4Q410.2 93.6 410.3 93.8Q410.5 94.1 410.7 94.5L410.7 94.5Q410.8 94.7 410.9 94.9L410.9 94.9Q410.9 94.7 410.9 94.4L410.9 94.4Q410.9 94.1 410.9 93.7Q410.8 93.4 410.8 93.2L410.8 93.2L410.8 88.7L411.8 88.7L411.8 96L410.7 96L408.0 91.9Q407.9 91.6 407.7 91.3Q407.5 91.0 407.3 90.5L407.3 90.5Q407.1 90.2 406.9 89.8L406.9 89.8Q406.9 90.2 406.9 90.5L406.9 90.5Q406.9 91.0 406.9 91.3Q406.9 91.7 406.9 91.8L406.9 91.8L406.9 96Z "/></g><mask id="satori_om-id-4"><rect x="519" y="40" width="1" height="60" fill="#fff" mask="url(#satori_om-id)"/></mask><rect x="519" y="40" width="1" height="60" fill="rgba(255,255,255,0.05)" clip-path="url(#satori_cp-id)" mask="url(#satori_om-id)"/><mask id="satori_om-id-5"><rect x="621" y="43" width="128" height="55" fill="#fff" mask="url(#satori_om-id)"/></mask><mask id="satori_om-id-5-0"><rect x="621" y="43" width="128" height="39" fill="#fff" mask="url(#satori_om-id)"/></mask><g mask="url(#satori_om-id)" clip-path="url(#satori_cp-id)"><path fill="#ffb347" d="M627.9 74L623.1 74L623.1 50.7L627.9 50.7L627.9 60.1L638.0 60.1L638.0 50.7L642.8 50.7L642.8 74L638.0 74L638.0 64.1L627.9 64.1L627.9 74ZM656.6 74.3L656.6 74.3Q653.7 74.3 651.6 73.3Q649.4 72.2 648.2 70.3Q647.0 68.4 647.0 65.8L647.0 65.8L647.0 50.7L651.8 50.7L651.8 65.4Q651.8 66.8 652.4 67.9Q653.0 68.9 654.1 69.5Q655.2 70.1 656.6 70.1L656.6 70.1Q658.1 70.1 659.2 69.5Q660.3 68.9 660.9 67.9Q661.5 66.8 661.5 65.4L661.5 65.4L661.5 50.7L666.2 50.7L666.2 65.8Q666.2 68.4 665.0 70.3Q663.8 72.2 661.7 73.3Q659.5 74.3 656.6 74.3ZM679.0 74.3L679.0 74.3Q676.2 74.3 674.1 73.5Q672.0 72.6 670.9 70.9Q669.7 69.3 669.7 66.8L669.7 66.8L674.3 66.8Q674.4 68.0 675 68.7Q675.6 69.5 676.6 69.9Q677.6 70.3 678.9 70.3L678.9 70.3Q680.2 70.3 681.1 69.9Q682.1 69.6 682.6 68.9Q683.2 68.2 683.2 67.3L683.2 67.3Q683.2 66.5 682.7 66.0Q682.2 65.5 681.3 65.1Q680.4 64.7 679.1 64.4L679.1 64.4L676.6 63.8Q673.6 63.0 672.0 61.5Q670.3 60.0 670.3 57.4L670.3 57.4Q670.3 55.3 671.4 53.7Q672.5 52.2 674.5 51.3Q676.5 50.4 679.0 50.4L679.0 50.4Q681.6 50.4 683.5 51.3Q685.5 52.2 686.5 53.7Q687.6 55.3 687.6 57.4L687.6 57.4L683.0 57.4Q682.9 56.0 681.8 55.2Q680.8 54.4 679.0 54.4L679.0 54.4Q677.8 54.4 676.9 54.8Q676.1 55.1 675.6 55.7Q675.2 56.3 675.2 57.1L675.2 57.1Q675.2 58.0 675.7 58.5Q676.2 59.1 677.1 59.5Q677.9 59.8 678.9 60.0L678.9 60.0L681 60.6Q682.5 60.9 683.7 61.5Q685 62.0 686.0 62.8Q686.9 63.7 687.4 64.8Q688.0 65.9 688.0 67.4L688.0 67.4Q688.0 69.5 686.9 71.1Q685.8 72.6 683.8 73.5Q681.8 74.3 679.0 74.3ZM697.6 54.7L690.5 54.7L690.5 50.7L709.5 50.7L709.5 54.7L702.4 54.7L702.4 74L697.6 74L697.6 54.7ZM727.6 74L712.8 74L712.8 50.7L717.5 50.7L717.5 70.0L727.6 70.0L727.6 74ZM746.5 74L730.8 74L730.8 50.7L746.4 50.7L746.4 54.7L735.6 54.7L735.6 60.3L745.6 60.3L745.6 64.2L735.6 64.2L735.6 70.0L746.5 70.0L746.5 74Z "/></g><mask id="satori_om-id-5-1"><rect x="644" y="86" width="83" height="12" fill="#fff" mask="url(#satori_om-id)"/></mask><g mask="url(#satori_om-id)" clip-path="url(#satori_cp-id)"><path fill="rgba(255,255,255,0.4)" d="M645.8 96L644.9 96L644.9 88.7L645.8 88.7L645.8 91.9L649.6 91.9L649.6 88.7L650.6 88.7L650.6 96L649.6 96L649.6 92.7L645.8 92.7L645.8 96ZM654.7 96L653.7 96L656.3 88.7L657.4 88.7L660.1 96L659.1 96L658.4 94.0L655.4 94.0L654.7 96ZM655.7 93.2L658.1 93.2L657.6 91.7Q657.4 91.3 657.2 90.7L657.2 90.7Q657.1 90.2 656.9 89.5L656.9 89.5Q656.6 90.2 656.5 90.7L656.5 90.7Q656.3 91.3 656.2 91.7L656.2 91.7L655.7 93.2ZM666.2 96.1L666.2 96.1Q665.2 96.1 664.5 95.6Q663.8 95.2 663.3 94.4Q662.9 93.5 662.9 92.4L662.9 92.4Q662.9 91.2 663.3 90.4Q663.8 89.5 664.5 89.1Q665.2 88.6 666.2 88.6L666.2 88.6Q666.7 88.6 667.2 88.8Q667.7 88.9 668.1 89.3Q668.5 89.6 668.7 90.0Q669.0 90.5 669.1 91.0L669.1 91.0L668.2 91.0Q668.1 90.6 667.9 90.4Q667.7 90.1 667.4 89.9Q667.2 89.7 666.8 89.6Q666.5 89.5 666.2 89.5L666.2 89.5Q665.5 89.5 665.0 89.8Q664.4 90.2 664.1 90.8Q663.8 91.4 663.8 92.4L663.8 92.4Q663.8 93.3 664.1 93.9Q664.5 94.6 665.0 94.9Q665.5 95.2 666.2 95.2L666.2 95.2Q666.5 95.2 666.8 95.1Q667.2 95.0 667.4 94.8Q667.7 94.7 667.9 94.4Q668.1 94.1 668.2 93.7L668.2 93.7L669.1 93.7Q669.0 94.3 668.7 94.7Q668.5 95.1 668.1 95.5Q667.7 95.8 667.2 95.9Q666.7 96.1 666.2 96.1ZM673.4 96L672.5 96L672.5 88.7L673.4 88.7L673.4 91.2L673.4 92.6Q673.5 92.4 673.6 92.3L673.6 92.3Q673.9 92.0 674.2 91.7Q674.4 91.4 674.7 91.1L674.7 91.1L676.9 88.7L678.1 88.7L675.1 91.9L678.1 96L677.0 96L674.5 92.5L673.4 93.6L673.4 96ZM681.6 96L680.6 96L683.3 88.7L684.3 88.7L687 96L686.0 96L685.3 94.0L682.3 94.0L681.6 96ZM682.6 93.2L685.0 93.2L684.5 91.7Q684.3 91.3 684.2 90.7L684.2 90.7Q684.0 90.2 683.8 89.5L683.8 89.5Q683.6 90.2 683.4 90.7L683.4 90.7Q683.2 91.3 683.1 91.7L683.1 91.7L682.6 93.2ZM692.0 89.5L689.7 89.5L689.7 88.7L695.2 88.7L695.2 89.5L693.0 89.5L693.0 96L692.0 96L692.0 89.5ZM699.5 96L698.6 96L698.6 88.7L699.5 88.7L699.5 91.9L703.3 91.9L703.3 88.7L704.3 88.7L704.3 96L703.3 96L703.3 92.7L699.5 92.7L699.5 96ZM711.0 96.1L711.0 96.1Q710.0 96.1 709.3 95.6Q708.6 95.2 708.2 94.4Q707.7 93.5 707.7 92.4L707.7 92.4Q707.7 91.2 708.2 90.4Q708.6 89.5 709.3 89.1Q710.0 88.6 711.0 88.6L711.0 88.6Q711.9 88.6 712.6 89.1Q713.4 89.5 713.8 90.4Q714.2 91.2 714.2 92.4L714.2 92.4Q714.2 93.5 713.8 94.4Q713.4 95.2 712.6 95.6Q711.9 96.1 711.0 96.1ZM711.0 95.2L711.0 95.2Q711.6 95.2 712.1 94.9Q712.7 94.6 713.0 93.9Q713.3 93.3 713.3 92.4L713.3 92.4Q713.3 91.4 713.0 90.8Q712.7 90.1 712.1 89.8Q711.6 89.5 711.0 89.5L711.0 89.5Q710.3 89.5 709.8 89.8Q709.3 90.2 708.9 90.8Q708.6 91.4 708.6 92.4L708.6 92.4Q708.6 93.3 708.9 93.9Q709.3 94.6 709.8 94.9Q710.3 95.2 711.0 95.2ZM718.6 96L717.7 96L717.7 88.7L718.8 88.7L721.7 93.4Q721.8 93.6 722.0 93.8Q722.2 94.1 722.4 94.5L722.4 94.5Q722.5 94.7 722.6 94.9L722.6 94.9Q722.6 94.7 722.5 94.4L722.5 94.4Q722.5 94.1 722.5 93.7Q722.5 93.4 722.5 93.2L722.5 93.2L722.5 88.7L723.4 88.7L723.4 96L722.3 96L719.7 91.9Q719.5 91.6 719.3 91.3Q719.2 91.0 718.9 90.5L718.9 90.5Q718.8 90.2 718.5 89.8L718.5 89.8Q718.5 90.2 718.6 90.5L718.6 90.5Q718.6 91.0 718.6 91.3Q718.6 91.7 718.6 91.8L718.6 91.8L718.6 96Z "/></g></svg>