<!-- Generated by readme-aura https://github.com/collectioneur/readme-aura -->
<svg width="800" height="140" viewBox="0 0 800 140" xmlns="http://www.w3.org/2000/svg"><defs><clipPath id="satori_bc-id"><path x="0" y="0" width="800" height="140" d="M16,0 h768 a16,16 0 0 1 16,16 v108 a16,16 0 0 1 -16,16 h-768 a16,16 0 0 1 -16,-16 v-108 a16,16 0 0 1 16,-16"/></clipPath></defs><clipPath id="satori_cp-id"><path x="0" y="0" width="800" height="140" d="M16,0 h768 a16,16 0 0 1 16,16 v108 a16,16 0 0 1 -16,16 h-768 a16,16 0 0 1 -16,-16 v-108 a16,16 0 0 1 16,-16"/></clipPath><mask id="satori_om-id"><rect x="1" y="1" width="798" height="138" fill="#fff"/><path width="800" height="140" fill="none" stroke="#000" stroke-width="2" d="M4.686,4.686 A16,16 0 0 1 16,0 h768 a16,16 0 0 1 16,16 v108 a16,16 0 0 1 -16,16 h-768 a16,16 0 0 1 -16,-16 v-108 A16,16 0 0 1 4.686,4.686"/></mask><path x="0" y="0" width="800" height="140" fill="#0a0a0f" d="M16,0 h768 a16,16 0 0 1 16,16 v108 a16,16 0 0 1 -16,16 h-768 a16,16 0 0 1 -16,-16 v-108 a16,16 0 0 1 16,-16"/><path width="800" height="140" clip-path="url(#satori_bc-id)" fill="none" stroke="rgba(255,255,255,0.05)" stroke-width="2" d="M4.686,4.686 A16,16 0 0 1 16,0 h768 a16,16 0 0 1 16,16 v108 a16,16 0 0 1 -16,16 h-768 a16,16 0 0 1 -16,-16 v-108 A16,16 0 0 1 4.686,4.686"/><clipPath id="satori_cp-id-0" clip-path="url(#satori_cp-id)"><rect x="1" y="1" width="798" height="138"/></clipPath><mask id="satori_om-id-0"><rect x="1" y="1" width="798" height="138" fill="#fff" mask="url(#satori_om-id)"/></mask><svg x="1" y="1" width="798" height="138" preserveAspectRatio="none" clip-path="url(#satori_cp-id-0)" mask="url(#satori_om-id-0)"><defs><radialGradient id="card2-g1" cx="16%" cy="100%" r="50%"><stop offset="0%" stop-color="rgba(180, 166, 255, 0.25)"></stop><stop offset="100%" stop-color="rgba(180, 166, 255, 0)"></stop></radialGradient><radialGradient id="card2-g2" cx="50%" cy="100%" r="50%"><stop offset="0%" stop-color="rgba(77, 166, 255, 0.25)"></stop><stop offset="100%" stop-color="rgba(77, 166, 255, 0)"></stop></radialGradient><radialGradient id="card2-g3" cx="84%" cy="100%" r="50%"><stop offset="0%" stop-color="rgba(255, 179, 71, 0.2)"></stop><stop offset="100%" stop-color="rgba(255, 179, 71, 0)"></stop></radialGradient></defs><rect width="100%" height="100%" fill="url(#card2-g1)"></rect><rect width="100%" height="100%" fill="url(#card2-g2)"></rect><rect width="100%" height="100%" fill="url(#card2-g3)"></rect></svg><mask id="satori_om-id-0-0"><rect x="1" y="1" width="0" height="138" fill="#fff" mask="url(#satori_om-id)"/></mask><mask id="satori_om-id-0-0-0"><rect x="1" y="1" width="0" height="138" fill="#fff" mask="url(#satori_om-id)"/></mask><mask id="satori_om-id-0-0-0-0"><rect x="1" y="1" width="0" height="138" fill="#fff" mask="url(#satori_om-id)"/></mask><mask id="satori_om-id-0-0-0-1"><rect x="1" y="1" width="0" height="138" fill="#fff" mask="url(#satori_om-id)"/></mask><mask id="satori_om-id-0-0-1"><rect x="1" y="1" width="0" height="138" fill="#fff" mask="url(#satori_om-id)"/></mask><mask id="satori_om-id-0-0-1-0"><rect x="1" y="1" width="0" height="138" fill="#fff" mask="url(#satori_om-id)"/></mask><mask id="satori_om-id-0-0-1-1"><rect x="1" y="1" width="0" height="138" fill="#fff" mask="url(#satori_om-id)"/></mask><mask id="satori_om-id-0-0-2"><rect x="1" y="1" width="0" height="138" fill="#fff" mask="url(#satori_om-id)"/></mask><mask id="satori_om-id-0-0-2-0"><rect x="1" y="1" width="0" height="138" fill="#fff" mask="url(#satori_om-id)"/></mask><mask id="satori_om-id-0-0-2-1"><rect x="1" y="1" width="0" height="138" fill="#fff" mask="url(#satori_om-id)"/></mask><mask id="satori_om-id-0-1"><rect x="1" y="1" width="0" height="138" fill="#fff" mask="url(#satori_om-id)"/></mask><mask id="satori_om-id-0-2"><rect x="1" y="1" width="0" height="138" fill="#fff" mask="url(#satori_om-id)"/></mask><mask id="satori_om-id-0-3"><rect x="1" y="1" width="0" height="138" fill="#fff" mask="url(#satori_om-id)"/></mask><mask id="satori_om-id-1"><rect x="36" y="43" width="150" height="55" fill="#fff" mask="url(#satori_om-id)"/></mask><mask id="satori_om-id-1-0"><rect x="93" y="43" width="36" height="39" fill="#fff" mask="url(#satori_om-id)"/></mask><g mask="url(#satori_om-id)" clip-path="url(#satori_cp-id)"><path fill="#b4a6ff" d="M99.6 50.7L104.7 50.7L104.7 74L99.9 74L99.9 54.9L99.8 54.9L94.5 58.7L94.5 54.3L99.6 50.7ZM119.5 69.9L108.4 69.9L108.4 66.1L118.1 50.7L124.1 50.7L124.1 66.0L127 66.0L127 69.9L124.1 69.9L124.1 74L119.5 74L119.5 69.9ZM113.2 66.0L119.6 66.0L119.6 56.0L119.4 56.0L113.2 65.8L113.2 66.0Z "/></g><mask id="satori_om-id-1-1"><rect x="90" y="86" width="43" height="12" fill="#fff" mask="url(#satori_om-id)"/></mask><g mask="url(#satori_om-id)" clip-path="url(#satori_cp-id)"><path fill="rgba(255,255,255,0.4)" d="M91.8 96L90.9 96L90.9 88.7L93.4 88.7Q94.2 88.7 94.8 89.0Q95.3 89.3 95.6 89.8Q95.8 90.3 95.8 91.0Q95.8 91.6 95.6 92.1Q95.3 92.6 94.8 92.9L94.8 92.9Q94.6 93.0 94.5 93.0L94.5 93.0L96.1 96L95.1 96L93.5 93.2Q93.5 93.2 93.4 93.2L93.4 93.2L91.8 93.2L91.8 96ZM91.8 89.5L91.8 92.4L93.3 92.4Q93.9 92.4 94.3 92.2Q94.6 92.0 94.8 91.7Q94.9 91.4 94.9 91.0L94.9 91.0Q94.9 90.5 94.8 90.2Q94.6 89.9 94.3 89.7Q93.9 89.5 93.3 89.5L93.3 89.5L91.8 89.5ZM103.8 96L99.3 96L99.3 88.7L103.7 88.7L103.7 89.5L100.2 89.5L100.2 91.9L103.5 91.9L103.5 92.7L100.2 92.7L100.2 95.2L103.8 95.2L103.8 96ZM108.3 96L107.3 96L107.3 88.7L109.8 88.7Q110.7 88.7 111.2 89.0Q111.8 89.3 112.0 89.9Q112.3 90.4 112.3 91.0Q112.3 91.7 112.0 92.2Q111.8 92.7 111.2 93.1Q110.7 93.4 109.8 93.4L109.8 93.4L108.3 93.4L108.3 96ZM108.3 89.5L108.3 92.6L109.8 92.6Q110.4 92.6 110.7 92.4Q111.1 92.2 111.2 91.8Q111.4 91.5 111.4 91.0Q111.4 90.6 111.2 90.3Q111.1 89.9 110.7 89.7Q110.3 89.5 109.8 89.5L109.8 89.5L108.3 89.5ZM118.7 96.1L118.7 96.1Q117.7 96.1 117.0 95.6Q116.3 95.2 115.8 94.4Q115.4 93.5 115.4 92.4L115.4 92.4Q115.4 91.2 115.8 90.4Q116.3 89.5 117.0 89.1Q117.7 88.6 118.7 88.6L118.7 88.6Q119.6 88.6 120.3 89.1Q121.0 89.5 121.5 90.4Q121.9 91.2 121.9 92.4L121.9 92.4Q121.9 93.5 121.5 94.4Q121.0 95.2 120.3 95.6Q119.6 96.1 118.7 96.1ZM118.7 95.2L118.7 95.2Q119.3 95.2 119.8 94.9Q120.4 94.6 120.7 93.9Q121.0 93.3 121.0 92.4L121.0 92.4Q121.0 91.4 120.7 90.8Q120.4 90.1 119.8 89.8Q119.3 89.5 118.7 89.5L118.7 89.5Q118.0 89.5 117.5 89.8Q117.0 90.2 116.6 90.8Q116.3 91.4 116.3 92.4L116.3 92.4Q116.3 93.3 116.6 93.9Q117.0 94.6 117.5 94.9Q118.0 95.2 118.7 95.2ZM127.7 96.1L127.7 96.1Q126.9 96.1 126.3 95.9Q125.7 95.6 125.4 95.2Q125.1 94.7 125.0 94.1L125.0 94.1L126.0 94.1Q126.0 94.5 126.3 94.8Q126.5 95.0 126.9 95.2Q127.3 95.3 127.7 95.3L127.7 95.3Q128.2 95.3 128.6 95.1Q129.0 95.0 129.2 94.7Q129.4 94.4 129.4 94.0L129.4 94.0Q129.4 93.7 129.2 93.4Q129.0 93.2 128.7 93.1Q128.4 92.9 128.0 92.8L128.0 92.8L127.1 92.6Q126.2 92.3 125.7 91.9Q125.3 91.4 125.3 90.7L125.3 90.7Q125.3 90.1 125.6 89.6Q125.9 89.1 126.5 88.9Q127.0 88.6 127.8 88.6L127.8 88.6Q128.5 88.6 129.0 88.9Q129.6 89.1 129.9 89.6Q130.2 90.0 130.2 90.6L130.2 90.6L129.3 90.6Q129.3 90.0 128.8 89.7Q128.4 89.4 127.7 89.4L127.7 89.4Q127.3 89.4 126.9 89.6Q126.5 89.8 126.3 90.0Q126.2 90.3 126.2 90.6L126.2 90.6Q126.2 91.0 126.4 91.2Q126.6 91.5 127.0 91.6Q127.3 91.7 127.5 91.8L127.5 91.8L128.3 92.0Q128.6 92.1 128.9 92.2Q129.3 92.4 129.6 92.6Q129.9 92.8 130.1 93.2Q130.3 93.5 130.3 94.0L130.3 94.0Q130.3 94.6 130.0 95.1Q129.7 95.6 129.1 95.8Q128.5 96.1 127.7 96.1Z "/></g><mask id="satori_om-id-2"><rect x="255" y="40" width="1" height="60" fill="#fff" mask="url(#satori_om-id)"/></mask><rect x="255" y="40" width="1" height="60" fill="rgba(255,255,255,0.05)" clip-path="url(#satori_cp-id)" mask="url(#satori_om-id)"/><mask id="satori_om-id-3"><rect x="325" y="43" width="150" height="55" fill="#fff" mask="url(#satori_om-id)"/></mask><mask id="satori_om-id-3-0"><rect x="390" y="43" width="21" height="39" fill="#fff" mask="url(#satori_om-id)"/></mask><g mask="url(#satori_om-id)" clip-path="url(#satori_cp-id)"><path fill="#4da6ff" d="M400.3 74.3L400.3 74.3Q397.8 74.3 395.8 73.4Q393.8 72.6 392.7 71.0Q391.6 69.5 391.5 67.5L391.5 67.5L396.3 67.5Q396.4 68.3 396.9 69.0Q397.4 69.6 398.3 70Q399.2 70.4 400.3 70.4L400.3 70.4Q401.5 70.4 402.3 70.0Q403.2 69.6 403.7 68.8Q404.2 68.1 404.2 67.2L404.2 67.2Q404.2 66.2 403.7 65.5Q403.2 64.7 402.2 64.3Q401.2 63.9 399.9 63.9L399.9 63.9L397.7 63.9L397.7 60.4L399.9 60.4Q401.0 60.4 401.9 60.0Q402.7 59.6 403.2 58.9Q403.7 58.2 403.7 57.2L403.7 57.2Q403.7 56.3 403.3 55.7Q402.9 55.0 402.1 54.6Q401.4 54.2 400.3 54.2L400.3 54.2Q399.3 54.2 398.5 54.6Q397.6 55.0 397.1 55.6Q396.6 56.3 396.6 57.2L396.6 57.2L392 57.2Q392.0 55.2 393.1 53.7Q394.2 52.1 396.1 51.3Q398.0 50.4 400.4 50.4L400.4 50.4Q402.8 50.4 404.6 51.3Q406.4 52.2 407.4 53.6Q408.3 55.1 408.3 56.9L408.3 56.9Q408.3 58.9 407.1 60.2Q405.9 61.5 404.0 61.9L404.0 61.9L404.0 62.1Q405.7 62.3 406.8 63.0Q408 63.8 408.6 64.9Q409.2 66.0 409.2 67.5L409.2 67.5Q409.2 69.5 408.0 71Q406.9 72.5 404.9 73.4Q402.9 74.3 400.3 74.3Z "/></g><mask id="satori_om-id-3-1"><rect x="360" y="86" width="80" height="12" fill="#fff" mask="url(#satori_om-id)"/></mask><g mask="url(#satori_om-id)" clip-path="url(#satori_cp-id)"><path fill="rgba(255,255,255,0.4)" d="M361.8 96L360.9 96L360.9 88.7L365.3 88.7L365.3 89.5L361.8 89.5L361.8 92.0L364.9 92.0L364.9 92.9L361.8 92.9L361.8 96ZM371.7 96.1L371.7 96.1Q370.8 96.1 370.1 95.6Q369.3 95.2 368.9 94.4Q368.5 93.5 368.5 92.4L368.5 92.4Q368.5 91.2 368.9 90.4Q369.3 89.5 370.1 89.1Q370.8 88.6 371.7 88.6L371.7 88.6Q372.7 88.6 373.4 89.1Q374.1 89.5 374.5 90.4Q375.0 91.2 375.0 92.4L375.0 92.4Q375.0 93.5 374.5 94.4Q374.1 95.2 373.4 95.6Q372.7 96.1 371.7 96.1ZM371.7 95.2L371.7 95.2Q372.4 95.2 372.9 94.9Q373.4 94.6 373.7 93.9Q374.1 93.3 374.1 92.4L374.1 92.4Q374.1 91.4 373.7 90.8Q373.4 90.1 372.9 89.8Q372.4 89.5 371.7 89.5L371.7 89.5Q371.1 89.5 370.5 89.8Q370.0 90.2 369.7 90.8Q369.4 91.4 369.4 92.4L369.4 92.4Q369.4 93.3 369.7 93.9Q370.0 94.6 370.5 94.9Q371.1 95.2 371.7 95.2ZM382.7 96L378.4 96L378.4 88.7L379.4 88.7L379.4 95.2L382.7 95.2L382.7 96ZM390.4 96L386.1 96L386.1 88.7L387.0 88.7L387.0 95.2L390.4 95.2L390.4 96ZM396.7 96.1L396.7 96.1Q395.8 96.1 395.0 95.6Q394.3 95.2 393.9 94.4Q393.5 93.5 393.5 92.4L393.5 92.4Q393.5 91.2 393.9 90.4Q394.3 89.5 395.0 89.1Q395.8 88.6 396.7 88.6L396.7 88.6Q397.6 88.6 398.3 89.1Q399.1 89.5 399.5 90.4Q399.9 91.2 399.9 92.4L399.9 92.4Q399.9 93.5 399.5 94.4Q399.1 95.2 398.3 95.6Q397.6 96.1 396.7 96.1ZM396.7 95.2L396.7 95.2Q397.3 95.2 397.9 94.9Q398.4 94.6 398.7 93.9Q399.0 93.3 399.0 92.4L399.0 92.4Q399.0 91.4 398.7 90.8Q398.4 90.1 397.9 89.8Q397.3 89.5 396.7 89.5L396.7 89.5Q396.0 89.5 395.5 89.8Q395.0 90.2 394.7 90.8Q394.4 91.4 394.4 92.4L394.4 92.4Q394.4 93.3 394.7 93.9Q395.0 94.6 395.5 94.9Q396.0 95.2 396.7 95.2ZM405.8 96L404.7 96L402.8 88.7L403.7 88.7L404.9 93.2Q405.0 93.5 405.0 93.9Q405.1 94.3 405.2 94.7L405.2 94.7Q405.2 94.9 405.3 95.1L405.3 95.1Q405.3 94.9 405.4 94.7L405.4 94.7Q405.5 94.3 405.5 93.9Q405.6 93.5 405.7 93.2L405.7 93.2L406.9 88.7L408.0 88.7L409.1 93.2Q409.2 93.5 409.3 93.9Q409.4 94.3 409.5 94.7L409.5 94.7Q409.5 94.9 409.6 95.1L409.6 95.1Q409.6 94.9 409.7 94.7L409.7 94.7Q409.7 94.3 409.8 93.9Q409.9 93.5 410 93.2L410 93.2L411.1 88.7L412.1 88.7L410.1 96L409.0 96L407.8 91.4Q407.7 90.9 407.5 90.4L407.5 90.4Q407.5 90.1 407.4 89.8L407.4 89.8Q407.4 90.1 407.3 90.4L407.3 90.4Q407.2 90.9 407.1 91.4L407.1 91.4L405.8 96ZM419.7 96L415.2 96L415.2 88.7L419.7 88.7L419.7 89.5L416.2 89.5L416.2 91.9L419.4 91.9L419.4 92.7L416.2 92.7L416.2 95.2L419.7 95.2L419.7 96ZM424.2 96L423.2 96L423.2 88.7L425.7 88.7Q426.6 88.7 427.1 89.0Q427.7 89.3 428.0 89.8Q428.2 90.3 428.2 91.0Q428.2 91.6 428.0 92.1Q427.7 92.6 427.1 92.9L427.1 92.9Q427.0 93.0 426.9 93.0L426.9 93.0L428.5 96L427.4 96L425.9 93.2Q425.8 93.2 425.7 93.2L425.7 93.2L424.2 93.2L424.2 96ZM424.2 89.5L424.2 92.4L425.7 92.4Q426.3 92.4 426.6 92.2Q427.0 92.0 427.1 91.7Q427.3 91.4 427.3 91.0L427.3 91.0Q427.3 90.5 427.1 90.2Q427.0 89.9 426.6 89.7Q426.3 89.5 425.7 89.5L425.7 89.5L424.2 89.5ZM434.0 96.1L434.0 96.1Q433.2 96.1 432.6 95.9Q432.1 95.6 431.7 95.2Q431.4 94.7 431.4 94.1L431.4 94.1L432.3 94.1Q432.4 94.5 432.6 94.8Q432.8 95.0 433.2 95.2Q433.6 95.3 434.0 95.3L434.0 95.3Q434.5 95.3 434.9 95.1Q435.3 95.0 435.5 94.7Q435.8 94.4 435.8 94.0L435.8 94.0Q435.8 93.7 435.6 93.4Q435.4 93.2 435.0 93.1Q434.7 92.9 434.3 92.8L434.3 92.8L433.4 92.6Q432.6 92.3 432.1 91.9Q431.6 91.4 431.6 90.7L431.6 90.7Q431.6 90.1 431.9 89.6Q432.2 89.1 432.8 88.9Q433.4 88.6 434.1 88.6L434.1 88.6Q434.8 88.6 435.3 88.9Q435.9 89.1 436.2 89.6Q436.5 90.0 436.6 90.6L436.6 90.6L435.6 90.6Q435.6 90.0 435.1 89.7Q434.7 89.4 434.0 89.4L434.0 89.4Q433.6 89.4 433.2 89.6Q432.9 89.8 432.7 90.0Q432.5 90.3 432.5 90.6L432.5 90.6Q432.5 91.0 432.7 91.2Q433.0 91.5 433.3 91.6Q433.6 91.7 433.9 91.8L433.9 91.8L434.6 92.0Q434.9 92.1 435.2 92.2Q435.6 92.4 435.9 92.6Q436.2 92.8 436.4 93.2Q436.7 93.5 436.7 94.0L436.7 94.0Q436.7 94.6 436.3 95.1Q436.0 95.6 435.4 95.8Q434.9 96.1 434.0 96.1Z "/></g><mask id="satori_om-id-4"><rect x="544" y="40" width="1" height="60" fill="#fff" mask="url(#satori_om-id)"/></mask><rect x="544" y="40" width="1" height="60" fill="rgba(255,255,255,0.05)" clip-path="url(#satori_cp-id)" mask="url(#satori_om-id)"/><mask id="satori_om-id-5"><rect x="614" y="43" width="150" height="55" fill="#fff" mask="url(#satori_om-id)"/></mask><mask id="satori_om-id-5-0"><rect x="650" y="43" width="79" height="39" fill="#fff" mask="url(#satori_om-id)"/></mask><g mask="url(#satori_om-id)" clip-path="url(#satori_cp-id)"><path fill="#ffb347" d="M656.6 50.7L661.7 50.7L661.7 74L656.9 74L656.9 54.9L656.8 54.9L651.5 58.7L651.5 54.3L656.6 50.7ZM674.6 74.3L674.6 74.3Q671.6 74.3 669.6 72.9Q667.5 71.5 666.4 68.8Q665.3 66.2 665.3 62.4L665.3 62.4Q665.3 58.6 666.4 55.9Q667.5 53.3 669.6 51.8Q671.6 50.4 674.6 50.4L674.6 50.4Q677.5 50.4 679.6 51.8Q681.7 53.3 682.8 55.9Q683.9 58.6 683.9 62.4L683.9 62.4Q683.9 66.2 682.8 68.8Q681.7 71.5 679.6 72.9Q677.5 74.3 674.6 74.3ZM674.6 70.4L674.6 70.4Q676.0 70.4 677.0 69.4Q678 68.5 678.5 66.7Q679.0 64.9 679.0 62.4L679.0 62.4Q679.0 59.8 678.5 58.0Q678 56.2 677.0 55.3Q676.0 54.3 674.6 54.3L674.6 54.3Q673.2 54.3 672.2 55.3Q671.2 56.2 670.6 58.0Q670.1 59.8 670.1 62.4L670.1 62.4Q670.1 64.9 670.6 66.7Q671.2 68.5 672.2 69.4Q673.2 70.4 674.6 70.4ZM696.2 74.3L696.2 74.3Q693.2 74.3 691.1 72.9Q689.1 71.5 688.0 68.8Q686.8 66.2 686.8 62.4L686.8 62.4Q686.8 58.6 688.0 55.9Q689.1 53.3 691.1 51.8Q693.2 50.4 696.2 50.4L696.2 50.4Q699.1 50.4 701.2 51.8Q703.3 53.3 704.4 55.9Q705.5 58.6 705.5 62.4L705.5 62.4Q705.5 66.2 704.4 68.8Q703.3 71.5 701.2 72.9Q699.1 74.3 696.2 74.3ZM696.2 70.4L696.2 70.4Q697.6 70.4 698.6 69.4Q699.6 68.5 700.1 66.7Q700.6 64.9 700.6 62.4L700.6 62.4Q700.6 59.8 700.1 58.0Q699.6 56.2 698.6 55.3Q697.6 54.3 696.2 54.3L696.2 54.3Q694.7 54.3 693.7 55.3Q692.7 56.2 692.2 58.0Q691.7 59.8 691.7 62.4L691.7 62.4Q691.7 64.9 692.2 66.7Q692.7 68.5 693.7 69.4Q694.7 70.4 696.2 70.4ZM719.8 72.7L715.8 72.7L715.8 66.6L709.8 66.6L709.8 62.8L715.8 62.8L715.8 56.7L719.8 56.7L719.8 62.8L725.8 62.8L725.8 66.6L719.8 66.6L719.8 72.7Z "/></g><mask id="satori_om-id-5-1"><rect x="658" y="86" width="63" height="12" fill="#fff" mask="url(#satori_om-id)"/></mask><g mask="url(#satori_om-id)" clip-path="url(#satori_cp-id)"><path fill="rgba(255,255,255,0.4)" d="M661.8 96.1L661.8 96.1Q660.9 96.1 660.2 95.6Q659.4 95.2 659.0 94.4Q658.6 93.5 658.6 92.4L658.6 92.4Q658.6 91.2 659.0 90.4Q659.4 89.5 660.2 89.1Q660.9 88.6 661.8 88.6L661.8 88.6Q662.4 88.6 662.9 88.8Q663.4 88.9 663.7 89.3Q664.1 89.6 664.4 90.0Q664.7 90.5 664.8 91.0L664.8 91.0L663.8 91.0Q663.8 90.6 663.6 90.4Q663.4 90.1 663.1 89.9Q662.8 89.7 662.5 89.6Q662.2 89.5 661.8 89.5L661.8 89.5Q661.2 89.5 660.6 89.8Q660.1 90.2 659.8 90.8Q659.5 91.4 659.5 92.4L659.5 92.4Q659.5 93.3 659.8 93.9Q660.1 94.6 660.6 94.9Q661.2 95.2 661.8 95.2L661.8 95.2Q662.2 95.2 662.5 95.1Q662.8 95.0 663.1 94.8Q663.4 94.7 663.6 94.4Q663.8 94.1 663.8 93.7L663.8 93.7L664.8 93.7Q664.7 94.3 664.4 94.7Q664.1 95.1 663.8 95.5Q663.4 95.8 662.9 95.9Q662.4 96.1 661.8 96.1ZM671.1 96.1L671.1 96.1Q670.2 96.1 669.5 95.6Q668.7 95.2 668.3 94.4Q667.9 93.5 667.9 92.4L667.9 92.4Q667.9 91.2 668.3 90.4Q668.7 89.5 669.5 89.1Q670.2 88.6 671.1 88.6L671.1 88.6Q672.1 88.6 672.8 89.1Q673.5 89.5 673.9 90.4Q674.4 91.2 674.4 92.4L674.4 92.4Q674.4 93.5 673.9 94.4Q673.5 95.2 672.8 95.6Q672.1 96.1 671.1 96.1ZM671.1 95.2L671.1 95.2Q671.8 95.2 672.3 94.9Q672.8 94.6 673.1 93.9Q673.5 93.3 673.5 92.4L673.5 92.4Q673.5 91.4 673.1 90.8Q672.8 90.1 672.3 89.8Q671.8 89.5 671.1 89.5L671.1 89.5Q670.5 89.5 670.0 89.8Q669.4 90.2 669.1 90.8Q668.8 91.4 668.8 92.4L668.8 92.4Q668.8 93.3 669.1 93.9Q669.4 94.6 670.0 94.9Q670.5 95.2 671.1 95.2ZM678.7 96L677.8 96L677.8 88.7L679.1 88.7L680.9 93.3Q681.0 93.5 681.1 93.7Q681.2 94.0 681.3 94.2Q681.3 94.5 681.4 94.8L681.4 94.8Q681.5 94.9 681.5 95.0L681.5 95.0Q681.5 94.9 681.5 94.8L681.5 94.8Q681.6 94.5 681.7 94.3Q681.8 94.0 681.9 93.7Q682.0 93.5 682.0 93.3L682.0 93.3L683.8 88.7L685.1 88.7L685.1 96L684.2 96L684.2 91.8Q684.2 91.6 684.2 91.3Q684.2 91.0 684.2 90.7Q684.2 90.4 684.2 90.1L684.2 90.1Q684.2 89.9 684.2 89.7L684.2 89.7Q684.2 89.9 684.1 90.1L684.1 90.1Q684.0 90.5 683.9 90.8Q683.8 91.1 683.7 91.4Q683.6 91.7 683.5 91.8L683.5 91.8L681.9 96L681.1 96L679.4 91.8Q679.3 91.7 679.3 91.4Q679.2 91.2 679.0 90.8Q678.9 90.5 678.8 90.2L678.8 90.2Q678.8 89.9 678.7 89.7L678.7 89.7Q678.7 89.9 678.7 90.0L678.7 90.0Q678.7 90.4 678.7 90.7Q678.7 91.0 678.7 91.3Q678.7 91.6 678.7 91.8L678.7 91.8L678.7 96ZM689.7 96L688.9 96L688.9 88.7L690.2 88.7L692.0 93.3Q692.0 93.5 692.1 93.7Q692.2 94.0 692.3 94.2Q692.4 94.5 692.5 94.8L692.5 94.8Q692.5 94.9 692.5 95.0L692.5 95.0Q692.5 94.9 692.6 94.8L692.6 94.8Q692.6 94.5 692.7 94.3Q692.8 94.0 692.9 93.7Q693.0 93.5 693.0 93.3L693.0 93.3L694.8 88.7L696.1 88.7L696.1 96L695.2 96L695.2 91.8Q695.2 91.6 695.2 91.3Q695.2 91.0 695.2 90.7Q695.2 90.4 695.3 90.1L695.3 90.1Q695.3 89.9 695.3 89.7L695.3 89.7Q695.2 89.9 695.1 90.1L695.1 90.1Q695.0 90.5 694.9 90.8Q694.8 91.1 694.7 91.4Q694.6 91.7 694.5 91.8L694.5 91.8L692.9 96L692.1 96L690.4 91.8Q690.4 91.7 690.3 91.4Q690.2 91.2 690.1 90.8Q690.0 90.5 689.9 90.2L689.9 90.2Q689.8 89.9 689.7 89.7L689.7 89.7Q689.7 89.9 689.7 90.0L689.7 90.0Q689.7 90.4 689.7 90.7Q689.7 91.0 689.7 91.3Q689.7 91.6 689.7 91.8L689.7 91.8L689.7 96ZM699.9 88.7L700.8 88.7L700.8 96L699.9 96L699.9 88.7ZM706.5 89.5L704.2 89.5L704.2 88.7L709.7 88.7L709.7 89.5L707.4 89.5L707.4 96L706.5 96L706.5 89.5ZM715.4 96.1L715.4 96.1Q714.6 96.1 714.0 95.9Q713.4 95.6 713.1 95.2Q712.8 94.7 712.7 94.1L712.7 94.1L713.7 94.1Q713.7 94.5 714.0 94.8Q714.2 95.0 714.6 95.2Q714.9 95.3 715.4 95.3L715.4 95.3Q715.9 95.3 716.3 95.1Q716.6 95.0 716.9 94.7Q717.1 94.4 717.1 94.0L717.1 94.0Q717.1 93.7 716.9 93.4Q716.7 93.2 716.4 93.1Q716.1 92.9 715.7 92.8L715.7 92.8L714.8 92.6Q713.9 92.3 713.4 91.9Q712.9 91.4 712.9 90.7L712.9 90.7Q712.9 90.1 713.3 89.6Q713.6 89.1 714.2 88.9Q714.7 88.6 715.4 88.6L715.4 88.6Q716.1 88.6 716.7 88.9Q717.3 89.1 717.6 89.6Q717.9 90.0 717.9 90.6L717.9 90.6L717.0 90.6Q716.9 90.0 716.5 89.7Q716.0 89.4 715.4 89.4L715.4 89.4Q714.9 89.4 714.6 89.6Q714.2 89.8 714.0 90.0Q713.8 90.3 713.8 90.6L713.8 90.6Q713.8 91.0 714.1 91.2Q714.3 91.5 714.6 91.6Q715.0 91.7 715.2 91.8L715.2 91.8L715.9 92.0Q716.2 92.1 716.6 92.2Q716.9 92.4 717.3 92.6Q717.6 92.8 717.8 93.2Q718.0 93.5 718.0 94.0L718.0 94.0Q718.0 94.6 717.7 95.1Q717.4 95.6 716.8 95.8Q716.2 96.1 715.4 96.1Z "/></g></svg>