<!-- Generated by readme-aura https://github.com/collectioneur/readme-aura -->
<svg width="800" height="200" viewBox="0 0 800 200" xmlns="http://www.w3.org/2000/svg"><defs><clipPath id="satori_bc-id"><path x="0" y="0" width="800" height="200" d="M16,0 h768 a16,16 0 0 1 16,16 v168 a16,16 0 0 1 -16,16 h-768 a16,16 0 0 1 -16,-16 v-168 a16,16 0 0 1 16,-16"/></clipPath></defs><clipPath id="satori_cp-id"><path x="0" y="0" width="800" height="200" d="M16,0 h768 a16,16 0 0 1 16,16 v168 a16,16 0 0 1 -16,16 h-768 a16,16 0 0 1 -16,-16 v-168 a16,16 0 0 1 16,-16"/></clipPath><mask id="satori_om-id"><rect x="1" y="1" width="798" height="198" fill="#fff"/><path width="800" height="200" fill="none" stroke="#000" stroke-width="2" d="M4.686,4.686 A16,16 0 0 1 16,0 h768 a16,16 0 0 1 16,16 v168 a16,16 0 0 1 -16,16 h-768 a16,16 0 0 1 -16,-16 v-168 A16,16 0 0 1 4.686,4.686"/></mask><path x="0" y="0" width="800" height="200" fill="#0a0a0f" d="M16,0 h768 a16,16 0 0 1 16,16 v168 a16,16 0 0 1 -16,16 h-768 a16,16 0 0 1 -16,-16 v-168 a16,16 0 0 1 16,-16"/><path width="800" height="200" clip-path="url(#satori_bc-id)" fill="none" stroke="rgba(255,255,255,0.05)" stroke-width="2" d="M4.686,4.686 A16,16 0 0 1 16,0 h768 a16,16 0 0 1 16,16 v168 a16,16 0 0 1 -16,16 h-768 a16,16 0 0 1 -16,-16 v-168 A16,16 0 0 1 4.686,4.686"/><clipPath id="satori_cp-id-0" clip-path="url(#satori_cp-id)"><rect x="1" y="1" width="798" height="198"/></clipPath><mask id="satori_om-id-0"><rect x="1" y="1" width="798" height="198" fill="#fff" mask="url(#satori_om-id)"/></mask><svg x="1" y="1" width="798" height="198" preserveAspectRatio="none" clip-path="url(#satori_cp-id-0)" mask="url(#satori_om-id-0)"><defs><radialGradient id="card3-g1" cx="80%" cy="80%" r="60%"><stop offset="0%" stop-color="rgba(100, 30, 200, 0.25)"></stop><stop offset="100%" stop-color="rgba(100, 30, 200, 0)"></stop></radialGradient></defs><rect width="100%" height="100%" fill="url(#card3-g1)"></rect></svg><mask id="satori_om-id-0-0"><rect x="1" y="1" width="0" height="198" fill="#fff" mask="url(#satori_om-id)"/></mask><mask id="satori_om-id-0-0-0"><rect x="1" y="1" width="0" height="198" fill="#fff" mask="url(#satori_om-id)"/></mask><mask id="satori_om-id-0-0-0-0"><rect x="1" y="1" width="0" height="198" fill="#fff" mask="url(#satori_om-id)"/></mask><mask id="satori_om-id-0-0-0-1"><rect x="1" y="1" width="0" height="198" fill="#fff" mask="url(#satori_om-id)"/></mask><mask id="satori_om-id-0-1"><rect x="1" y="1" width="0" height="198" fill="#fff" mask="url(#satori_om-id)"/></mask><mask id="satori_om-id-1"><rect x="31" y="31" width="738" height="11" fill="#fff" mask="url(#satori_om-id)"/></mask><g mask="url(#satori_om-id)" clip-path="url(#satori_cp-id)"><path fill="rgba(255,255,255,0.3)" d="M33.8 34.5L31.5 34.5L31.5 33.7L37.0 33.7L37.0 34.5L34.7 34.5L34.7 41L33.8 41L33.8 34.5ZM45.8 41L41.3 41L41.3 33.7L45.8 33.7L45.8 34.5L42.3 34.5L42.3 36.9L45.5 36.9L45.5 37.7L42.3 37.7L42.3 40.2L45.8 40.2L45.8 41ZM53.3 41.1L53.3 41.1Q52.4 41.1 51.6 40.6Q50.9 40.2 50.5 39.4Q50.1 38.5 50.1 37.4L50.1 37.4Q50.1 36.2 50.5 35.4Q50.9 34.5 51.6 34.1Q52.4 33.6 53.3 33.6L53.3 33.6Q53.8 33.6 54.3 33.8Q54.8 33.9 55.2 34.3Q55.6 34.6 55.9 35.0Q56.1 35.5 56.2 36.0L56.2 36.0L55.3 36.0Q55.2 35.6 55.0 35.4Q54.8 35.1 54.6 34.9Q54.3 34.7 54.0 34.6Q53.6 34.5 53.3 34.5L53.3 34.5Q52.6 34.5 52.1 34.8Q51.6 35.2 51.3 35.8Q51.0 36.4 51.0 37.4L51.0 37.4Q51.0 38.3 51.3 38.9Q51.6 39.6 52.1 39.9Q52.6 40.2 53.3 40.2L53.3 40.2Q53.6 40.2 54.0 40.1Q54.3 40.0 54.6 39.8Q54.8 39.7 55.0 39.4Q55.2 39.1 55.3 38.7L55.3 38.7L56.2 38.7Q56.1 39.3 55.9 39.7Q55.6 40.1 55.2 40.5Q54.8 40.8 54.3 40.9Q53.8 41.1 53.3 41.1ZM61.6 41L60.6 41L60.6 33.7L61.6 33.7L61.6 36.9L65.4 36.9L65.4 33.7L66.3 33.7L66.3 41L65.4 41L65.4 37.7L61.6 37.7L61.6 41Z M79.2 41.1L79.2 41.1Q78.4 41.1 77.9 40.9Q77.3 40.6 77.0 40.2Q76.6 39.7 76.6 39.1L76.6 39.1L77.5 39.1Q77.6 39.5 77.8 39.8Q78.1 40.0 78.4 40.2Q78.8 40.3 79.2 40.3L79.2 40.3Q79.7 40.3 80.1 40.1Q80.5 40.0 80.7 39.7Q81.0 39.4 81.0 39.0L81.0 39.0Q81.0 38.7 80.8 38.4Q80.6 38.2 80.2 38.1Q79.9 37.9 79.5 37.8L79.5 37.8L78.6 37.6Q77.8 37.3 77.3 36.9Q76.8 36.4 76.8 35.7L76.8 35.7Q76.8 35.1 77.1 34.6Q77.5 34.1 78.0 33.9Q78.6 33.6 79.3 33.6L79.3 33.6Q80.0 33.6 80.6 33.9Q81.1 34.1 81.4 34.6Q81.7 35.0 81.8 35.6L81.8 35.6L80.9 35.6Q80.8 35.0 80.4 34.7Q79.9 34.4 79.3 34.4L79.3 34.4Q78.8 34.4 78.4 34.6Q78.1 34.8 77.9 35.0Q77.7 35.3 77.7 35.6L77.7 35.6Q77.7 36.0 77.9 36.2Q78.2 36.5 78.5 36.6Q78.8 36.7 79.1 36.8L79.1 36.8L79.8 37.0Q80.1 37.1 80.5 37.2Q80.8 37.4 81.1 37.6Q81.4 37.8 81.7 38.2Q81.9 38.5 81.9 39.0L81.9 39.0Q81.9 39.6 81.6 40.1Q81.2 40.6 80.7 40.8Q80.1 41.1 79.2 41.1ZM88.2 34.5L85.9 34.5L85.9 33.7L91.4 33.7L91.4 34.5L89.1 34.5L89.1 41L88.2 41L88.2 34.5ZM96.1 41L95.1 41L97.8 33.7L98.9 33.7L101.5 41L100.6 41L99.8 39.0L96.8 39.0L96.1 41ZM97.1 38.2L99.5 38.2L99.0 36.7Q98.9 36.3 98.7 35.7L98.7 35.7Q98.5 35.2 98.3 34.5L98.3 34.5Q98.1 35.2 97.9 35.7L97.9 35.7Q97.8 36.3 97.6 36.7L97.6 36.7L97.1 38.2ZM108.6 41.1L108.6 41.1Q107.7 41.1 106.9 40.6Q106.2 40.2 105.8 39.4Q105.4 38.5 105.4 37.4L105.4 37.4Q105.4 36.2 105.8 35.4Q106.2 34.5 106.9 34.1Q107.7 33.6 108.6 33.6L108.6 33.6Q109.2 33.6 109.7 33.8Q110.1 33.9 110.5 34.3Q110.9 34.6 111.2 35.0Q111.4 35.5 111.5 36.0L111.5 36.0L110.6 36.0Q110.5 35.6 110.3 35.4Q110.2 35.1 109.9 34.9Q109.6 34.7 109.3 34.6Q109.0 34.5 108.6 34.5L108.6 34.5Q108.0 34.5 107.4 34.8Q106.9 35.2 106.6 35.8Q106.3 36.4 106.3 37.4L106.3 37.4Q106.3 38.3 106.6 38.9Q106.9 39.6 107.4 39.9Q108.0 40.2 108.6 40.2L108.6 40.2Q109.0 40.2 109.3 40.1Q109.6 40.0 109.9 39.8Q110.2 39.7 110.3 39.4Q110.5 39.1 110.6 38.7L110.6 38.7L111.5 38.7Q111.5 39.3 111.2 39.7Q110.9 40.1 110.5 40.5Q110.1 40.8 109.7 40.9Q109.2 41.1 108.6 41.1ZM116.9 41L116.0 41L116.0 33.7L116.9 33.7L116.9 36.2L116.9 37.6Q117.0 37.4 117.1 37.3L117.1 37.3Q117.3 37.0 117.6 36.7Q117.9 36.4 118.1 36.1L118.1 36.1L120.3 33.7L121.5 33.7L118.6 36.9L121.5 41L120.4 41L117.9 37.5L116.9 38.6L116.9 41Z "/></g><mask id="satori_om-id-2"><rect x="31" y="62" width="738" height="107" fill="#fff" mask="url(#satori_om-id)"/></mask><mask id="satori_om-id-2-0"><rect x="31" y="62" width="738" height="25" fill="#fff" mask="url(#satori_om-id)"/></mask><mask id="satori_om-id-2-0-0"><rect x="31" y="68" width="120" height="13" fill="#fff" mask="url(#satori_om-id)"/></mask><g mask="url(#satori_om-id)" clip-path="url(#satori_cp-id)"><path fill="#b4a6ff" d="M36.8 79L31.7 79L31.7 71.0L33.4 71.0L33.4 77.6L36.8 77.6L36.8 79ZM40.3 79L38.5 79L41.2 71.0L43.4 71.0L46.2 79L44.3 79L43.7 77.1L40.9 77.1L40.3 79ZM41.3 75.9L43.3 75.9L43.1 75.1Q42.8 74.4 42.6 73.5L42.6 73.5Q42.4 72.9 42.3 72.3L42.3 72.3Q42.1 72.9 42.0 73.5L42.0 73.5Q41.7 74.4 41.5 75.1L41.5 75.1L41.3 75.9ZM49.8 79L48.2 79L48.2 71.0L50.0 71.0L52.5 75.0Q52.7 75.4 52.9 75.7Q53.1 76.1 53.3 76.5L53.3 76.5Q53.4 76.8 53.5 77.0L53.5 77.0Q53.5 76.8 53.5 76.6L53.5 76.6Q53.5 76.1 53.4 75.6Q53.4 75.2 53.4 74.8L53.4 74.8L53.4 71.0L55.1 71.0L55.1 79L53.3 79L51.0 75.3Q50.7 74.9 50.5 74.5Q50.3 74.1 50.0 73.7L50.0 73.7Q49.9 73.4 49.7 73.0L49.7 73.0Q49.7 73.3 49.8 73.7L49.8 73.7Q49.8 74.2 49.8 74.6Q49.8 75.0 49.8 75.3L49.8 75.3L49.8 79ZM61.1 79.1L61.1 79.1Q60.0 79.1 59.1 78.6Q58.3 78.1 57.8 77.2Q57.3 76.3 57.3 75.0L57.3 75.0Q57.3 73.7 57.8 72.8Q58.3 71.9 59.2 71.4Q60.0 70.9 61.0 70.9L61.0 70.9Q61.7 70.9 62.3 71.1Q62.9 71.3 63.3 71.6Q63.8 72.0 64.1 72.5Q64.4 73.0 64.5 73.6L64.5 73.6L62.8 73.6Q62.7 73.3 62.6 73.1Q62.4 72.8 62.2 72.7Q62.0 72.5 61.7 72.4Q61.4 72.3 61.1 72.3L61.1 72.3Q60.5 72.3 60.0 72.7Q59.5 73.0 59.2 73.6Q59.0 74.1 59.0 75.0Q59.0 75.8 59.2 76.4Q59.5 77.0 60.0 77.3Q60.5 77.7 61.1 77.7L61.1 77.7Q61.7 77.7 62.1 77.4Q62.5 77.2 62.7 76.8L62.7 76.8Q62.9 76.5 63.0 76.0L63.0 76.0L61.2 76.0L61.2 74.7L64.5 74.7L64.5 75.7Q64.5 76.8 64.1 77.5Q63.6 78.3 62.9 78.7Q62.1 79.1 61.1 79.1ZM70.1 79.1L70.1 79.1Q69.1 79.1 68.4 78.7Q67.6 78.4 67.2 77.7Q66.8 77.1 66.8 76.2L66.8 76.2L66.8 71.0L68.4 71.0L68.4 76.1Q68.4 76.5 68.6 76.9Q68.8 77.2 69.2 77.5Q69.6 77.7 70.1 77.7L70.1 77.7Q70.6 77.7 71.0 77.5Q71.3 77.2 71.6 76.9Q71.8 76.5 71.8 76.1L71.8 76.1L71.8 71.0L73.4 71.0L73.4 76.2Q73.4 77.1 73.0 77.7Q72.6 78.4 71.8 78.7Q71.1 79.1 70.1 79.1ZM77.2 79L75.4 79L78.1 71.0L80.3 71.0L83.1 79L81.3 79L80.6 77.1L77.8 77.1L77.2 79ZM78.2 75.9L80.2 75.9L80.0 75.1Q79.7 74.4 79.5 73.5L79.5 73.5Q79.3 72.9 79.2 72.3L79.2 72.3Q79.0 72.9 78.9 73.5L78.9 73.5Q78.7 74.4 78.4 75.1L78.4 75.1L78.2 75.9ZM88.6 79.1L88.6 79.1Q87.5 79.1 86.6 78.6Q85.8 78.1 85.3 77.2Q84.8 76.3 84.8 75.0L84.8 75.0Q84.8 73.7 85.3 72.8Q85.8 71.9 86.7 71.4Q87.5 70.9 88.6 70.9L88.6 70.9Q89.2 70.9 89.8 71.1Q90.4 71.3 90.9 71.6Q91.3 72.0 91.6 72.5Q91.9 73.0 92.0 73.6L92.0 73.6L90.3 73.6Q90.2 73.3 90.1 73.1Q89.9 72.8 89.7 72.7Q89.5 72.5 89.2 72.4Q88.9 72.3 88.6 72.3L88.6 72.3Q88.0 72.3 87.5 72.7Q87.0 73.0 86.8 73.6Q86.5 74.1 86.5 75.0Q86.5 75.8 86.8 76.4Q87.0 77.0 87.5 77.3Q88.0 77.7 88.6 77.7L88.6 77.7Q89.2 77.7 89.6 77.4Q90.0 77.2 90.2 76.8L90.2 76.8Q90.5 76.5 90.5 76.0L90.5 76.0L88.7 76.0L88.7 74.7L92.1 74.7L92.1 75.7Q92.1 76.8 91.6 77.5Q91.2 78.3 90.4 78.7Q89.6 79.1 88.6 79.1ZM99.7 79L94.3 79L94.3 71.0L99.7 71.0L99.7 72.4L96.0 72.4L96.0 74.3L99.4 74.3L99.4 75.6L96.0 75.6L96.0 77.6L99.7 77.6L99.7 79ZM104.9 79.1L104.9 79.1Q104.0 79.1 103.3 78.8Q102.5 78.5 102.1 77.9Q101.8 77.4 101.7 76.5L101.7 76.5L103.3 76.5Q103.4 76.9 103.6 77.2Q103.8 77.5 104.1 77.6Q104.5 77.7 104.9 77.7L104.9 77.7Q105.4 77.7 105.7 77.6Q106.0 77.5 106.2 77.2Q106.4 77.0 106.4 76.7L106.4 76.7Q106.4 76.4 106.2 76.3Q106.0 76.1 105.7 75.9Q105.4 75.8 105.0 75.7L105.0 75.7L104.1 75.5Q103.1 75.2 102.5 74.7Q101.9 74.2 101.9 73.3L101.9 73.3Q101.9 72.6 102.3 72.0Q102.7 71.5 103.4 71.2Q104.1 70.9 105.0 70.9L105.0 70.9Q105.8 70.9 106.5 71.2Q107.2 71.5 107.5 72.0Q107.9 72.6 107.9 73.3L107.9 73.3L106.3 73.3Q106.3 72.8 105.9 72.5Q105.5 72.3 104.9 72.3L104.9 72.3Q104.5 72.3 104.2 72.4Q103.9 72.5 103.8 72.7Q103.6 72.9 103.6 73.2L103.6 73.2Q103.6 73.5 103.8 73.7Q104.0 73.9 104.3 74.0Q104.6 74.1 104.9 74.2L104.9 74.2L105.6 74.4Q106.1 74.5 106.6 74.7Q107.0 74.9 107.3 75.2Q107.7 75.4 107.8 75.8Q108.0 76.2 108.0 76.7L108.0 76.7Q108.0 77.4 107.7 78.0Q107.3 78.5 106.6 78.8Q105.9 79.1 104.9 79.1Z "/></g><mask id="satori_om-id-2-0-1"><rect x="151" y="62" width="346" height="25" fill="#fff" mask="url(#satori_om-id)"/></mask><defs><clipPath id="satori_bc-id-2-0-1-0" clip-path="url(#satori_cp-id)"><path x="151" y="62" width="93" height="25" d="M157,62 h81 a6,6 0 0 1 6,6 v13 a6,6 0 0 1 -6,6 h-81 a6,6 0 0 1 -6,-6 v-13 a6,6 0 0 1 6,-6"/></clipPath></defs><mask id="satori_om-id-2-0-1-0"><rect x="152" y="63" width="91" height="23" fill="#fff" mask="url(#satori_om-id)"/><path width="93" height="25" fill="none" stroke="#000" stroke-width="2" d="M152.757,63.757 A6,6 0 0 1 157,62 h81 a6,6 0 0 1 6,6 v13 a6,6 0 0 1 -6,6 h-81 a6,6 0 0 1 -6,-6 v-13 A6,6 0 0 1 152.757,63.757"/></mask><path x="151" y="62" width="93" height="25" fill="rgba(255,255,255,0.03)" d="M157,62 h81 a6,6 0 0 1 6,6 v13 a6,6 0 0 1 -6,6 h-81 a6,6 0 0 1 -6,-6 v-13 a6,6 0 0 1 6,-6" clip-path="url(#satori_cp-id)" mask="url(#satori_om-id)"/><path width="93" height="25" clip-path="url(#satori_bc-id-2-0-1-0)" fill="none" stroke="rgba(255,255,255,0.08)" stroke-width="2" d="M152.757,63.757 A6,6 0 0 1 157,62 h81 a6,6 0 0 1 6,6 v13 a6,6 0 0 1 -6,6 h-81 a6,6 0 0 1 -6,-6 v-13 A6,6 0 0 1 152.757,63.757"/><g mask="url(#satori_om-id)" clip-path="url(#satori_cp-id)"><path fill="rgba(255,255,255,0.8)" d="M169.3 71.3L166.6 71.3L166.6 70.3L173.2 70.3L173.2 71.3L170.4 71.3L170.4 79L169.3 79L169.3 71.3ZM174.6 81.4L174.6 81.4L174.8 80.5L174.9 80.5Q175.3 80.6 175.5 80.5Q175.8 80.5 176.0 80.3Q176.2 80.0 176.4 79.6L176.4 79.6L176.6 79.0L174.1 72.4L175.2 72.4L176.6 76.3Q176.8 76.9 177.0 77.5L177.0 77.5Q177.1 77.8 177.1 78.0L177.1 78.0Q177.2 77.8 177.3 77.5L177.3 77.5Q177.4 76.9 177.6 76.3L177.6 76.3L179.0 72.4L180.2 72.4L177.3 80.0Q177.1 80.5 176.8 80.8Q176.5 81.2 176.2 81.3Q175.8 81.5 175.3 81.5L175.3 81.5Q175.1 81.5 174.9 81.5Q174.6 81.4 174.6 81.4ZM182.5 81.4L181.4 81.4L181.4 72.4L182.4 72.4L182.4 73.5L182.6 73.5Q182.7 73.3 182.9 73.1Q183.1 72.8 183.4 72.6Q183.8 72.4 184.5 72.4L184.5 72.4Q185.3 72.4 185.9 72.8Q186.5 73.2 186.9 73.9Q187.2 74.7 187.2 75.7L187.2 75.7Q187.2 76.8 186.9 77.5Q186.5 78.3 185.9 78.7Q185.3 79.1 184.5 79.1L184.5 79.1Q183.8 79.1 183.5 78.9Q183.1 78.7 182.9 78.4Q182.7 78.2 182.6 78.0L182.6 78.0L182.5 78.0L182.5 81.4ZM184.3 78.2L184.3 78.2Q184.9 78.2 185.3 77.9Q185.7 77.5 185.9 77.0Q186.2 76.4 186.2 75.7L186.2 75.7Q186.2 75.1 186.0 74.5Q185.7 74.0 185.3 73.6Q184.9 73.3 184.3 73.3L184.3 73.3Q183.7 73.3 183.3 73.6Q182.9 73.9 182.7 74.5Q182.5 75.0 182.5 75.7L182.5 75.7Q182.5 76.5 182.7 77.0Q182.9 77.6 183.3 77.9Q183.7 78.2 184.3 78.2ZM191.5 79.1L191.5 79.1Q190.6 79.1 189.9 78.7Q189.2 78.3 188.8 77.5Q188.4 76.8 188.4 75.8Q188.4 74.8 188.8 74.0Q189.2 73.2 189.8 72.8Q190.5 72.4 191.4 72.4L191.4 72.4Q191.9 72.4 192.4 72.5Q192.9 72.7 193.3 73.1Q193.8 73.5 194.0 74.1Q194.2 74.7 194.2 75.6L194.2 75.6L194.2 76.1L189.5 76.1Q189.5 76.7 189.8 77.2L189.8 77.2Q190.0 77.7 190.5 77.9Q190.9 78.2 191.5 78.2L191.5 78.2Q191.9 78.2 192.2 78.1Q192.5 78.0 192.8 77.8Q193 77.5 193.1 77.2L193.1 77.2L194.1 77.5Q194.0 78.0 193.6 78.3Q193.3 78.7 192.7 78.9Q192.2 79.1 191.5 79.1ZM189.5 75.2L189.5 75.2L193.2 75.2Q193.1 74.7 193.0 74.4L193.0 74.4Q192.8 73.9 192.4 73.6Q192.0 73.3 191.4 73.3Q190.8 73.3 190.4 73.6Q190.0 73.9 189.7 74.3L189.7 74.3Q189.5 74.7 189.5 75.2ZM198.7 79.2L198.7 79.2Q197.7 79.2 197.0 78.8Q196.4 78.5 196.0 78.0Q195.6 77.4 195.5 76.7L195.5 76.7L196.7 76.7Q196.7 77.2 197.0 77.5Q197.3 77.8 197.7 78.0Q198.2 78.2 198.7 78.2L198.7 78.2Q199.3 78.2 199.7 78.0Q200.2 77.8 200.5 77.4Q200.8 77.1 200.8 76.6L200.8 76.6Q200.8 76.2 200.5 75.9Q200.3 75.7 199.9 75.5Q199.5 75.3 199.0 75.2L199.0 75.2L198.0 74.9Q196.9 74.6 196.3 74.0Q195.8 73.5 195.8 72.6L195.8 72.6Q195.8 71.9 196.2 71.3Q196.6 70.8 197.2 70.5Q197.9 70.2 198.8 70.2L198.8 70.2Q199.6 70.2 200.3 70.5Q200.9 70.8 201.3 71.3Q201.7 71.8 201.7 72.5L201.7 72.5L200.6 72.5Q200.6 71.8 200.0 71.5Q199.5 71.1 198.7 71.1L198.7 71.1Q198.2 71.1 197.7 71.3Q197.3 71.5 197.1 71.8Q196.8 72.1 196.8 72.6L196.8 72.6Q196.8 73.0 197.1 73.3Q197.4 73.6 197.8 73.7Q198.2 73.9 198.5 74.0L198.5 74.0L199.4 74.2Q199.7 74.3 200.2 74.5Q200.6 74.6 201.0 74.9Q201.4 75.2 201.6 75.6Q201.9 76.0 201.9 76.6L201.9 76.6Q201.9 77.3 201.5 77.9Q201.1 78.5 200.4 78.8Q199.7 79.2 198.7 79.2ZM206.1 79.1L206.1 79.1Q205.2 79.1 204.6 78.7Q203.9 78.3 203.5 77.5Q203.1 76.8 203.1 75.8L203.1 75.8Q203.1 74.7 203.5 74.0Q203.9 73.2 204.6 72.8Q205.2 72.4 206.1 72.4L206.1 72.4Q206.6 72.4 207.0 72.5Q207.4 72.6 207.8 72.8Q208.1 73.1 208.4 73.4Q208.6 73.8 208.8 74.2L208.8 74.2L207.8 74.5Q207.7 74.2 207.5 74.0Q207.4 73.8 207.2 73.6Q207.0 73.5 206.7 73.4Q206.4 73.3 206.1 73.3L206.1 73.3Q205.5 73.3 205.0 73.7Q204.6 74.0 204.4 74.6Q204.2 75.1 204.2 75.8L204.2 75.8Q204.2 76.4 204.4 77.0Q204.6 77.5 205.0 77.9Q205.5 78.2 206.1 78.2L206.1 78.2Q206.5 78.2 206.7 78.1Q207.0 78.0 207.2 77.9Q207.4 77.7 207.6 77.5Q207.7 77.3 207.8 77.0L207.8 77.0L208.8 77.3Q208.7 77.7 208.4 78.1Q208.2 78.4 207.8 78.6Q207.5 78.9 207.0 79.0Q206.6 79.1 206.1 79.1ZM211.4 79L210.3 79L210.3 72.4L211.3 72.4L211.3 73.5L211.4 73.5Q211.6 73.0 212.1 72.7Q212.5 72.4 213.1 72.4L213.1 72.4Q213.2 72.4 213.4 72.4Q213.5 72.4 213.6 72.4L213.6 72.4L213.6 73.4Q213.6 73.4 213.4 73.4Q213.2 73.4 213.0 73.4L213.0 73.4Q212.5 73.4 212.2 73.6Q211.8 73.8 211.6 74.1Q211.4 74.5 211.4 74.9L211.4 74.9L211.4 79ZM215.9 79L214.8 79L214.8 72.4L215.9 72.4L215.9 79ZM215.4 71.4L215.4 71.4Q215.1 71.4 214.8 71.2Q214.6 71.0 214.6 70.7L214.6 70.7Q214.6 70.4 214.8 70.2Q215.1 70.0 215.4 70.0L215.4 70.0Q215.7 70.0 215.9 70.2Q216.1 70.4 216.1 70.7L216.1 70.7Q216.1 71.0 215.9 71.2Q215.7 71.4 215.4 71.4ZM218.8 81.4L217.7 81.4L217.7 72.4L218.8 72.4L218.8 73.5L218.9 73.5Q219.0 73.3 219.2 73.1Q219.4 72.8 219.8 72.6Q220.1 72.4 220.8 72.4L220.8 72.4Q221.6 72.4 222.2 72.8Q222.8 73.2 223.2 73.9Q223.6 74.7 223.6 75.7L223.6 75.7Q223.6 76.8 223.2 77.5Q222.8 78.3 222.2 78.7Q221.6 79.1 220.8 79.1L220.8 79.1Q220.2 79.1 219.8 78.9Q219.4 78.7 219.2 78.4Q219.0 78.2 218.9 78.0L218.9 78.0L218.8 78.0L218.8 81.4ZM220.6 78.2L220.6 78.2Q221.2 78.2 221.6 77.9Q222.1 77.5 222.3 77.0Q222.5 76.4 222.5 75.7L222.5 75.7Q222.5 75.1 222.3 74.5Q222.1 74.0 221.7 73.6Q221.2 73.3 220.6 73.3L220.6 73.3Q220.0 73.3 219.6 73.6Q219.2 73.9 219.0 74.5Q218.8 75.0 218.8 75.7L218.8 75.7Q218.8 76.5 219.0 77.0Q219.2 77.6 219.6 77.9Q220.0 78.2 220.6 78.2ZM226.3 72.4L227.7 72.4L227.7 73.4L226.3 73.4L226.3 77.3Q226.3 77.7 226.5 77.9Q226.7 78.1 227.1 78.1L227.1 78.1Q227.2 78.1 227.3 78.1Q227.5 78.1 227.6 78.1L227.6 78.1L227.8 79.0Q227.7 79.0 227.5 79.1Q227.3 79.1 227.1 79.1L227.1 79.1Q226.2 79.1 225.7 78.6Q225.3 78.2 225.3 77.4L225.3 77.4L225.3 73.4L224.3 73.4L224.3 72.4L225.3 72.4L225.3 70.9L226.3 70.9L226.3 72.4Z "/></g><defs><clipPath id="satori_bc-id-2-0-1-1" clip-path="url(#satori_cp-id)"><path x="254" y="62" width="91" height="25" d="M260,62 h79 a6,6 0 0 1 6,6 v13 a6,6 0 0 1 -6,6 h-79 a6,6 0 0 1 -6,-6 v-13 a6,6 0 0 1 6,-6"/></clipPath></defs><mask id="satori_om-id-2-0-1-1"><rect x="255" y="63" width="89" height="23" fill="#fff" mask="url(#satori_om-id)"/><path width="91" height="25" fill="none" stroke="#000" stroke-width="2" d="M255.757,63.757 A6,6 0 0 1 260,62 h79 a6,6 0 0 1 6,6 v13 a6,6 0 0 1 -6,6 h-79 a6,6 0 0 1 -6,-6 v-13 A6,6 0 0 1 255.757,63.757"/></mask><path x="254" y="62" width="91" height="25" fill="rgba(255,255,255,0.03)" d="M260,62 h79 a6,6 0 0 1 6,6 v13 a6,6 0 0 1 -6,6 h-79 a6,6 0 0 1 -6,-6 v-13 a6,6 0 0 1 6,-6" clip-path="url(#satori_cp-id)" mask="url(#satori_om-id)"/><path width="91" height="25" clip-path="url(#satori_bc-id-2-0-1-1)" fill="none" stroke="rgba(255,255,255,0.08)" stroke-width="2" d="M255.757,63.757 A6,6 0 0 1 260,62 h79 a6,6 0 0 1 6,6 v13 a6,6 0 0 1 -6,6 h-79 a6,6 0 0 1 -6,-6 v-13 A6,6 0 0 1 255.757,63.757"/><g mask="url(#satori_om-id)" clip-path="url(#satori_cp-id)"><path fill="rgba(255,255,255,0.8)" d="M272.2 79.1L272.2 79.1Q271.0 79.1 270.3 78.4Q269.6 77.8 269.6 76.5L269.6 76.5L269.6 76.0L270.7 76.0L270.7 76.5Q270.7 77.3 271.1 77.7Q271.5 78.1 272.2 78.1L272.2 78.1Q272.9 78.1 273.3 77.7Q273.7 77.3 273.7 76.5L273.7 76.5L273.7 70.3L274.8 70.3L274.8 76.5Q274.8 77.8 274.1 78.4Q273.3 79.1 272.2 79.1ZM278.6 79.2L278.6 79.2Q278.0 79.2 277.5 78.9Q277.0 78.7 276.7 78.2Q276.4 77.8 276.4 77.1L276.4 77.1Q276.4 76.6 276.6 76.2Q276.8 75.9 277.2 75.7Q277.6 75.5 278.0 75.4Q278.5 75.3 278.9 75.2L278.9 75.2Q279.5 75.1 279.9 75.1Q280.3 75.1 280.4 75.0Q280.6 74.9 280.6 74.6L280.6 74.6L280.6 74.6Q280.6 74.2 280.5 73.9Q280.3 73.6 280.0 73.4Q279.7 73.3 279.2 73.3L279.2 73.3Q278.8 73.3 278.4 73.4Q278.1 73.6 277.9 73.8Q277.7 74.0 277.6 74.3L277.6 74.3L276.6 73.9Q276.8 73.3 277.2 73.0Q277.7 72.6 278.2 72.5Q278.7 72.4 279.2 72.4L279.2 72.4Q279.5 72.4 280.0 72.4Q280.4 72.5 280.8 72.8Q281.2 73.0 281.4 73.5Q281.7 73.9 281.7 74.7L281.7 74.7L281.7 79L280.6 79L280.6 78.1L280.6 78.1Q280.4 78.3 280.2 78.6Q280.0 78.8 279.6 79.0Q279.2 79.2 278.6 79.2ZM278.8 78.2L278.8 78.2Q279.4 78.2 279.8 78.0Q280.2 77.8 280.4 77.4Q280.6 77.0 280.6 76.6L280.6 76.6L280.6 75.7Q280.5 75.8 280.3 75.9Q280.1 75.9 279.8 76.0Q279.6 76.0 279.3 76.0Q279.0 76.1 278.9 76.1L278.9 76.1Q278.5 76.1 278.2 76.3Q277.8 76.4 277.6 76.6Q277.4 76.8 277.4 77.2L277.4 77.2Q277.4 77.5 277.6 77.8Q277.8 78.0 278.1 78.1Q278.4 78.2 278.8 78.2ZM286.5 79L285.4 79L282.9 72.4L284.1 72.4L285.5 76.3Q285.7 76.9 285.8 77.5L285.8 77.5Q285.9 77.8 286.0 78.0L286.0 78.0Q286.0 77.8 286.1 77.5L286.1 77.5Q286.3 76.9 286.5 76.3L286.5 76.3L287.9 72.4L289.0 72.4L286.5 79ZM292.1 79.2L292.1 79.2Q291.5 79.2 291.0 78.9Q290.5 78.7 290.2 78.2Q289.9 77.8 289.9 77.1L289.9 77.1Q289.9 76.6 290.1 76.2Q290.3 75.9 290.7 75.7Q291.0 75.5 291.5 75.4Q292.0 75.3 292.4 75.2L292.4 75.2Q293.0 75.1 293.4 75.1Q293.7 75.1 293.9 75.0Q294.1 74.9 294.1 74.6L294.1 74.6L294.1 74.6Q294.1 74.2 293.9 73.9Q293.8 73.6 293.5 73.4Q293.2 73.3 292.7 73.3L292.7 73.3Q292.3 73.3 291.9 73.4Q291.6 73.6 291.4 73.8Q291.2 74.0 291.1 74.3L291.1 74.3L290.0 73.9Q290.3 73.3 290.7 73.0Q291.2 72.6 291.7 72.5Q292.2 72.4 292.7 72.4L292.7 72.4Q293.0 72.4 293.4 72.4Q293.9 72.5 294.2 72.8Q294.6 73.0 294.9 73.5Q295.1 73.9 295.1 74.7L295.1 74.7L295.1 79L294.1 79L294.1 78.1L294.0 78.1Q293.9 78.3 293.7 78.6Q293.4 78.8 293.0 79.0Q292.6 79.2 292.1 79.2ZM292.3 78.2L292.3 78.2Q292.9 78.2 293.3 78.0Q293.7 77.8 293.9 77.4Q294.1 77.0 294.1 76.6L294.1 76.6L294.1 75.7Q294.0 75.8 293.8 75.9Q293.6 75.9 293.3 76.0Q293.0 76.0 292.8 76.0Q292.5 76.1 292.4 76.1L292.4 76.1Q292.0 76.1 291.6 76.3Q291.3 76.4 291.1 76.6Q290.9 76.8 290.9 77.2L290.9 77.2Q290.9 77.5 291.1 77.8Q291.3 78.0 291.6 78.1Q291.9 78.2 292.3 78.2ZM299.9 79.2L299.9 79.2Q299.0 79.2 298.3 78.8Q297.6 78.5 297.2 78.0Q296.8 77.4 296.8 76.7L296.8 76.7L297.9 76.7Q297.9 77.2 298.2 77.5Q298.5 77.8 299.0 78.0Q299.4 78.2 299.9 78.2L299.9 78.2Q300.5 78.2 301.0 78.0Q301.5 77.8 301.7 77.4Q302.0 77.1 302.0 76.6L302.0 76.6Q302.0 76.2 301.8 75.9Q301.5 75.7 301.1 75.5Q300.7 75.3 300.3 75.2L300.3 75.2L299.2 74.9Q298.2 74.6 297.6 74.0Q297.0 73.5 297.0 72.6L297.0 72.6Q297.0 71.9 297.4 71.3Q297.8 70.8 298.5 70.5Q299.2 70.2 300.0 70.2L300.0 70.2Q300.9 70.2 301.5 70.5Q302.2 70.8 302.6 71.3Q302.9 71.8 303.0 72.5L303.0 72.5L301.9 72.5Q301.8 71.8 301.3 71.5Q300.7 71.1 300.0 71.1L300.0 71.1Q299.4 71.1 299.0 71.3Q298.5 71.5 298.3 71.8Q298.1 72.1 298.1 72.6L298.1 72.6Q298.1 73.0 298.4 73.3Q298.6 73.6 299.0 73.7Q299.4 73.9 299.7 74.0L299.7 74.0L300.6 74.2Q301.0 74.3 301.4 74.5Q301.8 74.6 302.2 74.9Q302.6 75.2 302.8 75.6Q303.1 76.0 303.1 76.6L303.1 76.6Q303.1 77.3 302.7 77.9Q302.3 78.5 301.6 78.8Q300.9 79.2 299.9 79.2ZM307.4 79.1L307.4 79.1Q306.5 79.1 305.8 78.7Q305.1 78.3 304.8 77.5Q304.4 76.8 304.4 75.8L304.4 75.8Q304.4 74.7 304.8 74.0Q305.1 73.2 305.8 72.8Q306.5 72.4 307.4 72.4L307.4 72.4Q307.8 72.4 308.3 72.5Q308.7 72.6 309.0 72.8Q309.4 73.1 309.6 73.4Q309.9 73.8 310.0 74.2L310.0 74.2L309.0 74.5Q308.9 74.2 308.8 74.0Q308.6 73.8 308.4 73.6Q308.2 73.5 308.0 73.4Q307.7 73.3 307.4 73.3L307.4 73.3Q306.7 73.3 306.3 73.7Q305.9 74.0 305.7 74.6Q305.5 75.1 305.5 75.8L305.5 75.8Q305.5 76.4 305.7 77.0Q305.9 77.5 306.3 77.9Q306.7 78.2 307.4 78.2L307.4 78.2Q307.7 78.2 308.0 78.1Q308.2 78.0 308.5 77.9Q308.7 77.7 308.8 77.5Q309.0 77.3 309.0 77.0L309.0 77.0L310.0 77.3Q309.9 77.7 309.7 78.1Q309.4 78.4 309.0 78.6Q308.7 78.9 308.3 79.0Q307.8 79.1 307.4 79.1ZM312.6 79L311.6 79L311.6 72.4L312.6 72.4L312.6 73.5L312.6 73.5Q312.8 73.0 313.3 72.7Q313.8 72.4 314.3 72.4L314.3 72.4Q314.5 72.4 314.6 72.4Q314.8 72.4 314.9 72.4L314.9 72.4L314.9 73.4Q314.8 73.4 314.6 73.4Q314.5 73.4 314.2 73.4L314.2 73.4Q313.8 73.4 313.4 73.6Q313.0 73.8 312.8 74.1Q312.6 74.5 312.6 74.9L312.6 74.9L312.6 79ZM317.1 79L316.1 79L316.1 72.4L317.1 72.4L317.1 79ZM316.6 71.4L316.6 71.4Q316.3 71.4 316.1 71.2Q315.9 71.0 315.9 70.7L315.9 70.7Q315.9 70.4 316.1 70.2Q316.3 70.0 316.6 70.0L316.6 70.0Q316.9 70.0 317.1 70.2Q317.3 70.4 317.3 70.7L317.3 70.7Q317.3 71.0 317.1 71.2Q316.9 71.4 316.6 71.4ZM320.0 81.4L319.0 81.4L319.0 72.4L320.0 72.4L320.0 73.5L320.1 73.5Q320.2 73.3 320.4 73.1Q320.6 72.8 321.0 72.6Q321.4 72.4 322.0 72.4L322.0 72.4Q322.8 72.4 323.5 72.8Q324.1 73.2 324.4 73.9Q324.8 74.7 324.8 75.7L324.8 75.7Q324.8 76.8 324.4 77.5Q324.1 78.3 323.5 78.7Q322.8 79.1 322.0 79.1L322.0 79.1Q321.4 79.1 321.0 78.9Q320.6 78.7 320.4 78.4Q320.2 78.2 320.1 78.0L320.1 78.0L320.0 78.0L320.0 81.4ZM321.9 78.2L321.9 78.2Q322.5 78.2 322.9 77.9Q323.3 77.5 323.5 77.0Q323.7 76.4 323.7 75.7L323.7 75.7Q323.7 75.1 323.5 74.5Q323.3 74.0 322.9 73.6Q322.5 73.3 321.9 73.3L321.9 73.3Q321.3 73.3 320.8 73.6Q320.4 73.9 320.2 74.5Q320.0 75.0 320.0 75.7L320.0 75.7Q320.0 76.5 320.2 77.0Q320.4 77.6 320.9 77.9Q321.3 78.2 321.9 78.2ZM327.6 72.4L328.9 72.4L328.9 73.4L327.6 73.4L327.6 77.3Q327.6 77.7 327.7 77.9Q327.9 78.1 328.3 78.1L328.3 78.1Q328.4 78.1 328.6 78.1Q328.7 78.1 328.9 78.1L328.9 78.1L329.1 79.0Q328.9 79.0 328.7 79.1Q328.5 79.1 328.3 79.1L328.3 79.1Q327.4 79.1 327.0 78.6Q326.5 78.2 326.5 77.4L326.5 77.4L326.5 73.4L325.5 73.4L325.5 72.4L326.5 72.4L326.5 70.9L327.6 70.9L327.6 72.4Z "/></g><defs><clipPath id="satori_bc-id-2-0-1-2" clip-path="url(#satori_cp-id)"><path x="355" y="62" width="39" height="25" d="M361,62 h27 a6,6 0 0 1 6,6 v13 a6,6 0 0 1 -6,6 h-27 a6,6 0 0 1 -6,-6 v-13 a6,6 0 0 1 6,-6"/></clipPath></defs><mask id="satori_om-id-2-0-1-2"><rect x="356" y="63" width="37" height="23" fill="#fff" mask="url(#satori_om-id)"/><path width="39" height="25" fill="none" stroke="#000" stroke-width="2" d="M356.757,63.757 A6,6 0 0 1 361,62 h27 a6,6 0 0 1 6,6 v13 a6,6 0 0 1 -6,6 h-27 a6,6 0 0 1 -6,-6 v-13 A6,6 0 0 1 356.757,63.757"/></mask><path x="355" y="62" width="39" height="25" fill="rgba(255,255,255,0.03)" d="M361,62 h27 a6,6 0 0 1 6,6 v13 a6,6 0 0 1 -6,6 h-27 a6,6 0 0 1 -6,-6 v-13 a6,6 0 0 1 6,-6" clip-path="url(#satori_cp-id)" mask="url(#satori_om-id)"/><path width="39" height="25" clip-path="url(#satori_bc-id-2-0-1-2)" fill="none" stroke="rgba(255,255,255,0.08)" stroke-width="2" d="M356.757,63.757 A6,6 0 0 1 361,62 h27 a6,6 0 0 1 6,6 v13 a6,6 0 0 1 -6,6 h-27 a6,6 0 0 1 -6,-6 v-13 A6,6 0 0 1 356.757,63.757"/><g mask="url(#satori_om-id)" clip-path="url(#satori_cp-id)"><path fill="rgba(255,255,255,0.8)" d="M374.6 79.1L374.6 79.1Q373.5 79.1 372.6 78.6Q371.7 78.0 371.2 77.0Q370.7 76.0 370.7 74.6L370.7 74.6Q370.7 73.3 371.2 72.2Q371.7 71.2 372.6 70.7Q373.5 70.2 374.6 70.2L374.6 70.2Q375.3 70.2 375.8 70.3Q376.4 70.5 376.9 70.9Q377.4 71.3 377.7 71.8Q378.0 72.3 378.1 73.0L378.1 73.0L377.0 73.0Q376.9 72.6 376.7 72.2Q376.5 71.9 376.1 71.7Q375.8 71.4 375.4 71.3Q375.0 71.2 374.6 71.2L374.6 71.2Q373.8 71.2 373.2 71.6Q372.5 72.0 372.2 72.8Q371.8 73.5 371.8 74.6L371.8 74.6Q371.8 75.8 372.2 76.5Q372.5 77.3 373.2 77.7Q373.8 78.1 374.6 78.1L374.6 78.1Q375.0 78.1 375.4 78.0Q375.8 77.8 376.1 77.6Q376.5 77.4 376.7 77.0Q376.9 76.7 377.0 76.3L377.0 76.3L378.1 76.3Q378.0 76.9 377.7 77.4Q377.4 78.0 376.9 78.3Q376.4 78.7 375.8 78.9Q375.3 79.1 374.6 79.1Z "/></g><defs><clipPath id="satori_bc-id-2-0-1-3" clip-path="url(#satori_cp-id)"><path x="404" y="62" width="93" height="25" d="M410,62 h81 a6,6 0 0 1 6,6 v13 a6,6 0 0 1 -6,6 h-81 a6,6 0 0 1 -6,-6 v-13 a6,6 0 0 1 6,-6"/></clipPath></defs><mask id="satori_om-id-2-0-1-3"><rect x="405" y="63" width="91" height="23" fill="#fff" mask="url(#satori_om-id)"/><path width="93" height="25" fill="none" stroke="#000" stroke-width="2" d="M405.757,63.757 A6,6 0 0 1 410,62 h81 a6,6 0 0 1 6,6 v13 a6,6 0 0 1 -6,6 h-81 a6,6 0 0 1 -6,-6 v-13 A6,6 0 0 1 405.757,63.757"/></mask><path x="404" y="62" width="93" height="25" fill="rgba(255,255,255,0.03)" d="M410,62 h81 a6,6 0 0 1 6,6 v13 a6,6 0 0 1 -6,6 h-81 a6,6 0 0 1 -6,-6 v-13 a6,6 0 0 1 6,-6" clip-path="url(#satori_cp-id)" mask="url(#satori_om-id)"/><path width="93" height="25" clip-path="url(#satori_bc-id-2-0-1-3)" fill="none" stroke="rgba(255,255,255,0.08)" stroke-width="2" d="M405.757,63.757 A6,6 0 0 1 410,62 h81 a6,6 0 0 1 6,6 v13 a6,6 0 0 1 -6,6 h-81 a6,6 0 0 1 -6,-6 v-13 A6,6 0 0 1 405.757,63.757"/><g mask="url(#satori_om-id)" clip-path="url(#satori_cp-id)"><path fill="rgba(255,255,255,0.8)" d="M421.2 79L420.1 79L420.1 70.3L421.2 70.3L421.2 74.0L425.8 74.0L425.8 70.3L426.9 70.3L426.9 79L425.8 79L425.8 75.0L421.2 75.0L421.2 79ZM431.2 71.3L428.5 71.3L428.5 70.3L435.1 70.3L435.1 71.3L432.4 71.3L432.4 79L431.2 79L431.2 71.3ZM437.8 79L436.7 79L436.7 70.3L438.3 70.3L440.5 75.8Q440.5 76.0 440.6 76.3Q440.7 76.6 440.8 76.9Q440.9 77.2 441.0 77.6L441.0 77.6Q441.1 77.7 441.1 77.8L441.1 77.8Q441.1 77.7 441.1 77.6L441.1 77.6Q441.2 77.3 441.4 76.9Q441.5 76.6 441.6 76.3Q441.7 76.0 441.7 75.8L441.7 75.8L443.9 70.3L445.4 70.3L445.4 79L444.4 79L444.4 74.0Q444.4 73.7 444.4 73.4Q444.4 73.1 444.4 72.7Q444.4 72.3 444.4 71.9L444.4 71.9Q444.4 71.7 444.4 71.5L444.4 71.5Q444.3 71.7 444.2 72.0L444.2 72.0Q444.1 72.4 444.0 72.8Q443.8 73.2 443.7 73.5Q443.6 73.8 443.5 74.0L443.5 74.0L441.6 79L440.6 79L438.6 74.0Q438.5 73.8 438.4 73.5Q438.3 73.2 438.2 72.8Q438.0 72.4 437.9 72.0L437.9 72.0Q437.8 71.7 437.7 71.5L437.7 71.5Q437.7 71.7 437.8 71.8L437.8 71.8Q437.8 72.2 437.8 72.6Q437.8 73.0 437.8 73.4Q437.8 73.7 437.8 74.0L437.8 74.0L437.8 79ZM452.7 79L447.6 79L447.6 70.3L448.7 70.3L448.7 78.0L452.7 78.0L452.7 79ZM456.4 69.9L457.3 69.9L454.5 80.3L453.6 80.3L456.4 69.9ZM462.2 79.1L462.2 79.1Q461.1 79.1 460.2 78.6Q459.3 78.0 458.8 77.0Q458.3 76.0 458.3 74.6L458.3 74.6Q458.3 73.3 458.8 72.2Q459.3 71.2 460.2 70.7Q461.1 70.2 462.2 70.2L462.2 70.2Q462.9 70.2 463.5 70.3Q464.0 70.5 464.5 70.9Q465.0 71.3 465.3 71.8Q465.6 72.3 465.7 73.0L465.7 73.0L464.6 73.0Q464.5 72.6 464.3 72.2Q464.1 71.9 463.7 71.7Q463.4 71.4 463.0 71.3Q462.6 71.2 462.2 71.2L462.2 71.2Q461.4 71.2 460.8 71.6Q460.2 72.0 459.8 72.8Q459.4 73.5 459.4 74.6L459.4 74.6Q459.4 75.8 459.8 76.5Q460.2 77.3 460.8 77.7Q461.4 78.1 462.2 78.1L462.2 78.1Q462.6 78.1 463.0 78.0Q463.4 77.8 463.7 77.6Q464.1 77.4 464.3 77.0Q464.5 76.7 464.6 76.3L464.6 76.3L465.7 76.3Q465.6 76.9 465.3 77.4Q465.0 78.0 464.5 78.3Q464.0 78.7 463.5 78.9Q462.9 79.1 462.2 79.1ZM470.2 79.2L470.2 79.2Q469.3 79.2 468.6 78.8Q467.9 78.5 467.5 78.0Q467.1 77.4 467.1 76.7L467.1 76.7L468.2 76.7Q468.2 77.2 468.5 77.5Q468.8 77.8 469.3 78.0Q469.7 78.2 470.2 78.2L470.2 78.2Q470.8 78.2 471.3 78.0Q471.8 77.8 472.0 77.4Q472.3 77.1 472.3 76.6L472.3 76.6Q472.3 76.2 472.1 75.9Q471.8 75.7 471.4 75.5Q471.1 75.3 470.6 75.2L470.6 75.2L469.5 74.9Q468.5 74.6 467.9 74.0Q467.3 73.5 467.3 72.6L467.3 72.6Q467.3 71.9 467.7 71.3Q468.1 70.8 468.8 70.5Q469.5 70.2 470.3 70.2L470.3 70.2Q471.2 70.2 471.8 70.5Q472.5 70.8 472.9 71.3Q473.3 71.8 473.3 72.5L473.3 72.5L472.2 72.5Q472.1 71.8 471.6 71.5Q471.0 71.1 470.3 71.1L470.3 71.1Q469.7 71.1 469.3 71.3Q468.9 71.5 468.6 71.8Q468.4 72.1 468.4 72.6L468.4 72.6Q468.4 73.0 468.7 73.3Q469.0 73.6 469.3 73.7Q469.7 73.9 470.1 74.0L470.1 74.0L470.9 74.2Q471.3 74.3 471.7 74.5Q472.1 74.6 472.5 74.9Q472.9 75.2 473.1 75.6Q473.4 76.0 473.4 76.6L473.4 76.6Q473.4 77.3 473.0 77.9Q472.7 78.5 471.9 78.8Q471.2 79.2 470.2 79.2ZM477.9 79.2L477.9 79.2Q477.0 79.2 476.3 78.8Q475.6 78.5 475.2 78.0Q474.8 77.4 474.8 76.7L474.8 76.7L475.9 76.7Q475.9 77.2 476.2 77.5Q476.5 77.8 477.0 78.0Q477.4 78.2 477.9 78.2L477.9 78.2Q478.5 78.2 479.0 78.0Q479.5 77.8 479.7 77.4Q480.0 77.1 480.0 76.6L480.0 76.6Q480.0 76.2 479.8 75.9Q479.5 75.7 479.1 75.5Q478.8 75.3 478.3 75.2L478.3 75.2L477.2 74.9Q476.2 74.6 475.6 74.0Q475.0 73.5 475.0 72.6L475.0 72.6Q475.0 71.9 475.4 71.3Q475.8 70.8 476.5 70.5Q477.2 70.2 478.0 70.2L478.0 70.2Q478.9 70.2 479.5 70.5Q480.2 70.8 480.6 71.3Q481.0 71.8 481.0 72.5L481.0 72.5L479.9 72.5Q479.8 71.8 479.3 71.5Q478.7 71.1 478.0 71.1L478.0 71.1Q477.4 71.1 477.0 71.3Q476.6 71.5 476.3 71.8Q476.1 72.1 476.1 72.6L476.1 72.6Q476.1 73.0 476.4 73.3Q476.7 73.6 477.0 73.7Q477.4 73.9 477.8 74.0L477.8 74.0L478.6 74.2Q479.0 74.3 479.4 74.5Q479.8 74.6 480.2 74.9Q480.6 75.2 480.8 75.6Q481.1 76.0 481.1 76.6L481.1 76.6Q481.1 77.3 480.7 77.9Q480.4 78.5 479.6 78.8Q478.9 79.2 477.9 79.2Z "/></g><mask id="satori_om-id-2-1"><rect x="31" y="103" width="738" height="25" fill="#fff" mask="url(#satori_om-id)"/></mask><mask id="satori_om-id-2-1-0"><rect x="31" y="109" width="120" height="13" fill="#fff" mask="url(#satori_om-id)"/></mask><g mask="url(#satori_om-id)" clip-path="url(#satori_cp-id)"><path fill="#4da6ff" d="M33.4 120L31.7 120L31.7 112.0L37.0 112.0L37.0 113.4L33.4 113.4L33.4 115.6L36.6 115.6L36.6 116.9L33.4 116.9L33.4 120ZM40.8 120L39.2 120L39.2 112.0L42.3 112.0Q43.2 112.0 43.9 112.3Q44.5 112.6 44.8 113.2Q45.2 113.8 45.2 114.6Q45.2 115.4 44.8 116.0Q44.5 116.5 43.8 116.8L43.8 116.8Q43.8 116.9 43.7 116.9L43.7 116.9L45.4 120L43.6 120L42.1 117.1L40.8 117.1L40.8 120ZM40.8 113.4L40.8 115.8L42.0 115.8Q42.5 115.8 42.8 115.7Q43.2 115.5 43.3 115.3Q43.5 115.0 43.5 114.6L43.5 114.6Q43.5 114.2 43.3 113.9Q43.2 113.6 42.8 113.5Q42.5 113.4 42.0 113.4L42.0 113.4L40.8 113.4ZM48.8 120L46.9 120L49.7 112.0L51.8 112.0L54.6 120L52.8 120L52.2 118.1L49.3 118.1L48.8 120ZM49.8 116.9L51.8 116.9L51.5 116.1Q51.3 115.4 51.1 114.5L51.1 114.5Q50.9 113.9 50.7 113.3L50.7 113.3Q50.6 113.9 50.4 114.5L50.4 114.5Q50.2 115.4 50.0 116.1L50.0 116.1L49.8 116.9ZM58.2 120L56.6 120L56.6 112.0L59.1 112.0L60.4 115.7Q60.5 115.9 60.6 116.3Q60.7 116.7 60.8 117.2L60.8 117.2Q60.9 117.7 61.0 118.1L61.0 118.1Q61.1 117.7 61.2 117.2L61.2 117.2Q61.3 116.8 61.4 116.3Q61.5 115.9 61.6 115.7L61.6 115.7L62.9 112.0L65.4 112.0L65.4 120L63.8 120L63.8 116.2Q63.8 116.0 63.8 115.6Q63.8 115.2 63.8 114.7Q63.8 114.3 63.8 113.8L63.8 113.8Q63.8 113.6 63.8 113.4L63.8 113.4Q63.8 113.6 63.7 113.9L63.7 113.9Q63.6 114.3 63.5 114.8Q63.3 115.2 63.2 115.6Q63.1 116.0 63.0 116.2L63.0 116.2L61.7 120L60.3 120L59.0 116.2Q58.9 116.0 58.8 115.6Q58.7 115.2 58.5 114.8Q58.4 114.4 58.3 113.9L58.3 113.9Q58.2 113.7 58.2 113.5L58.2 113.5Q58.2 113.6 58.2 113.8L58.2 113.8Q58.2 114.2 58.2 114.7Q58.2 115.2 58.2 115.6Q58.2 116.0 58.2 116.2L58.2 116.2L58.2 120ZM73.2 120L67.9 120L67.9 112.0L73.2 112.0L73.2 113.4L69.5 113.4L69.5 115.3L72.9 115.3L72.9 116.6L69.5 116.6L69.5 118.6L73.2 118.6L73.2 120ZM79.1 120L77.2 120L75.1 112.0L76.9 112.0L77.8 115.9Q77.9 116.4 78.0 117.0Q78.1 117.6 78.2 118.1L78.2 118.1Q78.2 118.2 78.2 118.4L78.2 118.4Q78.3 118.2 78.3 118.1L78.3 118.1Q78.4 117.6 78.5 117.0Q78.6 116.4 78.7 115.9L78.7 115.9L79.7 112.0L81.4 112.0L82.4 115.9Q82.5 116.4 82.6 117.0Q82.7 117.6 82.8 118.1L82.8 118.1Q82.8 118.2 82.8 118.3L82.8 118.3Q82.8 118.2 82.9 118.1L82.9 118.1Q82.9 117.6 83.0 117.0Q83.1 116.4 83.2 115.9L83.2 115.9L84.2 112.0L86.0 112.0L83.8 120L81.9 120L80.9 115.9Q80.7 115.2 80.6 114.4L80.6 114.4Q80.6 114.2 80.5 114.0L80.5 114.0Q80.5 114.2 80.5 114.4L80.5 114.4Q80.4 115.2 80.2 115.9L80.2 115.9L79.1 120ZM91.5 120.1L91.5 120.1Q90.4 120.1 89.6 119.6Q88.7 119.1 88.2 118.2Q87.7 117.3 87.7 116.0L87.7 116.0Q87.7 114.7 88.2 113.8Q88.7 112.9 89.6 112.4Q90.4 111.9 91.5 111.9L91.5 111.9Q92.5 111.9 93.4 112.4Q94.2 112.9 94.7 113.8Q95.2 114.7 95.2 116.0L95.2 116.0Q95.2 117.3 94.7 118.2Q94.2 119.1 93.4 119.6Q92.5 120.1 91.5 120.1ZM91.5 118.7L91.5 118.7Q92.1 118.7 92.6 118.3Q93.0 118.0 93.3 117.5Q93.5 116.9 93.5 116.0L93.5 116.0Q93.5 115.1 93.3 114.5Q93.0 114.0 92.6 113.6Q92.1 113.3 91.5 113.3L91.5 113.3Q90.9 113.3 90.4 113.7Q89.9 114.0 89.7 114.6Q89.4 115.1 89.4 116.0L89.4 116.0Q89.4 116.9 89.7 117.4Q89.9 118.0 90.4 118.3Q90.9 118.7 91.5 118.7ZM99.1 120L97.4 120L97.4 112.0L100.6 112.0Q101.5 112.0 102.1 112.3Q102.7 112.6 103.1 113.2Q103.4 113.8 103.4 114.6Q103.4 115.4 103.1 116.0Q102.7 116.5 102.1 116.8L102.1 116.8Q102.0 116.9 102.0 116.9L102.0 116.9L103.7 120L101.9 120L100.4 117.1L99.1 117.1L99.1 120ZM99.1 113.4L99.1 115.8L100.3 115.8Q100.8 115.8 101.1 115.7Q101.4 115.5 101.6 115.3Q101.7 115.0 101.7 114.6L101.7 114.6Q101.7 114.2 101.6 113.9Q101.4 113.6 101.1 113.5Q100.8 113.4 100.3 113.4L100.3 113.4L99.1 113.4ZM107.3 120L105.7 120L105.7 112.0L107.3 112.0L107.3 114.2L107.3 116.0Q107.3 115.9 107.4 115.9L107.4 115.9Q107.6 115.5 107.9 115.1Q108.2 114.7 108.5 114.3L108.5 114.3L110.5 112.0L112.5 112.0L109.5 115.5L112.6 120L110.6 120L108.4 116.5L107.3 117.7L107.3 120ZM117.5 120.1L117.5 120.1Q116.5 120.1 115.8 119.8Q115.1 119.5 114.7 118.9Q114.3 118.4 114.3 117.5L114.3 117.5L115.9 117.5Q115.9 117.9 116.1 118.2Q116.4 118.5 116.7 118.6Q117.0 118.7 117.5 118.7L117.5 118.7Q117.9 118.7 118.3 118.6Q118.6 118.5 118.8 118.2Q118.9 118.0 118.9 117.7L118.9 117.7Q118.9 117.4 118.8 117.3Q118.6 117.1 118.3 116.9Q118.0 116.8 117.6 116.7L117.6 116.7L116.7 116.5Q115.7 116.2 115.1 115.7Q114.5 115.2 114.5 114.3L114.5 114.3Q114.5 113.6 114.9 113.0Q115.3 112.5 116.0 112.2Q116.7 111.9 117.5 111.9L117.5 111.9Q118.4 111.9 119.1 112.2Q119.7 112.5 120.1 113.0Q120.5 113.6 120.5 114.3L120.5 114.3L118.9 114.3Q118.9 113.8 118.5 113.5Q118.1 113.3 117.5 113.3L117.5 113.3Q117.1 113.3 116.8 113.4Q116.5 113.5 116.4 113.7Q116.2 113.9 116.2 114.2L116.2 114.2Q116.2 114.5 116.4 114.7Q116.6 114.9 116.8 115.0Q117.1 115.1 117.5 115.2L117.5 115.2L118.2 115.4Q118.7 115.5 119.1 115.7Q119.6 115.9 119.9 116.2Q120.2 116.4 120.4 116.8Q120.6 117.2 120.6 117.7L120.6 117.7Q120.6 118.4 120.2 119.0Q119.9 119.5 119.2 119.8Q118.5 120.1 117.5 120.1Z "/></g><mask id="satori_om-id-2-1-1"><rect x="151" y="103" width="317" height="25" fill="#fff" mask="url(#satori_om-id)"/></mask><defs><clipPath id="satori_bc-id-2-1-1-0" clip-path="url(#satori_cp-id)"><path x="151" y="103" width="63" height="25" d="M157,103 h51 a6,6 0 0 1 6,6 v13 a6,6 0 0 1 -6,6 h-51 a6,6 0 0 1 -6,-6 v-13 a6,6 0 0 1 6,-6"/></clipPath></defs><mask id="satori_om-id-2-1-1-0"><rect x="152" y="104" width="61" height="23" fill="#fff" mask="url(#satori_om-id)"/><path width="63" height="25" fill="none" stroke="#000" stroke-width="2" d="M152.757,104.757 A6,6 0 0 1 157,103 h51 a6,6 0 0 1 6,6 v13 a6,6 0 0 1 -6,6 h-51 a6,6 0 0 1 -6,-6 v-13 A6,6 0 0 1 152.757,104.757"/></mask><path x="151" y="103" width="63" height="25" fill="rgba(255,255,255,0.03)" d="M157,103 h51 a6,6 0 0 1 6,6 v13 a6,6 0 0 1 -6,6 h-51 a6,6 0 0 1 -6,-6 v-13 a6,6 0 0 1 6,-6" clip-path="url(#satori_cp-id)" mask="url(#satori_om-id)"/><path width="63" height="25" clip-path="url(#satori_bc-id-2-1-1-0)" fill="none" stroke="rgba(255,255,255,0.08)" stroke-width="2" d="M152.757,104.757 A6,6 0 0 1 157,103 h51 a6,6 0 0 1 6,6 v13 a6,6 0 0 1 -6,6 h-51 a6,6 0 0 1 -6,-6 v-13 A6,6 0 0 1 152.757,104.757"/><g mask="url(#satori_om-id)" clip-path="url(#satori_cp-id)"><path fill="rgba(255,255,255,0.8)" d="M168.2 120L167.1 120L167.1 111.3L170.0 111.3Q171.1 111.3 171.7 111.6Q172.4 112.0 172.7 112.6Q173.0 113.2 173.0 114.0Q173.0 114.7 172.7 115.3Q172.4 115.9 171.7 116.3L171.7 116.3Q171.6 116.4 171.4 116.4L171.4 116.4L173.4 120L172.1 120L170.3 116.6Q170.2 116.6 170.0 116.6L170.0 116.6L168.2 116.6L168.2 120ZM168.2 112.2L168.2 115.6L170.0 115.6Q170.7 115.6 171.1 115.4Q171.5 115.2 171.7 114.8Q171.9 114.5 171.9 114.0L171.9 114.0Q171.9 113.4 171.7 113.1Q171.5 112.7 171.1 112.5Q170.7 112.2 170.0 112.2L170.0 112.2L168.2 112.2ZM177.4 120.1L177.4 120.1Q176.5 120.1 175.8 119.7Q175.1 119.3 174.7 118.5Q174.3 117.8 174.3 116.8Q174.3 115.8 174.7 115.0Q175.1 114.2 175.7 113.8Q176.4 113.4 177.3 113.4L177.3 113.4Q177.8 113.4 178.3 113.5Q178.8 113.7 179.2 114.1Q179.6 114.5 179.9 115.1Q180.1 115.7 180.1 116.6L180.1 116.6L180.1 117.1L175.4 117.1Q175.4 117.7 175.7 118.2L175.7 118.2Q175.9 118.7 176.4 118.9Q176.8 119.2 177.4 119.2L177.4 119.2Q177.8 119.2 178.1 119.1Q178.4 119.0 178.7 118.8Q178.9 118.5 179.0 118.2L179.0 118.2L180.0 118.5Q179.9 119.0 179.5 119.3Q179.1 119.7 178.6 119.9Q178.1 120.1 177.4 120.1ZM175.4 116.2L175.4 116.2L179.1 116.2Q179.0 115.7 178.9 115.4L178.9 115.4Q178.7 114.9 178.3 114.6Q177.9 114.3 177.3 114.3Q176.7 114.3 176.3 114.6Q175.8 114.9 175.6 115.3L175.6 115.3Q175.4 115.7 175.4 116.2ZM183.5 120.2L183.5 120.2Q182.9 120.2 182.4 119.9Q181.8 119.7 181.5 119.2Q181.2 118.8 181.2 118.1L181.2 118.1Q181.2 117.6 181.5 117.2Q181.7 116.9 182.1 116.7Q182.4 116.5 182.9 116.4Q183.3 116.3 183.8 116.2L183.8 116.2Q184.4 116.1 184.8 116.1Q185.1 116.1 185.3 116.0Q185.5 115.9 185.5 115.6L185.5 115.6L185.5 115.6Q185.5 115.2 185.3 114.9Q185.2 114.6 184.9 114.4Q184.6 114.3 184.1 114.3L184.1 114.3Q183.6 114.3 183.3 114.4Q183.0 114.6 182.8 114.8Q182.6 115.0 182.4 115.3L182.4 115.3L181.4 114.9Q181.7 114.3 182.1 114.0Q182.5 113.6 183.1 113.5Q183.6 113.4 184.1 113.4L184.1 113.4Q184.4 113.4 184.8 113.4Q185.2 113.5 185.6 113.8Q186.0 114.0 186.3 114.5Q186.5 114.9 186.5 115.7L186.5 115.7L186.5 120L185.5 120L185.5 119.1L185.4 119.1Q185.3 119.3 185.1 119.6Q184.8 119.8 184.4 120.0Q184.0 120.2 183.5 120.2ZM183.7 119.2L183.7 119.2Q184.2 119.2 184.7 119.0Q185.1 118.8 185.3 118.4Q185.5 118.0 185.5 117.6L185.5 117.6L185.5 116.7Q185.4 116.8 185.2 116.9Q185.0 116.9 184.7 117.0Q184.4 117.0 184.2 117.0Q183.9 117.1 183.7 117.1L183.7 117.1Q183.4 117.1 183.0 117.3Q182.7 117.4 182.5 117.6Q182.3 117.8 182.3 118.2L182.3 118.2Q182.3 118.5 182.5 118.8Q182.7 119.0 183.0 119.1Q183.3 119.2 183.7 119.2ZM191.0 120.1L191.0 120.1Q190.2 120.1 189.5 119.7Q188.8 119.3 188.4 118.5Q188.1 117.8 188.1 116.8L188.1 116.8Q188.1 115.7 188.4 115.0Q188.8 114.2 189.5 113.8Q190.2 113.4 191.0 113.4L191.0 113.4Q191.5 113.4 191.9 113.5Q192.4 113.6 192.7 113.8Q193.1 114.1 193.3 114.4Q193.6 114.8 193.7 115.2L193.7 115.2L192.7 115.5Q192.6 115.2 192.5 115.0Q192.3 114.8 192.1 114.6Q191.9 114.5 191.6 114.4Q191.4 114.3 191.0 114.3L191.0 114.3Q190.4 114.3 190.0 114.7Q189.5 115.0 189.3 115.6Q189.1 116.1 189.1 116.8L189.1 116.8Q189.1 117.4 189.3 118.0Q189.5 118.5 190.0 118.9Q190.4 119.2 191.0 119.2L191.0 119.2Q191.4 119.2 191.7 119.1Q191.9 119.0 192.1 118.9Q192.4 118.7 192.5 118.5Q192.6 118.3 192.7 118.0L192.7 118.0L193.7 118.3Q193.6 118.7 193.3 119.1Q193.1 119.4 192.7 119.6Q192.4 119.9 192.0 120.0Q191.5 120.1 191.0 120.1ZM196.5 113.4L197.8 113.4L197.8 114.4L196.5 114.4L196.5 118.3Q196.5 118.7 196.6 118.9Q196.8 119.1 197.2 119.1L197.2 119.1Q197.3 119.1 197.5 119.1Q197.7 119.1 197.8 119.1L197.8 119.1L198.0 120.0Q197.8 120.0 197.6 120.1Q197.4 120.1 197.2 120.1L197.2 120.1Q196.4 120.1 195.9 119.6Q195.4 119.2 195.4 118.4L195.4 118.4L195.4 114.4L194.4 114.4L194.4 113.4L195.4 113.4L195.4 111.9L196.5 111.9L196.5 113.4Z "/></g><defs><clipPath id="satori_bc-id-2-1-1-1" clip-path="url(#satori_cp-id)"><path x="224" y="103" width="70" height="25" d="M230,103 h58 a6,6 0 0 1 6,6 v13 a6,6 0 0 1 -6,6 h-58 a6,6 0 0 1 -6,-6 v-13 a6,6 0 0 1 6,-6"/></clipPath></defs><mask id="satori_om-id-2-1-1-1"><rect x="225" y="104" width="68" height="23" fill="#fff" mask="url(#satori_om-id)"/><path width="70" height="25" fill="none" stroke="#000" stroke-width="2" d="M225.757,104.757 A6,6 0 0 1 230,103 h58 a6,6 0 0 1 6,6 v13 a6,6 0 0 1 -6,6 h-58 a6,6 0 0 1 -6,-6 v-13 A6,6 0 0 1 225.757,104.757"/></mask><path x="224" y="103" width="70" height="25" fill="rgba(255,255,255,0.03)" d="M230,103 h58 a6,6 0 0 1 6,6 v13 a6,6 0 0 1 -6,6 h-58 a6,6 0 0 1 -6,-6 v-13 a6,6 0 0 1 6,-6" clip-path="url(#satori_cp-id)" mask="url(#satori_om-id)"/><path width="70" height="25" clip-path="url(#satori_bc-id-2-1-1-1)" fill="none" stroke="rgba(255,255,255,0.08)" stroke-width="2" d="M225.757,104.757 A6,6 0 0 1 230,103 h58 a6,6 0 0 1 6,6 v13 a6,6 0 0 1 -6,6 h-58 a6,6 0 0 1 -6,-6 v-13 A6,6 0 0 1 225.757,104.757"/><g mask="url(#satori_om-id)" clip-path="url(#satori_cp-id)"><path fill="rgba(255,255,255,0.8)" d="M241.2 120L240.1 120L240.1 111.3L241.4 111.3L244.9 116.9Q245.1 117.1 245.3 117.4Q245.5 117.8 245.7 118.2L245.7 118.2Q245.8 118.4 245.9 118.7L245.9 118.7Q245.9 118.4 245.9 118.1L245.9 118.1Q245.9 117.7 245.9 117.3Q245.9 116.9 245.9 116.6L245.9 116.6L245.9 111.3L247.0 111.3L247.0 120L245.7 120L242.5 115.0Q242.3 114.7 242.1 114.3Q241.8 114.0 241.6 113.4L241.6 113.4Q241.4 113.1 241.1 112.6L241.1 112.6Q241.1 113.0 241.1 113.4L241.1 113.4Q241.1 114.0 241.2 114.4Q241.2 114.8 241.2 115.0L241.2 115.0L241.2 120ZM251.7 120.1L251.7 120.1Q250.8 120.1 250.1 119.7Q249.4 119.3 249.0 118.5Q248.7 117.8 248.7 116.8Q248.7 115.8 249.0 115.0Q249.4 114.2 250.0 113.8Q250.7 113.4 251.6 113.4L251.6 113.4Q252.1 113.4 252.6 113.5Q253.1 113.7 253.5 114.1Q254.0 114.5 254.2 115.1Q254.5 115.7 254.5 116.6L254.5 116.6L254.5 117.1L249.7 117.1Q249.7 117.7 250.0 118.2L250.0 118.2Q250.2 118.7 250.7 118.9Q251.1 119.2 251.7 119.2L251.7 119.2Q252.1 119.2 252.4 119.1Q252.7 119.0 253.0 118.8Q253.2 118.5 253.3 118.2L253.3 118.2L254.3 118.5Q254.2 119.0 253.8 119.3Q253.5 119.7 252.9 119.9Q252.4 120.1 251.7 120.1ZM249.7 116.2L249.7 116.2L253.4 116.2Q253.3 115.7 253.2 115.4L253.2 115.4Q253.0 114.9 252.6 114.6Q252.2 114.3 251.6 114.3Q251.0 114.3 250.6 114.6Q250.2 114.9 249.9 115.3L249.9 115.3Q249.8 115.7 249.7 116.2ZM256.6 120L255.4 120L257.7 116.6L255.6 113.4L256.8 113.4L257.6 114.7Q257.9 115.2 258.1 115.6L258.1 115.6Q258.2 115.8 258.3 116.0L258.3 116.0Q258.4 115.8 258.5 115.6L258.5 115.6Q258.7 115.2 259.1 114.7L259.1 114.7L259.9 113.4L261.1 113.4L258.9 116.7L261.2 120L260.0 120L259.0 118.5Q258.7 118.0 258.5 117.6L258.5 117.6Q258.4 117.5 258.3 117.3L258.3 117.3Q258.2 117.5 258.1 117.6L258.1 117.6Q257.9 118.0 257.6 118.5L257.6 118.5L256.6 120ZM263.7 113.4L265.1 113.4L265.1 114.4L263.7 114.4L263.7 118.3Q263.7 118.7 263.9 118.9Q264.1 119.1 264.5 119.1L264.5 119.1Q264.6 119.1 264.8 119.1Q264.9 119.1 265.1 119.1L265.1 119.1L265.3 120.0Q265.1 120.0 264.9 120.1Q264.7 120.1 264.5 120.1L264.5 120.1Q263.6 120.1 263.2 119.6Q262.7 119.2 262.7 118.4L262.7 118.4L262.7 114.4L261.7 114.4L261.7 113.4L262.7 113.4L262.7 111.9L263.7 111.9L263.7 113.4ZM267.2 120.1L267.2 120.1Q266.9 120.1 266.7 119.8Q266.5 119.6 266.5 119.3L266.5 119.3Q266.5 119.0 266.7 118.7Q266.9 118.5 267.2 118.5L267.2 118.5Q267.6 118.5 267.8 118.7Q268.0 119.0 268.0 119.3L268.0 119.3Q268.0 119.6 267.8 119.8Q267.6 120.1 267.2 120.1ZM269.9 120.5L269.9 113.4L271.0 113.4L271.0 120.5Q271.0 121.1 270.7 121.5Q270.5 122.0 270.1 122.2Q269.7 122.4 269.0 122.4L269.0 122.4L268.8 122.4L268.8 121.5L269.0 121.5Q269.5 121.5 269.7 121.2Q269.9 121.0 269.9 120.5L269.9 120.5ZM270.4 112.4L270.4 112.4Q270.1 112.4 269.9 112.2Q269.7 112.0 269.7 111.7L269.7 111.7Q269.7 111.4 269.9 111.2Q270.1 111.0 270.4 111.0L270.4 111.0Q270.7 111.0 270.9 111.2Q271.2 111.4 271.2 111.7L271.2 111.7Q271.2 112.0 270.9 112.2Q270.7 112.4 270.4 112.4ZM275.0 120.1L275.0 120.1Q274.4 120.1 273.8 119.9Q273.3 119.7 273.0 119.4Q272.6 119.0 272.5 118.4L272.5 118.4L273.5 118.2Q273.7 118.7 274.0 119.0Q274.4 119.2 275.0 119.2L275.0 119.2Q275.7 119.2 276.1 118.9Q276.5 118.6 276.5 118.2L276.5 118.2Q276.5 117.9 276.3 117.7Q276.0 117.4 275.6 117.3L275.6 117.3L274.5 117.1Q273.6 116.9 273.1 116.4Q272.7 116.0 272.7 115.3L272.7 115.3Q272.7 114.7 273.0 114.3Q273.3 113.9 273.9 113.6Q274.4 113.4 275.1 113.4L275.1 113.4Q275.8 113.4 276.3 113.6Q276.8 113.8 277.0 114.1Q277.3 114.5 277.5 114.9L277.5 114.9L276.5 115.2Q276.4 114.8 276.1 114.6Q275.8 114.3 275.1 114.3L275.1 114.3Q274.6 114.3 274.2 114.5Q273.8 114.8 273.8 115.2L273.8 115.2Q273.8 115.6 274.0 115.8Q274.3 116.0 274.9 116.2L274.9 116.2L275.9 116.4Q276.8 116.6 277.2 117.0Q277.6 117.5 277.6 118.2L277.6 118.2Q277.6 118.7 277.3 119.2Q277.0 119.6 276.4 119.9Q275.8 120.1 275.0 120.1Z "/></g><defs><clipPath id="satori_bc-id-2-1-1-2" clip-path="url(#satori_cp-id)"><path x="304" y="103" width="76" height="25" d="M310,103 h64 a6,6 0 0 1 6,6 v13 a6,6 0 0 1 -6,6 h-64 a6,6 0 0 1 -6,-6 v-13 a6,6 0 0 1 6,-6"/></clipPath></defs><mask id="satori_om-id-2-1-1-2"><rect x="305" y="104" width="74" height="23" fill="#fff" mask="url(#satori_om-id)"/><path width="76" height="25" fill="none" stroke="#000" stroke-width="2" d="M305.757,104.757 A6,6 0 0 1 310,103 h64 a6,6 0 0 1 6,6 v13 a6,6 0 0 1 -6,6 h-64 a6,6 0 0 1 -6,-6 v-13 A6,6 0 0 1 305.757,104.757"/></mask><path x="304" y="103" width="76" height="25" fill="rgba(255,255,255,0.03)" d="M310,103 h64 a6,6 0 0 1 6,6 v13 a6,6 0 0 1 -6,6 h-64 a6,6 0 0 1 -6,-6 v-13 a6,6 0 0 1 6,-6" clip-path="url(#satori_cp-id)" mask="url(#satori_om-id)"/><path width="76" height="25" clip-path="url(#satori_bc-id-2-1-1-2)" fill="none" stroke="rgba(255,255,255,0.08)" stroke-width="2" d="M305.757,104.757 A6,6 0 0 1 310,103 h64 a6,6 0 0 1 6,6 v13 a6,6 0 0 1 -6,6 h-64 a6,6 0 0 1 -6,-6 v-13 A6,6 0 0 1 305.757,104.757"/><g mask="url(#satori_om-id)" clip-path="url(#satori_cp-id)"><path fill="rgba(255,255,255,0.8)" d="M325.4 120L320.1 120L320.1 111.3L325.4 111.3L325.4 112.3L321.2 112.3L321.2 115.1L325.1 115.1L325.1 116.1L321.2 116.1L321.2 119.0L325.4 119.0L325.4 120ZM327.8 120L326.6 120L328.9 116.6L326.7 113.4L328.0 113.4L328.8 114.7Q329.1 115.2 329.3 115.6L329.3 115.6Q329.4 115.8 329.5 116.0L329.5 116.0Q329.6 115.8 329.7 115.6L329.7 115.6Q329.9 115.2 330.2 114.7L330.2 114.7L331.1 113.4L332.3 113.4L330.1 116.7L332.4 120L331.2 120L330.2 118.5Q329.9 118.0 329.7 117.6L329.7 117.6Q329.6 117.5 329.5 117.3L329.5 117.3Q329.4 117.5 329.3 117.6L329.3 117.6Q329.1 118.0 328.8 118.5L328.8 118.5L327.8 120ZM334.7 122.4L333.7 122.4L333.7 113.4L334.7 113.4L334.7 114.5L334.8 114.5Q334.9 114.3 335.1 114.1Q335.3 113.8 335.7 113.6Q336.1 113.4 336.7 113.4L336.7 113.4Q337.5 113.4 338.2 113.8Q338.8 114.2 339.1 114.9Q339.5 115.7 339.5 116.7L339.5 116.7Q339.5 117.8 339.2 118.5Q338.8 119.3 338.2 119.7Q337.6 120.1 336.7 120.1L336.7 120.1Q336.1 120.1 335.7 119.9Q335.3 119.7 335.1 119.4Q334.9 119.2 334.8 119.0L334.8 119.0L334.7 119.0L334.7 122.4ZM336.6 119.2L336.6 119.2Q337.2 119.2 337.6 118.9Q338.0 118.5 338.2 118.0Q338.4 117.4 338.4 116.7L338.4 116.7Q338.4 116.1 338.2 115.5Q338.0 115.0 337.6 114.6Q337.2 114.3 336.6 114.3L336.6 114.3Q336.0 114.3 335.6 114.6Q335.1 114.9 334.9 115.5Q334.7 116.0 334.7 116.7L334.7 116.7Q334.7 117.5 334.9 118.0Q335.2 118.6 335.6 118.9Q336.0 119.2 336.6 119.2ZM342.1 120L341.0 120L341.0 113.4L342.1 113.4L342.1 114.5L342.1 114.5Q342.3 114.0 342.8 113.7Q343.2 113.4 343.8 113.4L343.8 113.4Q343.9 113.4 344.1 113.4Q344.3 113.4 344.4 113.4L344.4 113.4L344.4 114.4Q344.3 114.4 344.1 114.4Q343.9 114.4 343.7 114.4L343.7 114.4Q343.3 114.4 342.9 114.6Q342.5 114.8 342.3 115.1Q342.1 115.5 342.1 115.9L342.1 115.9L342.1 120ZM348.3 120.1L348.3 120.1Q347.4 120.1 346.7 119.7Q346.0 119.3 345.6 118.5Q345.2 117.8 345.2 116.8Q345.2 115.8 345.6 115.0Q346.0 114.2 346.6 113.8Q347.3 113.4 348.2 113.4L348.2 113.4Q348.7 113.4 349.2 113.5Q349.7 113.7 350.1 114.1Q350.5 114.5 350.8 115.1Q351.0 115.7 351.0 116.6L351.0 116.6L351.0 117.1L346.3 117.1Q346.3 117.7 346.6 118.2L346.6 118.2Q346.8 118.7 347.3 118.9Q347.7 119.2 348.3 119.2L348.3 119.2Q348.7 119.2 349.0 119.1Q349.3 119.0 349.6 118.8Q349.8 118.5 349.9 118.2L349.9 118.2L350.9 118.5Q350.8 119.0 350.4 119.3Q350.1 119.7 349.5 119.9Q349.0 120.1 348.3 120.1ZM346.3 116.2L346.3 116.2L350.0 116.2Q349.9 115.7 349.8 115.4L349.8 115.4Q349.6 114.9 349.2 114.6Q348.8 114.3 348.2 114.3Q347.6 114.3 347.2 114.6Q346.8 114.9 346.5 115.3L346.5 115.3Q346.3 115.7 346.3 116.2ZM354.8 120.1L354.8 120.1Q354.1 120.1 353.6 119.9Q353.1 119.7 352.7 119.4Q352.4 119.0 352.3 118.4L352.3 118.4L353.3 118.2Q353.4 118.7 353.8 119.0Q354.2 119.2 354.8 119.2L354.8 119.2Q355.5 119.2 355.9 118.9Q356.3 118.6 356.3 118.2L356.3 118.2Q356.3 117.9 356.0 117.7Q355.8 117.4 355.3 117.3L355.3 117.3L354.2 117.1Q353.3 116.9 352.9 116.4Q352.5 116.0 352.5 115.3L352.5 115.3Q352.5 114.7 352.8 114.3Q353.1 113.9 353.6 113.6Q354.2 113.4 354.9 113.4L354.9 113.4Q355.6 113.4 356.0 113.6Q356.5 113.8 356.8 114.1Q357.1 114.5 357.2 114.9L357.2 114.9L356.3 115.2Q356.1 114.8 355.8 114.6Q355.5 114.3 354.9 114.3L354.9 114.3Q354.3 114.3 353.9 114.5Q353.5 114.8 353.5 115.2L353.5 115.2Q353.5 115.6 353.8 115.8Q354.1 116.0 354.6 116.2L354.6 116.2L355.6 116.4Q356.5 116.6 356.9 117.0Q357.4 117.5 357.4 118.2L357.4 118.2Q357.4 118.7 357.0 119.2Q356.7 119.6 356.1 119.9Q355.5 120.1 354.8 120.1ZM361.1 120.1L361.1 120.1Q360.4 120.1 359.9 119.9Q359.4 119.7 359.0 119.4Q358.7 119.0 358.6 118.4L358.6 118.4L359.6 118.2Q359.7 118.7 360.1 119.0Q360.5 119.2 361.1 119.2L361.1 119.2Q361.8 119.2 362.2 118.9Q362.6 118.6 362.6 118.2L362.6 118.2Q362.6 117.9 362.4 117.7Q362.1 117.4 361.6 117.3L361.6 117.3L360.5 117.1Q359.7 116.9 359.2 116.4Q358.8 116.0 358.8 115.3L358.8 115.3Q358.8 114.7 359.1 114.3Q359.4 113.9 360.0 113.6Q360.5 113.4 361.2 113.4L361.2 113.4Q361.9 113.4 362.4 113.6Q362.8 113.8 363.1 114.1Q363.4 114.5 363.6 114.9L363.6 114.9L362.6 115.2Q362.5 114.8 362.2 114.6Q361.9 114.3 361.2 114.3L361.2 114.3Q360.6 114.3 360.2 114.5Q359.9 114.8 359.9 115.2L359.9 115.2Q359.9 115.6 360.1 115.8Q360.4 116.0 361.0 116.2L361.0 116.2L361.9 116.4Q362.8 116.6 363.3 117.0Q363.7 117.5 363.7 118.2L363.7 118.2Q363.7 118.7 363.4 119.2Q363.0 119.6 362.5 119.9Q361.9 120.1 361.1 120.1Z "/></g><defs><clipPath id="satori_bc-id-2-1-1-3" clip-path="url(#satori_cp-id)"><path x="390" y="103" width="78" height="25" d="M396,103 h66 a6,6 0 0 1 6,6 v13 a6,6 0 0 1 -6,6 h-66 a6,6 0 0 1 -6,-6 v-13 a6,6 0 0 1 6,-6"/></clipPath></defs><mask id="satori_om-id-2-1-1-3"><rect x="391" y="104" width="76" height="23" fill="#fff" mask="url(#satori_om-id)"/><path width="78" height="25" fill="none" stroke="#000" stroke-width="2" d="M391.757,104.757 A6,6 0 0 1 396,103 h66 a6,6 0 0 1 6,6 v13 a6,6 0 0 1 -6,6 h-66 a6,6 0 0 1 -6,-6 v-13 A6,6 0 0 1 391.757,104.757"/></mask><path x="390" y="103" width="78" height="25" fill="rgba(255,255,255,0.03)" d="M396,103 h66 a6,6 0 0 1 6,6 v13 a6,6 0 0 1 -6,6 h-66 a6,6 0 0 1 -6,-6 v-13 a6,6 0 0 1 6,-6" clip-path="url(#satori_cp-id)" mask="url(#satori_om-id)"/><path width="78" height="25" clip-path="url(#satori_bc-id-2-1-1-3)" fill="none" stroke="rgba(255,255,255,0.08)" stroke-width="2" d="M391.757,104.757 A6,6 0 0 1 396,103 h66 a6,6 0 0 1 6,6 v13 a6,6 0 0 1 -6,6 h-66 a6,6 0 0 1 -6,-6 v-13 A6,6 0 0 1 391.757,104.757"/><g mask="url(#satori_om-id)" clip-path="url(#satori_cp-id)"><path fill="rgba(255,255,255,0.8)" d="M408.3 112.3L405.6 112.3L405.6 111.3L412.2 111.3L412.2 112.3L409.4 112.3L409.4 120L408.3 120L408.3 112.3ZM415.5 120.2L415.5 120.2Q414.9 120.2 414.4 119.9Q413.9 119.7 413.6 119.2Q413.3 118.8 413.3 118.1L413.3 118.1Q413.3 117.6 413.5 117.2Q413.7 116.9 414.1 116.7Q414.5 116.5 414.9 116.4Q415.4 116.3 415.8 116.2L415.8 116.2Q416.4 116.1 416.8 116.1Q417.1 116.1 417.3 116.0Q417.5 115.9 417.5 115.6L417.5 115.6L417.5 115.6Q417.5 115.2 417.4 114.9Q417.2 114.6 416.9 114.4Q416.6 114.3 416.1 114.3L416.1 114.3Q415.7 114.3 415.3 114.4Q415.0 114.6 414.8 114.8Q414.6 115.0 414.5 115.3L414.5 115.3L413.5 114.9Q413.7 114.3 414.1 114.0Q414.6 113.6 415.1 113.5Q415.6 113.4 416.1 113.4L416.1 113.4Q416.4 113.4 416.9 113.4Q417.3 113.5 417.7 113.8Q418.0 114.0 418.3 114.5Q418.6 114.9 418.6 115.7L418.6 115.7L418.6 120L417.5 120L417.5 119.1L417.5 119.1Q417.3 119.3 417.1 119.6Q416.8 119.8 416.5 120.0Q416.1 120.2 415.5 120.2ZM415.7 119.2L415.7 119.2Q416.3 119.2 416.7 119.0Q417.1 118.8 417.3 118.4Q417.5 118.0 417.5 117.6L417.5 117.6L417.5 116.7Q417.4 116.8 417.2 116.9Q417.0 116.9 416.7 117.0Q416.4 117.0 416.2 117.0Q415.9 117.1 415.8 117.1L415.8 117.1Q415.4 117.1 415.1 117.3Q414.7 117.4 414.5 117.6Q414.3 117.8 414.3 118.2L414.3 118.2Q414.3 118.5 414.5 118.8Q414.7 119.0 415.0 119.1Q415.3 119.2 415.7 119.2ZM421.5 120L420.4 120L420.4 113.4L421.5 113.4L421.5 120ZM420.9 112.4L420.9 112.4Q420.6 112.4 420.4 112.2Q420.2 112.0 420.2 111.7L420.2 111.7Q420.2 111.4 420.4 111.2Q420.6 111.0 420.9 111.0L420.9 111.0Q421.2 111.0 421.5 111.2Q421.7 111.4 421.7 111.7L421.7 111.7Q421.7 112.0 421.5 112.2Q421.2 112.4 420.9 112.4ZM423.3 111.3L424.4 111.3L424.4 120L423.3 120L423.3 111.3ZM428.7 120L427.7 120L425.7 113.4L426.8 113.4L427.6 116.3Q427.8 116.9 428.0 117.6L428.0 117.6Q428.1 118.2 428.3 118.9L428.3 118.9Q428.4 118.2 428.5 117.7L428.5 117.7Q428.7 116.9 428.9 116.3L428.9 116.3L429.7 113.4L430.8 113.4L431.6 116.3Q431.7 116.9 431.9 117.7L431.9 117.7Q432.0 118.2 432.2 118.9L432.2 118.9Q432.3 118.2 432.4 117.7L432.4 117.7Q432.6 116.9 432.8 116.3L432.8 116.3L433.6 113.4L434.7 113.4L432.7 120L431.7 120L430.8 117.0Q430.7 116.6 430.6 116.1Q430.4 115.6 430.3 115.2L430.3 115.2Q430.3 114.9 430.2 114.6L430.2 114.6Q430.1 114.9 430.1 115.1L430.1 115.1Q430.0 115.6 429.8 116.1Q429.7 116.6 429.6 117.0L429.6 117.0L428.7 120ZM437.1 120L436.0 120L436.0 113.4L437.1 113.4L437.1 120ZM436.6 112.4L436.6 112.4Q436.3 112.4 436.1 112.2Q435.8 112.0 435.8 111.7L435.8 111.7Q435.8 111.4 436.1 111.2Q436.3 111.0 436.6 111.0L436.6 111.0Q436.9 111.0 437.1 111.2Q437.3 111.4 437.3 111.7L437.3 111.7Q437.3 112.0 437.1 112.2Q436.9 112.4 436.6 112.4ZM440.0 116.1L440.0 116.1L440.0 120L438.9 120L438.9 113.4L440.0 113.4L440.0 114.7Q440.2 114.0 440.7 113.7L440.7 113.7Q441.2 113.4 442.0 113.4L442.0 113.4Q442.6 113.4 443.1 113.6Q443.6 113.9 443.9 114.5Q444.2 115.0 444.2 115.8L444.2 115.8L444.2 120L443.1 120L443.1 115.9Q443.1 115.2 442.7 114.7Q442.3 114.3 441.7 114.3L441.7 114.3Q441.2 114.3 440.8 114.5Q440.4 114.7 440.2 115.1Q440.0 115.5 440.0 116.1ZM448.5 120.1L448.5 120.1Q447.7 120.1 447.1 119.7Q446.4 119.3 446.1 118.5Q445.7 117.8 445.7 116.7L445.7 116.7Q445.7 115.7 446.1 114.9Q446.4 114.2 447.1 113.8Q447.7 113.4 448.5 113.4L448.5 113.4Q449.1 113.4 449.5 113.6Q449.9 113.8 450.1 114.1Q450.3 114.3 450.4 114.5L450.4 114.5L450.5 114.5L450.5 111.3L451.5 111.3L451.5 120L450.5 120L450.5 119.0L450.4 119.0Q450.3 119.2 450.1 119.4Q449.9 119.7 449.5 119.9Q449.1 120.1 448.5 120.1ZM448.7 119.2L448.7 119.2Q449.3 119.2 449.7 118.9Q450.1 118.6 450.3 118.0Q450.5 117.5 450.5 116.7L450.5 116.7Q450.5 116.0 450.3 115.5Q450.1 114.9 449.7 114.6Q449.3 114.3 448.7 114.3L448.7 114.3Q448.0 114.3 447.6 114.6Q447.2 115.0 447 115.5Q446.8 116.1 446.8 116.7L446.8 116.7Q446.8 117.4 447.0 118.0Q447.2 118.5 447.6 118.9Q448.0 119.2 448.7 119.2Z "/></g><mask id="satori_om-id-2-2"><rect x="31" y="144" width="738" height="25" fill="#fff" mask="url(#satori_om-id)"/></mask><mask id="satori_om-id-2-2-0"><rect x="31" y="150" width="120" height="13" fill="#fff" mask="url(#satori_om-id)"/></mask><g mask="url(#satori_om-id)" clip-path="url(#satori_cp-id)"><path fill="#ffb347" d="M31.7 153.0L33.4 153.0L33.4 161L31.7 161L31.7 153.0ZM37.5 161L35.8 161L35.8 153.0L37.6 153.0L40.2 157.0Q40.4 157.4 40.6 157.7Q40.8 158.1 41.0 158.5L41.0 158.5Q41.1 158.8 41.2 159.0L41.2 159.0Q41.2 158.8 41.1 158.6L41.1 158.6Q41.1 158.1 41.1 157.6Q41.1 157.2 41.1 156.8L41.1 156.8L41.1 153.0L42.7 153.0L42.7 161L40.9 161L38.6 157.3Q38.4 156.9 38.1 156.5Q37.9 156.1 37.7 155.7L37.7 155.7Q37.6 155.4 37.4 155.0L37.4 155.0Q37.4 155.3 37.4 155.7L37.4 155.7Q37.5 156.2 37.5 156.6Q37.5 157.0 37.5 157.3L37.5 157.3L37.5 161ZM46.8 161L45.2 161L45.2 153.0L50.5 153.0L50.5 154.4L46.8 154.4L46.8 156.6L50.1 156.6L50.1 157.9L46.8 157.9L46.8 161ZM54.3 161L52.7 161L52.7 153.0L55.8 153.0Q56.7 153.0 57.3 153.3Q58.0 153.6 58.3 154.2Q58.6 154.8 58.6 155.6Q58.6 156.4 58.3 157.0Q58.0 157.5 57.3 157.8L57.3 157.8Q57.3 157.9 57.2 157.9L57.2 157.9L58.9 161L57.1 161L55.6 158.1L54.3 158.1L54.3 161ZM54.3 154.4L54.3 156.8L55.5 156.8Q56.0 156.8 56.3 156.7Q56.6 156.5 56.8 156.3Q56.9 156.0 56.9 155.6L56.9 155.6Q56.9 155.2 56.8 154.9Q56.6 154.6 56.3 154.5Q56.0 154.4 55.5 154.4L55.5 154.4L54.3 154.4ZM62.2 161L60.4 161L63.1 153.0L65.3 153.0L68.1 161L66.3 161L65.7 159.1L62.8 159.1L62.2 161ZM63.2 157.9L65.2 157.9L65.0 157.1Q64.8 156.4 64.5 155.5L64.5 155.5Q64.4 154.9 64.2 154.3L64.2 154.3Q64.0 154.9 63.9 155.5L63.9 155.5Q63.7 156.4 63.5 157.1L63.5 157.1L63.2 157.9ZM72.1 152.6L73.5 152.6L70.9 162.2L69.5 162.2L72.1 152.6ZM77.5 154.4L75.0 154.4L75.0 153.0L81.6 153.0L81.6 154.4L79.1 154.4L79.1 161L77.5 161L77.5 154.4ZM87.2 161.1L87.2 161.1Q86.2 161.1 85.3 160.6Q84.5 160.1 84.0 159.2Q83.5 158.3 83.5 157.0L83.5 157.0Q83.5 155.7 84.0 154.8Q84.5 153.9 85.3 153.4Q86.2 152.9 87.2 152.9L87.2 152.9Q88.3 152.9 89.1 153.4Q90.0 153.9 90.5 154.8Q90.9 155.7 90.9 157.0L90.9 157.0Q90.9 158.3 90.5 159.2Q90.0 160.1 89.1 160.6Q88.3 161.1 87.2 161.1ZM87.2 159.7L87.2 159.7Q87.8 159.7 88.3 159.3Q88.8 159.0 89.0 158.5Q89.3 157.9 89.3 157.0L89.3 157.0Q89.3 156.1 89.0 155.5Q88.8 155.0 88.3 154.6Q87.8 154.3 87.2 154.3L87.2 154.3Q86.6 154.3 86.1 154.7Q85.7 155.0 85.4 155.6Q85.1 156.1 85.1 157.0L85.1 157.0Q85.1 157.9 85.4 158.4Q85.7 159.0 86.1 159.3Q86.6 159.7 87.2 159.7ZM96.7 161.1L96.7 161.1Q95.6 161.1 94.8 160.6Q93.9 160.1 93.4 159.2Q93.0 158.3 93.0 157.0L93.0 157.0Q93.0 155.7 93.4 154.8Q93.9 153.9 94.8 153.4Q95.6 152.9 96.7 152.9L96.7 152.9Q97.8 152.9 98.6 153.4Q99.4 153.9 99.9 154.8Q100.4 155.7 100.4 157.0L100.4 157.0Q100.4 158.3 99.9 159.2Q99.4 160.1 98.6 160.6Q97.8 161.1 96.7 161.1ZM96.7 159.7L96.7 159.7Q97.3 159.7 97.8 159.3Q98.2 159.0 98.5 158.5Q98.8 157.9 98.8 157.0L98.8 157.0Q98.8 156.1 98.5 155.5Q98.2 155.0 97.8 154.6Q97.3 154.3 96.7 154.3L96.7 154.3Q96.1 154.3 95.6 154.7Q95.1 155.0 94.9 155.6Q94.6 156.1 94.6 157.0L94.6 157.0Q94.6 157.9 94.9 158.4Q95.1 159.0 95.6 159.3Q96.1 159.7 96.7 159.7ZM107.7 161L102.7 161L102.7 153.0L104.3 153.0L104.3 159.6L107.7 159.6L107.7 161ZM112.8 161.1L112.8 161.1Q111.8 161.1 111.1 160.8Q110.4 160.5 110.0 159.9Q109.6 159.4 109.6 158.5L109.6 158.5L111.2 158.5Q111.2 158.9 111.4 159.2Q111.7 159.5 112.0 159.6Q112.3 159.7 112.8 159.7L112.8 159.7Q113.2 159.7 113.6 159.6Q113.9 159.5 114.1 159.2Q114.2 159.0 114.2 158.7L114.2 158.7Q114.2 158.4 114.1 158.3Q113.9 158.1 113.6 157.9Q113.3 157.8 112.9 157.7L112.9 157.7L112.0 157.5Q111.0 157.2 110.4 156.7Q109.8 156.2 109.8 155.3L109.8 155.3Q109.8 154.6 110.2 154.0Q110.6 153.5 111.3 153.2Q112.0 152.9 112.8 152.9L112.8 152.9Q113.7 152.9 114.4 153.2Q115.0 153.5 115.4 154.0Q115.8 154.6 115.8 155.3L115.8 155.3L114.2 155.3Q114.2 154.8 113.8 154.5Q113.4 154.3 112.8 154.3L112.8 154.3Q112.4 154.3 112.1 154.4Q111.8 154.5 111.7 154.7Q111.5 154.9 111.5 155.2L111.5 155.2Q111.5 155.5 111.7 155.7Q111.9 155.9 112.2 156.0Q112.4 156.1 112.8 156.2L112.8 156.2L113.5 156.4Q114.0 156.5 114.4 156.7Q114.9 156.9 115.2 157.2Q115.5 157.4 115.7 157.8Q115.9 158.2 115.9 158.7L115.9 158.7Q115.9 159.4 115.5 160.0Q115.2 160.5 114.5 160.8Q113.8 161.1 112.8 161.1Z "/></g><mask id="satori_om-id-2-2-1"><rect x="151" y="144" width="311" height="25" fill="#fff" mask="url(#satori_om-id)"/></mask><defs><clipPath id="satori_bc-id-2-2-1-0" clip-path="url(#satori_cp-id)"><path x="151" y="144" width="91" height="25" d="M157,144 h79 a6,6 0 0 1 6,6 v13 a6,6 0 0 1 -6,6 h-79 a6,6 0 0 1 -6,-6 v-13 a6,6 0 0 1 6,-6"/></clipPath></defs><mask id="satori_om-id-2-2-1-0"><rect x="152" y="145" width="89" height="23" fill="#fff" mask="url(#satori_om-id)"/><path width="91" height="25" fill="none" stroke="#000" stroke-width="2" d="M152.757,145.757 A6,6 0 0 1 157,144 h79 a6,6 0 0 1 6,6 v13 a6,6 0 0 1 -6,6 h-79 a6,6 0 0 1 -6,-6 v-13 A6,6 0 0 1 152.757,145.757"/></mask><path x="151" y="144" width="91" height="25" fill="rgba(255,255,255,0.03)" d="M157,144 h79 a6,6 0 0 1 6,6 v13 a6,6 0 0 1 -6,6 h-79 a6,6 0 0 1 -6,-6 v-13 a6,6 0 0 1 6,-6" clip-path="url(#satori_cp-id)" mask="url(#satori_om-id)"/><path width="91" height="25" clip-path="url(#satori_bc-id-2-2-1-0)" fill="none" stroke="rgba(255,255,255,0.08)" stroke-width="2" d="M152.757,145.757 A6,6 0 0 1 157,144 h79 a6,6 0 0 1 6,6 v13 a6,6 0 0 1 -6,6 h-79 a6,6 0 0 1 -6,-6 v-13 A6,6 0 0 1 152.757,145.757"/><g mask="url(#satori_om-id)" clip-path="url(#satori_cp-id)"><path fill="rgba(255,255,255,0.8)" d="M167.5 161L166.3 161L169.5 152.3L170.8 152.3L174.0 161L172.8 161L171.9 158.6L168.3 158.6L167.5 161ZM168.7 157.6L171.6 157.6L171.0 155.8Q170.8 155.3 170.6 154.6L170.6 154.6Q170.4 154.0 170.1 153.2L170.1 153.2Q169.9 154.0 169.7 154.6L169.7 154.6Q169.4 155.4 169.3 155.8L169.3 155.8L168.7 157.6ZM176.3 161L175.2 161L175.2 154.4L176.2 154.4L176.2 155.5L176.3 155.5Q176.5 155.0 176.9 154.7Q177.4 154.4 178.0 154.4L178.0 154.4Q178.1 154.4 178.3 154.4Q178.4 154.4 178.5 154.4L178.5 154.4L178.5 155.4Q178.5 155.4 178.3 155.4Q178.1 155.4 177.9 155.4L177.9 155.4Q177.4 155.4 177.1 155.6Q176.7 155.8 176.5 156.1Q176.3 156.5 176.3 156.9L176.3 156.9L176.3 161ZM182.4 161.1L182.4 161.1Q181.5 161.1 180.8 160.7Q180.2 160.3 179.8 159.5Q179.4 158.8 179.4 157.8L179.4 157.8Q179.4 156.7 179.8 156.0Q180.2 155.2 180.8 154.8Q181.5 154.4 182.4 154.4L182.4 154.4Q182.9 154.4 183.3 154.5Q183.7 154.6 184.1 154.8Q184.4 155.1 184.7 155.4Q184.9 155.8 185.0 156.2L185.0 156.2L184.0 156.5Q184.0 156.2 183.8 156.0Q183.7 155.8 183.5 155.6Q183.3 155.5 183.0 155.4Q182.7 155.3 182.4 155.3L182.4 155.3Q181.7 155.3 181.3 155.7Q180.9 156.0 180.7 156.6Q180.5 157.1 180.5 157.8L180.5 157.8Q180.5 158.4 180.7 159.0Q180.9 159.5 181.3 159.9Q181.7 160.2 182.4 160.2L182.4 160.2Q182.7 160.2 183.0 160.1Q183.3 160.0 183.5 159.9Q183.7 159.7 183.8 159.5Q184.0 159.3 184.1 159.0L184.1 159.0L185.1 159.3Q184.9 159.7 184.7 160.1Q184.4 160.4 184.1 160.6Q183.7 160.9 183.3 161.0Q182.9 161.1 182.4 161.1ZM187.6 157.1L187.6 157.1L187.6 161L186.6 161L186.6 152.3L187.6 152.3L187.6 155.6Q187.9 155.0 188.3 154.7L188.3 154.7Q188.9 154.4 189.6 154.4L189.6 154.4Q190.3 154.4 190.8 154.6Q191.3 154.9 191.5 155.5Q191.8 156.0 191.8 156.8L191.8 156.8L191.8 161L190.8 161L190.8 156.9Q190.8 156.2 190.4 155.7Q190.0 155.3 189.3 155.3L189.3 155.3Q188.8 155.3 188.4 155.5Q188.1 155.7 187.8 156.1Q187.6 156.5 187.6 157.1Z M202.3 161L197.2 161L197.2 152.3L198.3 152.3L198.3 160.0L202.3 160.0L202.3 161ZM204.9 161L203.8 161L203.8 154.4L204.9 154.4L204.9 161ZM204.4 153.4L204.4 153.4Q204.1 153.4 203.9 153.2Q203.6 153.0 203.6 152.7L203.6 152.7Q203.6 152.4 203.9 152.2Q204.1 152.0 204.4 152.0L204.4 152.0Q204.7 152.0 204.9 152.2Q205.1 152.4 205.1 152.7L205.1 152.7Q205.1 153.0 204.9 153.2Q204.7 153.4 204.4 153.4ZM207.8 157.1L207.8 157.1L207.8 161L206.7 161L206.7 154.4L207.8 154.4L207.8 155.7Q208.0 155.0 208.5 154.7L208.5 154.7Q209.0 154.4 209.8 154.4L209.8 154.4Q210.4 154.4 210.9 154.6Q211.4 154.9 211.7 155.5Q212.0 156.0 212.0 156.8L212.0 156.8L212.0 161L210.9 161L210.9 156.9Q210.9 156.2 210.5 155.7Q210.1 155.3 209.4 155.3L209.4 155.3Q209.0 155.3 208.6 155.5Q208.2 155.7 208.0 156.1Q207.8 156.5 207.8 157.1ZM216.1 161.1L216.1 161.1Q215.4 161.1 214.9 160.8Q214.4 160.5 214.1 160.0Q213.8 159.4 213.8 158.6L213.8 158.6L213.8 154.4L214.9 154.4L214.9 158.5Q214.9 159.3 215.3 159.7Q215.7 160.1 216.4 160.1L216.4 160.1Q216.8 160.1 217.2 159.9Q217.6 159.7 217.8 159.3Q218.0 158.9 218.0 158.4L218.0 158.4L218.0 154.4L219.1 154.4L219.1 161L218.1 161L218.1 159.8Q217.8 160.4 217.3 160.7L217.3 160.7Q216.8 161.1 216.1 161.1ZM221.6 161L220.4 161L222.7 157.6L220.5 154.4L221.7 154.4L222.6 155.7Q222.9 156.2 223.1 156.6L223.1 156.6Q223.2 156.8 223.3 157.0L223.3 157.0Q223.4 156.8 223.5 156.6L223.5 156.6Q223.7 156.2 224.0 155.7L224.0 155.7L224.9 154.4L226.1 154.4L223.9 157.7L226.2 161L224.9 161L224.0 159.5Q223.7 159.0 223.5 158.6L223.5 158.6Q223.4 158.5 223.3 158.3L223.3 158.3Q223.2 158.5 223.1 158.6L223.1 158.6Q222.9 159.0 222.6 159.5L222.6 159.5L221.6 161Z "/></g><defs><clipPath id="satori_bc-id-2-2-1-1" clip-path="url(#satori_cp-id)"><path x="252" y="144" width="46" height="25" d="M258,144 h34 a6,6 0 0 1 6,6 v13 a6,6 0 0 1 -6,6 h-34 a6,6 0 0 1 -6,-6 v-13 a6,6 0 0 1 6,-6"/></clipPath></defs><mask id="satori_om-id-2-2-1-1"><rect x="253" y="145" width="44" height="23" fill="#fff" mask="url(#satori_om-id)"/><path width="46" height="25" fill="none" stroke="#000" stroke-width="2" d="M253.757,145.757 A6,6 0 0 1 258,144 h34 a6,6 0 0 1 6,6 v13 a6,6 0 0 1 -6,6 h-34 a6,6 0 0 1 -6,-6 v-13 A6,6 0 0 1 253.757,145.757"/></mask><path x="252" y="144" width="46" height="25" fill="rgba(255,255,255,0.03)" d="M258,144 h34 a6,6 0 0 1 6,6 v13 a6,6 0 0 1 -6,6 h-34 a6,6 0 0 1 -6,-6 v-13 a6,6 0 0 1 6,-6" clip-path="url(#satori_cp-id)" mask="url(#satori_om-id)"/><path width="46" height="25" clip-path="url(#satori_bc-id-2-2-1-1)" fill="none" stroke="rgba(255,255,255,0.08)" stroke-width="2" d="M253.757,145.757 A6,6 0 0 1 258,144 h34 a6,6 0 0 1 6,6 v13 a6,6 0 0 1 -6,6 h-34 a6,6 0 0 1 -6,-6 v-13 A6,6 0 0 1 253.757,145.757"/><g mask="url(#satori_om-id)" clip-path="url(#satori_cp-id)"><path fill="rgba(255,255,255,0.8)" d="M271.6 161.1L271.6 161.1Q270.5 161.1 269.6 160.6Q268.7 160.0 268.2 159.0Q267.7 158.0 267.7 156.6L267.7 156.6Q267.7 155.3 268.2 154.2Q268.7 153.2 269.6 152.7Q270.4 152.2 271.6 152.2L271.6 152.2Q272.2 152.2 272.8 152.4Q273.4 152.6 273.9 152.9Q274.4 153.3 274.7 153.8Q275.0 154.4 275.1 155.0L275.1 155.0L274.0 155.0Q273.9 154.6 273.6 154.3Q273.4 153.9 273.1 153.7Q272.8 153.4 272.4 153.3Q272.0 153.2 271.6 153.2L271.6 153.2Q270.8 153.2 270.2 153.6Q269.5 154.0 269.2 154.7Q268.8 155.5 268.8 156.6L268.8 156.6Q268.8 157.8 269.2 158.5Q269.5 159.3 270.2 159.7Q270.8 160.1 271.6 160.1L271.6 160.1Q272.4 160.1 272.9 159.8Q273.5 159.5 273.8 158.9L273.8 158.9Q274.1 158.3 274.1 157.6L274.1 157.6L271.9 157.6L271.9 156.6L275.2 156.6L275.2 157.6Q275.2 158.7 274.7 159.4Q274.3 160.2 273.5 160.7Q272.7 161.1 271.6 161.1ZM277.9 161L276.9 161L276.9 154.4L277.9 154.4L277.9 161ZM277.4 153.4L277.4 153.4Q277.1 153.4 276.9 153.2Q276.7 153.0 276.7 152.7L276.7 152.7Q276.7 152.4 276.9 152.2Q277.1 152.0 277.4 152.0L277.4 152.0Q277.7 152.0 277.9 152.2Q278.2 152.4 278.2 152.7L278.2 152.7Q278.2 153.0 277.9 153.2Q277.7 153.4 277.4 153.4ZM281.0 154.4L282.4 154.4L282.4 155.4L281.0 155.4L281.0 159.3Q281.0 159.7 281.2 159.9Q281.4 160.1 281.8 160.1L281.8 160.1Q281.9 160.1 282.0 160.1Q282.2 160.1 282.3 160.1L282.3 160.1L282.5 161.0Q282.4 161.0 282.2 161.1Q282.0 161.1 281.8 161.1L281.8 161.1Q280.9 161.1 280.4 160.6Q280.0 160.2 280.0 159.4L280.0 159.4L280.0 155.4L279.0 155.4L279.0 154.4L280.0 154.4L280.0 152.9L281.0 152.9L281.0 154.4Z "/></g><defs><clipPath id="satori_bc-id-2-2-1-2" clip-path="url(#satori_cp-id)"><path x="308" y="144" width="79" height="25" d="M314,144 h67 a6,6 0 0 1 6,6 v13 a6,6 0 0 1 -6,6 h-67 a6,6 0 0 1 -6,-6 v-13 a6,6 0 0 1 6,-6"/></clipPath></defs><mask id="satori_om-id-2-2-1-2"><rect x="309" y="145" width="77" height="23" fill="#fff" mask="url(#satori_om-id)"/><path width="79" height="25" fill="none" stroke="#000" stroke-width="2" d="M309.757,145.757 A6,6 0 0 1 314,144 h67 a6,6 0 0 1 6,6 v13 a6,6 0 0 1 -6,6 h-67 a6,6 0 0 1 -6,-6 v-13 A6,6 0 0 1 309.757,145.757"/></mask><path x="308" y="144" width="79" height="25" fill="rgba(255,255,255,0.03)" d="M314,144 h67 a6,6 0 0 1 6,6 v13 a6,6 0 0 1 -6,6 h-67 a6,6 0 0 1 -6,-6 v-13 a6,6 0 0 1 6,-6" clip-path="url(#satori_cp-id)" mask="url(#satori_om-id)"/><path width="79" height="25" clip-path="url(#satori_bc-id-2-2-1-2)" fill="none" stroke="rgba(255,255,255,0.08)" stroke-width="2" d="M309.757,145.757 A6,6 0 0 1 314,144 h67 a6,6 0 0 1 6,6 v13 a6,6 0 0 1 -6,6 h-67 a6,6 0 0 1 -6,-6 v-13 A6,6 0 0 1 309.757,145.757"/><g mask="url(#satori_om-id)" clip-path="url(#satori_cp-id)"><path fill="rgba(255,255,255,0.8)" d="M325.2 161L324.1 161L324.1 152.3L329.3 152.3L329.3 153.3L325.2 153.3L325.2 156.2L328.9 156.2L328.9 157.2L325.2 157.2L325.2 161ZM332.1 161L331.0 161L331.0 154.4L332.1 154.4L332.1 161ZM331.5 153.4L331.5 153.4Q331.2 153.4 331.0 153.2Q330.8 153.0 330.8 152.7L330.8 152.7Q330.8 152.4 331.0 152.2Q331.2 152.0 331.5 152.0L331.5 152.0Q331.8 152.0 332.1 152.2Q332.3 152.4 332.3 152.7L332.3 152.7Q332.3 153.0 332.1 153.2Q331.8 153.4 331.5 153.4ZM335.0 161L333.9 161L333.9 154.4L334.9 154.4L334.9 155.5L335.0 155.5Q335.2 155.0 335.7 154.7Q336.1 154.4 336.7 154.4L336.7 154.4Q336.8 154.4 337.0 154.4Q337.1 154.4 337.2 154.4L337.2 154.4L337.2 155.4Q337.2 155.4 337.0 155.4Q336.8 155.4 336.6 155.4L336.6 155.4Q336.1 155.4 335.8 155.6Q335.4 155.8 335.2 156.1Q335.0 156.5 335.0 156.9L335.0 156.9L335.0 161ZM341.2 161.1L341.2 161.1Q340.2 161.1 339.5 160.7Q338.9 160.3 338.5 159.5Q338.1 158.8 338.1 157.8Q338.1 156.8 338.5 156.0Q338.8 155.2 339.5 154.8Q340.2 154.4 341.1 154.4L341.1 154.4Q341.6 154.4 342.1 154.5Q342.6 154.7 343.0 155.1Q343.4 155.5 343.7 156.1Q343.9 156.7 343.9 157.6L343.9 157.6L343.9 158.1L339.2 158.1Q339.2 158.7 339.4 159.2L339.4 159.2Q339.7 159.7 340.1 159.9Q340.6 160.2 341.2 160.2L341.2 160.2Q341.6 160.2 341.9 160.1Q342.2 160.0 342.4 159.8Q342.7 159.5 342.8 159.2L342.8 159.2L343.8 159.5Q343.7 160.0 343.3 160.3Q342.9 160.7 342.4 160.9Q341.9 161.1 341.2 161.1ZM339.2 157.2L339.2 157.2L342.8 157.2Q342.8 156.7 342.7 156.4L342.7 156.4Q342.5 155.9 342.1 155.6Q341.7 155.3 341.1 155.3Q340.5 155.3 340.1 155.6Q339.6 155.9 339.4 156.3L339.4 156.3Q339.2 156.7 339.2 157.2ZM348.5 161.1L348.5 161.1Q347.8 161.1 347.5 160.9Q347.1 160.7 346.9 160.4Q346.7 160.2 346.6 160.0L346.6 160.0L346.4 160.0L346.4 161L345.4 161L345.4 152.3L346.5 152.3L346.5 155.5L346.6 155.5Q346.7 155.3 346.9 155.1Q347.1 154.8 347.5 154.6Q347.8 154.4 348.5 154.4L348.5 154.4Q349.3 154.4 349.9 154.8Q350.5 155.2 350.9 155.9Q351.2 156.7 351.2 157.7L351.2 157.7Q351.2 158.8 350.9 159.5Q350.5 160.3 349.9 160.7Q349.3 161.1 348.5 161.1ZM348.3 160.2L348.3 160.2Q348.9 160.2 349.3 159.9Q349.8 159.5 350.0 159.0Q350.2 158.4 350.2 157.7L350.2 157.7Q350.2 157.1 350.0 156.5Q349.8 156.0 349.3 155.6Q348.9 155.3 348.3 155.3L348.3 155.3Q347.7 155.3 347.3 155.6Q346.9 155.9 346.7 156.5Q346.5 157.0 346.5 157.7L346.5 157.7Q346.5 158.5 346.7 159.0Q346.9 159.6 347.3 159.9Q347.7 160.2 348.3 160.2ZM354.6 161.2L354.6 161.2Q354.0 161.2 353.5 160.9Q353.0 160.7 352.7 160.2Q352.4 159.8 352.4 159.1L352.4 159.1Q352.4 158.6 352.6 158.2Q352.8 157.9 353.2 157.7Q353.6 157.5 354.0 157.4Q354.5 157.3 354.9 157.2L354.9 157.2Q355.5 157.1 355.9 157.1Q356.3 157.1 356.4 157.0Q356.6 156.9 356.6 156.6L356.6 156.6L356.6 156.6Q356.6 156.2 356.5 155.9Q356.3 155.6 356 155.4Q355.7 155.3 355.2 155.3L355.2 155.3Q354.8 155.3 354.4 155.4Q354.1 155.6 353.9 155.8Q353.7 156.0 353.6 156.3L353.6 156.3L352.6 155.9Q352.8 155.3 353.2 155.0Q353.7 154.6 354.2 154.5Q354.7 154.4 355.2 154.4L355.2 154.4Q355.5 154.4 356.0 154.4Q356.4 154.5 356.8 154.8Q357.2 155.0 357.4 155.5Q357.7 155.9 357.7 156.7L357.7 156.7L357.7 161L356.6 161L356.6 160.1L356.6 160.1Q356.4 160.3 356.2 160.6Q356.0 160.8 355.6 161.0Q355.2 161.2 354.6 161.2ZM354.8 160.2L354.8 160.2Q355.4 160.2 355.8 160.0Q356.2 159.8 356.4 159.4Q356.6 159.0 356.6 158.6L356.6 158.6L356.6 157.7Q356.5 157.8 356.3 157.9Q356.1 157.9 355.8 158.0Q355.6 158.0 355.3 158.0Q355.0 158.1 354.9 158.1L354.9 158.1Q354.5 158.1 354.2 158.3Q353.8 158.4 353.6 158.6Q353.4 158.8 353.4 159.2L353.4 159.2Q353.4 159.5 353.6 159.8Q353.8 160.0 354.1 160.1Q354.4 160.2 354.8 160.2ZM361.7 161.1L361.7 161.1Q361.1 161.1 360.5 160.9Q360.0 160.7 359.7 160.4Q359.3 160.0 359.2 159.4L359.2 159.4L360.2 159.2Q360.4 159.7 360.8 160.0Q361.1 160.2 361.7 160.2L361.7 160.2Q362.4 160.2 362.8 159.9Q363.2 159.6 363.2 159.2L363.2 159.2Q363.2 158.9 363.0 158.7Q362.8 158.4 362.3 158.3L362.3 158.3L361.2 158.1Q360.3 157.9 359.9 157.4Q359.4 157.0 359.4 156.3L359.4 156.3Q359.4 155.7 359.7 155.3Q360.1 154.9 360.6 154.6Q361.2 154.4 361.8 154.4L361.8 154.4Q362.5 154.4 363.0 154.6Q363.5 154.8 363.8 155.1Q364.1 155.5 364.2 155.9L364.2 155.9L363.2 156.2Q363.1 155.8 362.8 155.6Q362.5 155.3 361.9 155.3L361.9 155.3Q361.3 155.3 360.9 155.5Q360.5 155.8 360.5 156.2L360.5 156.2Q360.5 156.6 360.8 156.8Q361.0 157.0 361.6 157.2L361.6 157.2L362.6 157.4Q363.5 157.6 363.9 158.0Q364.3 158.5 364.3 159.2L364.3 159.2Q364.3 159.7 364.0 160.2Q363.7 160.6 363.1 160.9Q362.5 161.1 361.7 161.1ZM368.6 161.1L368.6 161.1Q367.7 161.1 367.0 160.7Q366.3 160.3 365.9 159.5Q365.5 158.8 365.5 157.8Q365.5 156.8 365.9 156.0Q366.3 155.2 366.9 154.8Q367.6 154.4 368.5 154.4L368.5 154.4Q369.0 154.4 369.5 154.5Q370.0 154.7 370.4 155.1Q370.8 155.5 371.1 156.1Q371.3 156.7 371.3 157.6L371.3 157.6L371.3 158.1L366.6 158.1Q366.6 158.7 366.9 159.2L366.9 159.2Q367.1 159.7 367.6 159.9Q368.0 160.2 368.6 160.2L368.6 160.2Q369.0 160.2 369.3 160.1Q369.6 160.0 369.9 159.8Q370.1 159.5 370.2 159.2L370.2 159.2L371.2 159.5Q371.1 160.0 370.7 160.3Q370.3 160.7 369.8 160.9Q369.3 161.1 368.6 161.1ZM366.6 157.2L366.6 157.2L370.3 157.2Q370.2 156.7 370.1 156.4L370.1 156.4Q369.9 155.9 369.5 155.6Q369.1 155.3 368.5 155.3Q367.9 155.3 367.5 155.6Q367.0 155.9 366.8 156.3L366.8 156.3Q366.6 156.7 366.6 157.2Z "/></g><defs><clipPath id="satori_bc-id-2-2-1-3" clip-path="url(#satori_cp-id)"><path x="397" y="144" width="65" height="25" d="M403,144 h53 a6,6 0 0 1 6,6 v13 a6,6 0 0 1 -6,6 h-53 a6,6 0 0 1 -6,-6 v-13 a6,6 0 0 1 6,-6"/></clipPath></defs><mask id="satori_om-id-2-2-1-3"><rect x="398" y="145" width="63" height="23" fill="#fff" mask="url(#satori_om-id)"/><path width="65" height="25" fill="none" stroke="#000" stroke-width="2" d="M398.757,145.757 A6,6 0 0 1 403,144 h53 a6,6 0 0 1 6,6 v13 a6,6 0 0 1 -6,6 h-53 a6,6 0 0 1 -6,-6 v-13 A6,6 0 0 1 398.757,145.757"/></mask><path x="397" y="144" width="65" height="25" fill="rgba(255,255,255,0.03)" d="M403,144 h53 a6,6 0 0 1 6,6 v13 a6,6 0 0 1 -6,6 h-53 a6,6 0 0 1 -6,-6 v-13 a6,6 0 0 1 6,-6" clip-path="url(#satori_cp-id)" mask="url(#satori_om-id)"/><path width="65" height="25" clip-path="url(#satori_bc-id-2-2-1-3)" fill="none" stroke="rgba(255,255,255,0.08)" stroke-width="2" d="M398.757,145.757 A6,6 0 0 1 403,144 h53 a6,6 0 0 1 6,6 v13 a6,6 0 0 1 -6,6 h-53 a6,6 0 0 1 -6,-6 v-13 A6,6 0 0 1 398.757,145.757"/><g mask="url(#satori_om-id)" clip-path="url(#satori_cp-id)"><path fill="rgba(255,255,255,0.8)" d="M414.2 161L413.1 161L413.1 152.3L418.3 152.3L418.3 153.3L414.2 153.3L414.2 156.2L417.9 156.2L417.9 157.2L414.2 157.2L414.2 161ZM421.1 161L420.0 161L420.0 154.4L421.1 154.4L421.1 161ZM420.5 153.4L420.5 153.4Q420.2 153.4 420.0 153.2Q419.8 153.0 419.8 152.7L419.8 152.7Q419.8 152.4 420.0 152.2Q420.2 152.0 420.5 152.0L420.5 152.0Q420.8 152.0 421.1 152.2Q421.3 152.4 421.3 152.7L421.3 152.7Q421.3 153.0 421.1 153.2Q420.8 153.4 420.5 153.4ZM425.6 163.6L425.6 163.6Q424.8 163.6 424.3 163.4Q423.8 163.2 423.4 162.9Q423.1 162.6 422.9 162.3L422.9 162.3L423.7 161.7Q423.9 161.9 424.1 162.1Q424.3 162.3 424.6 162.5Q425.0 162.7 425.6 162.7L425.6 162.7Q426.4 162.7 426.9 162.3Q427.4 161.9 427.4 161.1L427.4 161.1L427.4 159.8L427.3 159.8Q427.2 160.0 427.0 160.2Q426.8 160.5 426.4 160.7Q426.0 160.9 425.4 160.9L425.4 160.9Q424.6 160.9 424.0 160.5Q423.3 160.2 423.0 159.4Q422.6 158.7 422.6 157.7L422.6 157.7Q422.6 156.7 423.0 155.9Q423.3 155.2 423.9 154.8Q424.6 154.4 425.4 154.4L425.4 154.4Q426.0 154.4 426.4 154.6Q426.8 154.8 427.0 155.1Q427.2 155.3 427.3 155.5L427.3 155.5L427.4 155.5L427.4 154.4L428.4 154.4L428.4 161.2Q428.4 162.0 428.0 162.5Q427.7 163.1 427.0 163.3Q426.4 163.6 425.6 163.6ZM425.5 160.0L425.5 160.0Q426.1 160.0 426.5 159.7Q427.0 159.4 427.2 158.9Q427.4 158.4 427.4 157.7L427.4 157.7Q427.4 157.0 427.2 156.4Q427.0 155.9 426.6 155.6Q426.1 155.3 425.5 155.3L425.5 155.3Q424.9 155.3 424.5 155.6Q424.1 155.9 423.9 156.5Q423.7 157.0 423.7 157.7L423.7 157.7Q423.7 158.3 423.9 158.9Q424.1 159.4 424.5 159.7Q424.9 160.0 425.5 160.0ZM431.3 161L430.3 161L430.3 154.4L431.3 154.4L431.3 155.7Q431.4 155.3 431.7 155.0L431.7 155.0Q431.9 154.7 432.3 154.5Q432.7 154.3 433.1 154.3L433.1 154.3Q433.9 154.3 434.3 154.8L434.3 154.8Q434.7 155.1 434.8 155.7L434.8 155.7Q434.9 155.3 435.2 155.1L435.2 155.1Q435.5 154.7 435.9 154.5Q436.4 154.3 436.9 154.3L436.9 154.3Q437.4 154.3 437.9 154.6Q438.4 154.8 438.7 155.3Q438.9 155.8 438.9 156.6L438.9 156.6L438.9 161L437.9 161L437.9 156.6Q437.9 155.9 437.5 155.6Q437.1 155.3 436.6 155.3L436.6 155.3Q436.1 155.3 435.8 155.5Q435.5 155.7 435.3 156.0Q435.1 156.3 435.1 156.7L435.1 156.7L435.1 161L434.1 161L434.1 156.5Q434.1 156.0 433.7 155.6Q433.4 155.3 432.8 155.3L432.8 155.3Q432.4 155.3 432.1 155.5Q431.7 155.7 431.5 156.0Q431.3 156.4 431.3 156.9L431.3 156.9L431.3 161ZM442.6 161.2L442.6 161.2Q442 161.2 441.5 160.9Q441.0 160.7 440.7 160.2Q440.4 159.8 440.4 159.1L440.4 159.1Q440.4 158.6 440.6 158.2Q440.8 157.9 441.2 157.7Q441.6 157.5 442.0 157.4Q442.5 157.3 442.9 157.2L442.9 157.2Q443.5 157.1 443.9 157.1Q444.3 157.1 444.4 157.0Q444.6 156.9 444.6 156.6L444.6 156.6L444.6 156.6Q444.6 156.2 444.5 155.9Q444.3 155.6 444.0 155.4Q443.7 155.3 443.2 155.3L443.2 155.3Q442.8 155.3 442.4 155.4Q442.1 155.6 441.9 155.8Q441.7 156.0 441.6 156.3L441.6 156.3L440.6 155.9Q440.8 155.3 441.3 155.0Q441.7 154.6 442.2 154.5Q442.7 154.4 443.2 154.4L443.2 154.4Q443.5 154.4 444.0 154.4Q444.4 154.5 444.8 154.8Q445.2 155.0 445.4 155.5Q445.7 155.9 445.7 156.7L445.7 156.7L445.7 161L444.6 161L444.6 160.1L444.6 160.1Q444.5 160.3 444.2 160.6Q444.0 160.8 443.6 161.0Q443.2 161.2 442.6 161.2ZM442.8 160.2L442.8 160.2Q443.4 160.2 443.8 160.0Q444.2 159.8 444.4 159.4Q444.6 159.0 444.6 158.6L444.6 158.6L444.6 157.7Q444.6 157.8 444.3 157.9Q444.1 157.9 443.8 158.0Q443.6 158.0 443.3 158.0Q443.0 158.1 442.9 158.1L442.9 158.1Q442.5 158.1 442.2 158.3Q441.8 158.4 441.6 158.6Q441.4 158.8 441.4 159.2L441.4 159.2Q441.4 159.5 441.6 159.8Q441.8 160.0 442.1 160.1Q442.4 160.2 442.8 160.2Z "/></g></svg>