<!-- Generated by readme-aura https://github.com/collectioneur/readme-aura -->
<svg width="800" height="360" viewBox="0 0 800 360" xmlns="http://www.w3.org/2000/svg"><clipPath id="satori_cp-id"><path x="0" y="0" width="800" height="360" d="M20,0 h760 a20,20 0 0 1 20,20 v320 a20,20 0 0 1 -20,20 h-760 a20,20 0 0 1 -20,-20 v-320 a20,20 0 0 1 20,-20"/></clipPath><mask id="satori_om-id"><rect x="0" y="0" width="800" height="360" fill="#fff"/></mask><path x="0" y="0" width="800" height="360" fill="#08080d" d="M20,0 h760 a20,20 0 0 1 20,20 v320 a20,20 0 0 1 -20,20 h-760 a20,20 0 0 1 -20,-20 v-320 a20,20 0 0 1 20,-20"/><clipPath id="satori_cp-id-0" clip-path="url(#satori_cp-id)"><rect x="0" y="0" width="800" height="360"/></clipPath><mask id="satori_om-id-0"><rect x="0" y="0" width="800" height="360" fill="#fff" mask="url(#satori_om-id)"/></mask><svg x="0" y="0" width="800" height="360" preserveAspectRatio="none" clip-path="url(#satori_cp-id-0)" mask="url(#satori_om-id-0)"><defs><radialGradient id="hg1" cx="50%" cy="50%" r="50%"><stop offset="0%" stop-color="rgba(108,195,130,0.55)"></stop><stop offset="100%" stop-color="rgba(108,195,130,0)"></stop></radialGradient><radialGradient id="hg2" cx="50%" cy="50%" r="50%"><stop offset="0%" stop-color="rgba(230,100,115,0.5)"></stop><stop offset="100%" stop-color="rgba(230,100,115,0)"></stop></radialGradient><radialGradient id="hg3" cx="50%" cy="50%" r="50%"><stop offset="0%" stop-color="rgba(195,155,255,0.35)"></stop><stop offset="100%" stop-color="rgba(195,155,255,0)"></stop></radialGradient><radialGradient id="hg4" cx="50%" cy="50%" r="50%"><stop offset="0%" stop-color="rgba(255,195,110,0.28)"></stop><stop offset="100%" stop-color="rgba(255,195,110,0)"></stop></radialGradient><radialGradient id="hg5" cx="50%" cy="50%" r="50%"><stop offset="0%" stop-color="rgba(80,160,220,0.3)"></stop><stop offset="100%" stop-color="rgba(80,160,220,0)"></stop></radialGradient></defs><ellipse id="hero-o1" cx="110" cy="310" rx="260" ry="200" fill="url(#hg1)"></ellipse><ellipse id="hero-o2" cx="710" cy="70" rx="230" ry="190" fill="url(#hg2)"></ellipse><ellipse id="hero-o3" cx="620" cy="330" rx="200" ry="160" fill="url(#hg3)"></ellipse><ellipse id="hero-o4" cx="200" cy="55" rx="190" ry="150" fill="url(#hg4)"></ellipse><ellipse id="hero-o5" cx="400" cy="340" rx="170" ry="130" fill="url(#hg5)"></ellipse><circle id="hr1" cx="400" cy="178" r="52" fill="none" stroke="rgba(255,255,255,0.9)" stroke-width="0.7"></circle><circle id="hr2" cx="400" cy="178" r="92" fill="none" stroke="rgba(255,255,255,0.9)" stroke-width="0.7"></circle><circle id="hr3" cx="400" cy="178" r="138" fill="none" stroke="rgba(255,255,255,0.9)" stroke-width="0.7"></circle><circle id="hr4" cx="400" cy="178" r="192" fill="none" stroke="rgba(255,255,255,0.9)" stroke-width="0.7"></circle><circle id="hr5" cx="400" cy="178" r="256" fill="none" stroke="rgba(255,255,255,0.9)" stroke-width="0.7"></circle><g id="hero-dot"><circle cx="400" cy="126" r="2.5" fill="rgba(255,255,255,0.5)"></circle></g><style>

    @keyframes orb-a { 0%, 100% { transform: translate(0, 0); opacity: 0.6; } 50% { transform: translate(28px, -22px); opacity: 0.9; } }
    @keyframes orb-b { 0%, 100% { transform: translate(0, 0); opacity: 0.5; } 50% { transform: translate(-22px, 18px); opacity: 0.75; } }
    @keyframes orb-c { 0%, 100% { transform: translate(0, 0); opacity: 0.35; } 50% { transform: translate(16px, -28px); opacity: 0.6; } }
    @keyframes ring-blink { 0%, 100% { opacity: 0.06; } 50% { opacity: 0.18; } }
    @keyframes ring-blink-b { 0%, 100% { opacity: 0.04; } 50% { opacity: 0.12; } }
    @keyframes dot-spin { 0% { transform: rotate(0deg); } 100% { transform: rotate(360deg); } }
    #hero-o1 { animation: orb-a 9s ease-in-out infinite; }
    #hero-o2 { animation: orb-b 11s ease-in-out infinite 0.8s; }
    #hero-o3 { animation: orb-a 8s ease-in-out infinite 2s; }
    #hero-o4 { animation: orb-b 13s ease-in-out infinite 0.4s; }
    #hero-o5 { animation: orb-c 7s ease-in-out infinite 1.2s; }
    #hr1 { animation: ring-blink 8s ease-in-out infinite; }
    #hr2 { animation: ring-blink 8s ease-in-out infinite 1.4s; }
    #hr3 { animation: ring-blink-b 8s ease-in-out infinite 2.8s; }
    #hr4 { animation: ring-blink-b 8s ease-in-out infinite 4.2s; }
    #hr5 { animation: ring-blink-b 10s ease-in-out infinite 5.6s; }
    #hero-dot { animation: dot-spin 20s linear infinite; }
  
</style>
</svg><mask id="satori_om-id-0-0"><rect x="0" y="0" width="0" height="360" fill="#fff" mask="url(#satori_om-id)"/></mask><mask id="satori_om-id-0-0-0"><rect x="0" y="0" width="0" height="360" fill="#fff" mask="url(#satori_om-id)"/></mask><mask id="satori_om-id-0-0-0-0"><rect x="0" y="0" width="0" height="360" fill="#fff" mask="url(#satori_om-id)"/></mask><mask id="satori_om-id-0-0-0-1"><rect x="0" y="0" width="0" height="360" fill="#fff" mask="url(#satori_om-id)"/></mask><mask id="satori_om-id-0-0-1"><rect x="0" y="0" width="0" height="360" fill="#fff" mask="url(#satori_om-id)"/></mask><mask id="satori_om-id-0-0-1-0"><rect x="0" y="0" width="0" height="360" fill="#fff" mask="url(#satori_om-id)"/></mask><mask id="satori_om-id-0-0-1-1"><rect x="0" y="0" width="0" height="360" fill="#fff" mask="url(#satori_om-id)"/></mask><mask id="satori_om-id-0-0-2"><rect x="0" y="0" width="0" height="360" fill="#fff" mask="url(#satori_om-id)"/></mask><mask id="satori_om-id-0-0-2-0"><rect x="0" y="0" width="0" height="360" fill="#fff" mask="url(#satori_om-id)"/></mask><mask id="satori_om-id-0-0-2-1"><rect x="0" y="0" width="0" height="360" fill="#fff" mask="url(#satori_om-id)"/></mask><mask id="satori_om-id-0-0-3"><rect x="0" y="0" width="0" height="360" fill="#fff" mask="url(#satori_om-id)"/></mask><mask id="satori_om-id-0-0-3-0"><rect x="0" y="0" width="0" height="360" fill="#fff" mask="url(#satori_om-id)"/></mask><mask id="satori_om-id-0-0-3-1"><rect x="0" y="0" width="0" height="360" fill="#fff" mask="url(#satori_om-id)"/></mask><mask id="satori_om-id-0-0-4"><rect x="0" y="0" width="0" height="360" fill="#fff" mask="url(#satori_om-id)"/></mask><mask id="satori_om-id-0-0-4-0"><rect x="0" y="0" width="0" height="360" fill="#fff" mask="url(#satori_om-id)"/></mask><mask id="satori_om-id-0-0-4-1"><rect x="0" y="0" width="0" height="360" fill="#fff" mask="url(#satori_om-id)"/></mask><mask id="satori_om-id-0-1"><rect x="0" y="0" width="0" height="360" fill="#fff" mask="url(#satori_om-id)"/></mask><mask id="satori_om-id-0-2"><rect x="0" y="0" width="0" height="360" fill="#fff" mask="url(#satori_om-id)"/></mask><mask id="satori_om-id-0-3"><rect x="0" y="0" width="0" height="360" fill="#fff" mask="url(#satori_om-id)"/></mask><mask id="satori_om-id-0-4"><rect x="0" y="0" width="0" height="360" fill="#fff" mask="url(#satori_om-id)"/></mask><mask id="satori_om-id-0-5"><rect x="0" y="0" width="0" height="360" fill="#fff" mask="url(#satori_om-id)"/></mask><mask id="satori_om-id-0-6"><rect x="0" y="0" width="0" height="360" fill="#fff" mask="url(#satori_om-id)"/></mask><mask id="satori_om-id-0-7"><rect x="0" y="0" width="0" height="360" fill="#fff" mask="url(#satori_om-id)"/></mask><mask id="satori_om-id-0-8"><rect x="0" y="0" width="0" height="360" fill="#fff" mask="url(#satori_om-id)"/></mask><mask id="satori_om-id-0-9"><rect x="0" y="0" width="0" height="360" fill="#fff" mask="url(#satori_om-id)"/></mask><mask id="satori_om-id-0-10"><rect x="0" y="0" width="0" height="360" fill="#fff" mask="url(#satori_om-id)"/></mask><mask id="satori_om-id-0-11"><rect x="0" y="0" width="0" height="360" fill="#fff" mask="url(#satori_om-id)"/></mask><mask id="satori_om-id-0-11-0"><rect x="0" y="0" width="0" height="360" fill="#fff" mask="url(#satori_om-id)"/></mask><mask id="satori_om-id-1"><rect x="160" y="109" width="481" height="142" fill="#fff" mask="url(#satori_om-id)"/></mask><mask id="satori_om-id-1-0"><rect x="160" y="109" width="481" height="55" fill="#fff" mask="url(#satori_om-id)"/></mask><g mask="url(#satori_om-id)" clip-path="url(#satori_cp-id)"><path fill="#ffffff" d="M172.0 157L163.6 157L163.6 117.0L172.8 117.0L185.4 137.2Q186.4 138.8 187.4 140.6Q188.4 142.4 189.4 144.7L189.4 144.7Q189.9 145.8 190.4 147.0L190.4 147.0Q190.3 146.0 190.3 144.9L190.3 144.9Q190.1 142.4 190.0 140.1Q189.9 137.8 189.9 136.2L189.9 136.2L189.9 117.0L198.3 117.0L198.3 157L189.1 157L177.6 138.6Q176.4 136.6 175.3 134.6Q174.2 132.7 173.1 130.3L173.1 130.3Q172.4 128.9 171.5 127.1L171.5 127.1Q171.6 128.7 171.7 130.3L171.7 130.3Q171.8 132.9 171.9 135.1Q172.0 137.2 172.0 138.6L172.0 138.6L172.0 157ZM211.3 157L202.2 157L215.9 117.0L226.6 117.0L240.7 157L231.6 157L228.5 147.7L214.3 147.7L211.3 157ZM216.3 141.3L226.4 141.3L225.1 137.7Q224.0 134.0 222.8 129.5L222.8 129.5Q222.0 126.6 221.2 123.4L221.2 123.4Q220.4 126.7 219.7 129.6L219.7 129.6Q218.6 134.0 217.5 137.7L217.5 137.7L216.3 141.3ZM261.5 157L244.6 157L244.6 117.0L260.5 117.0Q264.9 117.0 267.8 118.3Q270.8 119.6 272.2 122.0Q273.7 124.3 273.7 127.3L273.7 127.3Q273.7 129.6 272.8 131.4Q271.8 133.2 270.2 134.3Q268.6 135.4 266.5 135.9L266.5 135.9L266.5 136.3Q268.8 136.3 270.8 137.5Q272.8 138.7 274.0 140.9Q275.3 143.0 275.3 146.0L275.3 146.0Q275.3 149.1 273.7 151.6Q272.1 154.1 269.1 155.6Q266.0 157 261.5 157L261.5 157ZM252.8 139.4L252.8 150.3L259.9 150.3Q263.5 150.3 265.2 148.9Q266.8 147.5 266.8 145.2L266.8 145.2Q266.8 143.5 266.0 142.2Q265.2 140.9 263.7 140.1Q262.2 139.4 260.1 139.4L260.1 139.4L252.8 139.4ZM252.8 123.7L252.8 133.8L259.3 133.8Q261.0 133.8 262.4 133.2Q263.8 132.5 264.6 131.4Q265.4 130.2 265.4 128.6L265.4 128.6Q265.4 126.4 263.9 125.0Q262.3 123.7 259.4 123.7L259.4 123.7L252.8 123.7ZM280.0 117.0L288.2 117.0L288.2 157L280.0 157L280.0 117.0ZM319.9 157L294.4 157L294.4 117.0L302.6 117.0L302.6 150.2L319.9 150.2L319.9 157Z M343.3 157L334.3 157L347.9 117.0L358.7 117.0L372.7 157L363.6 157L360.5 147.7L346.3 147.7L343.3 157ZM348.3 141.3L358.4 141.3L357.2 137.7Q356.0 134.0 354.8 129.5L354.8 129.5Q354.0 126.6 353.2 123.4L353.2 123.4Q352.4 126.7 351.7 129.6L351.7 129.6Q350.6 134.0 349.5 137.7L349.5 137.7L348.3 141.3ZM393.1 157.6L393.1 157.6Q388.2 157.6 384.5 155.7Q380.7 153.9 378.7 150.6Q376.6 147.3 376.6 143.0L376.6 143.0L376.6 117.0L384.8 117.0L384.8 142.3Q384.8 144.6 385.9 146.4Q386.9 148.2 388.8 149.3Q390.6 150.3 393.1 150.3L393.1 150.3Q395.6 150.3 397.5 149.3Q399.4 148.2 400.4 146.4Q401.4 144.6 401.4 142.3L401.4 142.3L401.4 117.0L409.7 117.0L409.7 143.0Q409.7 147.3 407.6 150.6Q405.5 153.9 401.8 155.7Q398.1 157.6 393.1 157.6ZM441.3 157L415.9 157L415.9 117.0L424.1 117.0L424.1 150.2L441.3 150.2L441.3 157ZM446.0 117.0L454.2 117.0L454.2 157L446.0 157L446.0 117.0ZM467.2 157L458.1 157L471.8 117.0L482.5 117.0L496.5 157L487.4 157L484.4 147.7L470.1 147.7L467.2 157ZM472.2 141.3L482.2 141.3L481.0 137.7Q479.9 134.0 478.7 129.5L478.7 129.5Q477.9 126.6 477.1 123.4L477.1 123.4Q476.3 126.7 475.6 129.6L475.6 129.6Q474.4 134.0 473.3 137.7L473.3 137.7L472.2 141.3Z M526.6 157L526.6 157L512.5 157L512.5 117.0L526.7 117.0Q532.7 117.0 537.1 119.4Q541.4 121.8 543.7 126.3Q546.1 130.7 546.1 137.0L546.1 137.0Q546.1 143.2 543.7 147.7Q541.4 152.2 537.0 154.6Q532.7 157 526.6 157ZM520.7 124.0L520.7 149.9L526.2 149.9Q530.0 149.9 532.7 148.6Q535.3 147.2 536.6 144.3Q537.9 141.5 537.9 137.0L537.9 137.0Q537.9 132.5 536.6 129.6Q535.3 126.8 532.7 125.4Q530.1 124.0 526.2 124.0L526.2 124.0L520.7 124.0ZM551.2 117.0L559.4 117.0L559.4 157L551.2 157L551.2 117.0ZM573.9 157L565.7 157L565.7 117.0L573.9 117.0L573.9 127.9L573.8 137.0Q573.9 136.7 574.1 136.4L574.1 136.4Q575.3 134.5 576.7 132.6Q578.2 130.7 580.0 128.5L580.0 128.5L589.8 117.0L599.8 117.0L584.8 134.3L600.2 157L590.5 157L579.2 139.7L573.9 145.6L573.9 157ZM611.0 157L601.9 157L615.6 117.0L626.3 117.0L640.3 157L631.2 157L628.2 147.7L614.0 147.7L611.0 157ZM616.0 141.3L626.0 141.3L624.8 137.7Q623.7 134.0 622.5 129.5L622.5 129.5Q621.7 126.6 620.9 123.4L620.9 123.4Q620.1 126.7 619.4 129.6L619.4 129.6Q618.2 134.0 617.1 137.7L617.1 137.7L616.0 141.3Z "/></g><mask id="satori_om-id-1-1"><rect x="245" y="180" width="312" height="16" fill="#fff" mask="url(#satori_om-id)"/></mask><g mask="url(#satori_om-id)" clip-path="url(#satori_cp-id)"><path fill="rgba(255,255,255,0.5)" d="M247.3 193L246.1 193L246.1 183.5L251.9 183.5L251.9 184.6L247.3 184.6L247.3 187.8L251.4 187.8L251.4 188.9L247.3 188.9L247.3 193ZM262.5 193.2L262.5 193.2Q261.4 193.2 260.6 192.7Q259.7 192.3 259.3 191.5Q258.8 190.8 258.8 189.8L258.8 189.8L258.8 183.5L260.0 183.5L260.0 189.7Q260.0 190.4 260.3 190.9Q260.6 191.4 261.2 191.7Q261.7 192.0 262.5 192.0L262.5 192.0Q263.3 192.0 263.8 191.7Q264.4 191.4 264.7 190.9Q265.0 190.4 265.0 189.7L265.0 189.7L265.0 183.5L266.2 183.5L266.2 189.8Q266.2 190.8 265.7 191.5Q265.3 192.3 264.5 192.7Q263.6 193.2 262.5 193.2ZM279.1 193L273.5 193L273.5 183.5L274.7 183.5L274.7 191.9L279.1 191.9L279.1 193ZM291.4 193L285.8 193L285.8 183.5L287.0 183.5L287.0 191.9L291.4 191.9L291.4 193Z M309.9 193.2L309.9 193.2Q308.9 193.2 308.1 192.8Q307.3 192.5 306.9 191.9Q306.5 191.3 306.4 190.5L306.4 190.5L307.7 190.5Q307.7 191.1 308.0 191.4Q308.4 191.7 308.8 191.9Q309.3 192.1 309.9 192.1L309.9 192.1Q310.5 192.1 311.0 191.9Q311.5 191.7 311.8 191.3Q312.1 190.9 312.1 190.4L312.1 190.4Q312.1 189.9 311.9 189.7Q311.6 189.4 311.2 189.2Q310.8 189.0 310.3 188.9L310.3 188.9L309.1 188.5Q308.0 188.2 307.3 187.6Q306.7 187.0 306.7 186.1L306.7 186.1Q306.7 185.3 307.1 184.7Q307.6 184.1 308.3 183.7Q309.0 183.4 310.0 183.4L310.0 183.4Q310.9 183.4 311.6 183.7Q312.3 184.1 312.7 184.6Q313.2 185.2 313.2 185.9L313.2 185.9L312.0 185.9Q311.9 185.2 311.3 184.9Q310.8 184.5 309.9 184.5L309.9 184.5Q309.3 184.5 308.9 184.7Q308.4 184.9 308.1 185.2Q307.9 185.6 307.9 186.0L307.9 186.0Q307.9 186.5 308.2 186.8Q308.5 187.1 308.9 187.3Q309.3 187.5 309.7 187.5L309.7 187.5L310.6 187.8Q311.0 187.9 311.5 188.1Q311.9 188.3 312.4 188.6Q312.8 188.9 313.0 189.3Q313.3 189.8 313.3 190.4L313.3 190.4Q313.3 191.2 312.9 191.8Q312.5 192.4 311.7 192.8Q311.0 193.2 309.9 193.2ZM322.6 184.6L319.7 184.6L319.7 183.5L326.8 183.5L326.8 184.6L323.9 184.6L323.9 193L322.6 193L322.6 184.6ZM334.1 193L332.8 193L336.2 183.5L337.6 183.5L341.1 193L339.8 193L338.9 190.4L335.0 190.4L334.1 193ZM335.3 189.3L338.5 189.3L337.8 187.4Q337.6 186.9 337.4 186.1L337.4 186.1Q337.2 185.4 336.9 184.5L336.9 184.5Q336.6 185.5 336.4 186.1L336.4 186.1Q336.2 186.9 336.0 187.4L336.0 187.4L335.3 189.3ZM351.4 193.1L351.4 193.1Q350.2 193.1 349.2 192.5Q348.3 192.0 347.7 190.9Q347.2 189.8 347.2 188.3L347.2 188.3Q347.2 186.8 347.7 185.7Q348.3 184.6 349.2 184.0Q350.2 183.4 351.4 183.4L351.4 183.4Q352.1 183.4 352.7 183.6Q353.4 183.8 353.9 184.2Q354.4 184.6 354.7 185.2Q355.1 185.8 355.2 186.5L355.2 186.5L354.0 186.5Q353.9 186.0 353.6 185.7Q353.4 185.3 353.0 185.0Q352.7 184.8 352.3 184.7Q351.8 184.5 351.4 184.5L351.4 184.5Q350.5 184.5 349.8 185.0Q349.2 185.4 348.8 186.2Q348.4 187.1 348.4 188.3L348.4 188.3Q348.4 189.5 348.8 190.3Q349.2 191.2 349.8 191.6Q350.5 192.0 351.4 192.0L351.4 192.0Q351.8 192.0 352.3 191.9Q352.7 191.7 353.0 191.5Q353.4 191.2 353.6 190.9Q353.9 190.5 354.0 190.0L354.0 190.0L355.2 190.0Q355.1 190.7 354.7 191.3Q354.4 191.9 353.9 192.3Q353.4 192.7 352.7 192.9Q352.1 193.1 351.4 193.1ZM363.3 193L362.0 193L362.0 183.5L363.3 183.5L363.3 186.8L363.2 188.5Q363.4 188.3 363.5 188.2L363.5 188.2Q363.8 187.8 364.2 187.4Q364.5 187.0 364.9 186.6L364.9 186.6L367.7 183.5L369.3 183.5L365.4 187.6L369.3 193L367.8 193L364.6 188.5L363.3 189.9L363.3 193Z M387.6 193L386.2 193L383.6 183.5L384.9 183.5L386.4 189.3Q386.5 189.8 386.6 190.3Q386.7 190.8 386.8 191.3L386.8 191.3Q386.9 191.6 386.9 191.9L386.9 191.9Q387.0 191.6 387.0 191.3L387.0 191.3Q387.1 190.8 387.2 190.3Q387.4 189.8 387.5 189.3L387.5 189.3L389.0 183.5L390.4 183.5L391.9 189.3Q392.0 189.8 392.1 190.3Q392.3 190.8 392.4 191.3L392.4 191.3Q392.4 191.5 392.5 191.8L392.5 191.8Q392.5 191.5 392.6 191.3L392.6 191.3Q392.7 190.8 392.8 190.3Q392.9 189.8 393.0 189.3L393.0 189.3L394.5 183.5L395.8 183.5L393.2 193L391.8 193L390.2 187.0Q390.0 186.4 389.9 185.7L389.9 185.7Q389.8 185.4 389.7 184.9L389.7 184.9Q389.6 185.3 389.5 185.7L389.5 185.7Q389.4 186.3 389.2 187.0L389.2 187.0L387.6 193ZM408.1 193L402.2 193L402.2 183.5L408.0 183.5L408.0 184.6L403.5 184.6L403.5 187.7L407.7 187.7L407.7 188.8L403.5 188.8L403.5 191.9L408.1 191.9L408.1 193ZM418.5 193L415.1 193L415.1 183.5L418.4 183.5Q419.4 183.5 420.0 183.9Q420.7 184.2 421.0 184.8Q421.3 185.4 421.3 186.0L421.3 186.0Q421.3 186.7 421.1 187.1Q420.9 187.5 420.5 187.7Q420.2 187.9 419.8 188.0L419.8 188.0L419.8 188.1Q420.2 188.2 420.7 188.4Q421.1 188.7 421.4 189.2Q421.7 189.7 421.7 190.5L421.7 190.5Q421.7 191.2 421.4 191.8Q421.0 192.3 420.3 192.7Q419.6 193 418.5 193L418.5 193ZM416.3 188.7L416.3 191.9L418.5 191.9Q419.6 191.9 420.1 191.5Q420.5 191.1 420.5 190.5L420.5 190.5Q420.5 190.0 420.3 189.6Q420.0 189.2 419.6 189.0Q419.2 188.7 418.6 188.7L418.6 188.7L416.3 188.7ZM416.3 184.6L416.3 187.7L418.3 187.7Q418.9 187.7 419.3 187.5Q419.7 187.3 419.9 186.9Q420.2 186.6 420.2 186.1L420.2 186.1Q420.2 185.5 419.7 185.0Q419.3 184.6 418.4 184.6L418.4 184.6L416.3 184.6Z M440.2 193L440.2 193L437.2 193L437.2 183.5L440.3 183.5Q441.7 183.5 442.7 184.1Q443.6 184.7 444.2 185.7Q444.7 186.8 444.7 188.3L444.7 188.3Q444.7 189.7 444.2 190.8Q443.6 191.9 442.6 192.4Q441.6 193 440.2 193ZM438.4 184.6L438.4 191.9L440.1 191.9Q441.3 191.9 442.0 191.5Q442.8 191.1 443.1 190.2Q443.5 189.4 443.5 188.3L443.5 188.3Q443.5 187.1 443.1 186.3Q442.8 185.5 442.0 185.0Q441.3 184.6 440.2 184.6L440.2 184.6L438.4 184.6ZM457.4 193L451.6 193L451.6 183.5L457.4 183.5L457.4 184.6L452.8 184.6L452.8 187.7L457.1 187.7L457.1 188.8L452.8 188.8L452.8 191.9L457.4 191.9L457.4 193ZM468.5 193L467.1 193L463.6 183.5L464.9 183.5L466.9 189.2Q467.0 189.6 467.3 190.4L467.3 190.4Q467.5 191.1 467.8 192.0L467.8 192.0Q468.1 191.1 468.3 190.4L468.3 190.4Q468.5 189.6 468.7 189.2L468.7 189.2L470.6 183.5L471.9 183.5L468.5 193ZM484.2 193L478.4 193L478.4 183.5L484.2 183.5L484.2 184.6L479.6 184.6L479.6 187.7L483.8 187.7L483.8 188.8L479.6 188.8L479.6 191.9L484.2 191.9L484.2 193ZM496.8 193L491.2 193L491.2 183.5L492.4 183.5L492.4 191.9L496.8 191.9L496.8 193ZM507.4 193.1L507.4 193.1Q506.2 193.1 505.2 192.5Q504.3 192.0 503.7 190.9Q503.2 189.8 503.2 188.3L503.2 188.3Q503.2 186.8 503.7 185.7Q504.3 184.6 505.2 184.0Q506.2 183.4 507.4 183.4L507.4 183.4Q508.6 183.4 509.5 184.0Q510.5 184.6 511.0 185.7Q511.6 186.8 511.6 188.3L511.6 188.3Q511.6 189.8 511.0 190.9Q510.5 192.0 509.5 192.5Q508.6 193.1 507.4 193.1ZM507.4 192.0L507.4 192.0Q508.2 192.0 508.9 191.6Q509.6 191.2 510.0 190.3Q510.4 189.5 510.4 188.3L510.4 188.3Q510.4 187.1 510.0 186.2Q509.6 185.4 508.9 185.0Q508.2 184.5 507.4 184.5L507.4 184.5Q506.5 184.5 505.8 185.0Q505.2 185.4 504.8 186.2Q504.4 187.1 504.4 188.3L504.4 188.3Q504.4 189.5 504.8 190.3Q505.2 191.1 505.8 191.6Q506.5 192.0 507.4 192.0ZM519.7 193L518.5 193L518.5 183.5L521.7 183.5Q522.8 183.5 523.5 183.9Q524.3 184.3 524.6 185.0Q525.0 185.7 525.0 186.6Q525.0 187.4 524.6 188.1Q524.3 188.8 523.6 189.2Q522.8 189.6 521.7 189.6L521.7 189.6L519.7 189.6L519.7 193ZM519.7 184.6L519.7 188.5L521.7 188.5Q522.4 188.5 522.9 188.3Q523.3 188.0 523.5 187.6Q523.8 187.1 523.8 186.6Q523.8 186.0 523.5 185.6Q523.3 185.1 522.9 184.9Q522.4 184.6 521.7 184.6L521.7 184.6L519.7 184.6ZM537.6 193L531.8 193L531.8 183.5L537.6 183.5L537.6 184.6L533.0 184.6L533.0 187.7L537.2 187.7L537.2 188.8L533.0 188.8L533.0 191.9L537.6 191.9L537.6 193ZM545.8 193L544.6 193L544.6 183.5L547.8 183.5Q549.0 183.5 549.7 183.9Q550.4 184.3 550.7 185.0Q551.1 185.6 551.1 186.5Q551.1 187.3 550.7 188.0Q550.4 188.6 549.7 189.0L549.7 189.0Q549.5 189.1 549.3 189.1L549.3 189.1L551.4 193L550.0 193L548.1 189.3Q548.0 189.3 547.9 189.3L547.9 189.3L545.8 189.3L545.8 193ZM545.8 184.6L545.8 188.3L547.8 188.3Q548.5 188.3 549.0 188.0Q549.5 187.8 549.7 187.4Q549.9 187.0 549.9 186.5L549.9 186.5Q549.9 185.9 549.7 185.5Q549.5 185.1 549.0 184.8Q548.5 184.6 547.8 184.6L547.8 184.6L545.8 184.6Z "/></g><mask id="satori_om-id-1-2"><rect x="218" y="226" width="366" height="25" fill="#fff" mask="url(#satori_om-id)"/></mask><defs><clipPath id="satori_bc-id-1-2-0" clip-path="url(#satori_cp-id)"><path x="218" y="226" width="109" height="25" d="M230.5,226 h84 a12.5,12.5 0 0 1 12.5,12.5 v0 a12.5,12.5 0 0 1 -12.5,12.5 h-84 a12.5,12.5 0 0 1 -12.5,-12.5 v0 a12.5,12.5 0 0 1 12.5,-12.5"/></clipPath></defs><mask id="satori_om-id-1-2-0"><rect x="219" y="227" width="107" height="23" fill="#fff" mask="url(#satori_om-id)"/><path width="109" height="25" fill="none" stroke="#000" stroke-width="2" d="M221.661,229.661 A12.5,12.5 0 0 1 230.5,226 h84 a12.5,12.5 0 0 1 12.5,12.5 v0 a12.5,12.5 0 0 1 -12.5,12.5 h-84 a12.5,12.5 0 0 1 -12.5,-12.5 v0 A12.5,12.5 0 0 1 221.661,229.661"/></mask><path x="218" y="226" width="109" height="25" fill="rgba(255,255,255,0.04)" d="M230.5,226 h84 a12.5,12.5 0 0 1 12.5,12.5 v0 a12.5,12.5 0 0 1 -12.5,12.5 h-84 a12.5,12.5 0 0 1 -12.5,-12.5 v0 a12.5,12.5 0 0 1 12.5,-12.5" clip-path="url(#satori_cp-id)" mask="url(#satori_om-id)"/><path width="109" height="25" clip-path="url(#satori_bc-id-1-2-0)" fill="none" stroke="rgba(255,255,255,0.09)" stroke-width="2" d="M221.661,229.661 A12.5,12.5 0 0 1 230.5,226 h84 a12.5,12.5 0 0 1 12.5,12.5 v0 a12.5,12.5 0 0 1 -12.5,12.5 h-84 a12.5,12.5 0 0 1 -12.5,-12.5 v0 A12.5,12.5 0 0 1 221.661,229.661"/><g mask="url(#satori_om-id)" clip-path="url(#satori_cp-id)"><path fill="rgba(255,255,255,0.55)" d="M236.9 243L236.0 243L236.0 235.0L237.4 235.0L239.4 240.0Q239.5 240.2 239.5 240.5Q239.6 240.8 239.7 241.1Q239.8 241.4 239.9 241.7L239.9 241.7Q240.0 241.8 240.0 241.9L240.0 241.9Q240.0 241.8 240.0 241.7L240.0 241.7Q240.1 241.4 240.2 241.1Q240.3 240.8 240.4 240.5Q240.5 240.2 240.6 240.0L240.6 240.0L242.5 235.0L244.0 235.0L244.0 243L243.0 243L243.0 238.4Q243.0 238.2 243.0 237.9Q243.0 237.5 243.0 237.2Q243.0 236.9 243.0 236.5L243.0 236.5Q243.0 236.3 243.0 236.1L243.0 236.1Q242.9 236.3 242.9 236.5L242.9 236.5Q242.7 236.9 242.6 237.3Q242.5 237.6 242.4 237.9Q242.3 238.2 242.2 238.4L242.2 238.4L240.4 243L239.5 243L237.7 238.4Q237.6 238.2 237.5 238.0Q237.4 237.7 237.3 237.3Q237.2 237.0 237.1 236.6L237.1 236.6Q237.0 236.3 236.9 236.1L236.9 236.1Q236.9 236.3 236.9 236.4L236.9 236.4Q236.9 236.8 236.9 237.1Q236.9 237.5 236.9 237.8Q236.9 238.2 236.9 238.4L236.9 238.4L236.9 243ZM250.3 243L249.2 243L246.2 235.0L247.3 235.0L249.0 239.7Q249.1 240.2 249.3 240.8L249.3 240.8Q249.5 241.4 249.8 242.2L249.8 242.2Q250.0 241.4 250.2 240.8L250.2 240.8Q250.4 240.2 250.5 239.7L250.5 239.7L252.2 235.0L253.2 235.0L250.3 243ZM256.5 243L255.5 243L255.5 235.0L258.2 235.0Q259.2 235.0 259.8 235.3Q260.4 235.7 260.7 236.3Q261.0 236.8 261.0 237.5Q261.0 238.3 260.7 238.8Q260.4 239.4 259.8 239.8Q259.2 240.1 258.2 240.1L258.2 240.1L256.5 240.1L256.5 243ZM256.5 235.9L256.5 239.2L258.2 239.2Q258.8 239.2 259.2 239.0Q259.6 238.8 259.8 238.4Q259.9 238.0 259.9 237.5Q259.9 237.1 259.8 236.7Q259.6 236.3 259.2 236.1Q258.8 235.9 258.2 235.9L258.2 235.9L256.5 235.9Z M270.5 243L267.6 243L267.6 235.0L270.4 235.0Q271.3 235.0 271.8 235.3Q272.4 235.6 272.6 236.1Q272.9 236.5 272.9 237.1L272.9 237.1Q272.9 237.6 272.7 238.0Q272.5 238.3 272.2 238.5Q271.9 238.7 271.6 238.8L271.6 238.8L271.6 238.9Q272.0 238.9 272.3 239.1Q272.7 239.4 273.0 239.8Q273.2 240.2 273.2 240.9L273.2 240.9Q273.2 241.5 272.9 242.0Q272.7 242.4 272.1 242.7Q271.5 243 270.5 243L270.5 243ZM268.6 239.4L268.6 242.1L270.5 242.1Q271.4 242.1 271.8 241.7Q272.2 241.4 272.2 240.9L272.2 240.9Q272.2 240.5 272.0 240.1Q271.8 239.8 271.5 239.6Q271.1 239.4 270.6 239.4L270.6 239.4L268.6 239.4ZM268.6 235.9L268.6 238.5L270.4 238.5Q270.8 238.5 271.2 238.3Q271.5 238.2 271.7 237.9Q271.9 237.6 271.9 237.1L271.9 237.1Q271.9 236.6 271.6 236.3Q271.2 235.9 270.4 235.9L270.4 235.9L268.6 235.9ZM277.7 243.1L277.7 243.1Q277.1 243.1 276.7 242.8Q276.2 242.6 275.9 242.1Q275.7 241.6 275.7 240.8L275.7 240.8L275.7 237.0L276.7 237.0L276.7 240.7Q276.7 241.4 277.0 241.8Q277.4 242.2 278.0 242.2L278.0 242.2Q278.4 242.2 278.8 242.0Q279.1 241.8 279.3 241.5Q279.5 241.1 279.5 240.6L279.5 240.6L279.5 237.0L280.5 237.0L280.5 243L279.6 243L279.6 241.9Q279.3 242.5 278.9 242.7L278.9 242.7Q278.4 243.1 277.7 243.1ZM284.2 243L283.2 243L283.2 237.0L284.2 237.0L284.2 243ZM283.7 236.0L283.7 236.0Q283.4 236.0 283.2 235.8Q283.0 235.6 283.0 235.4L283.0 235.4Q283.0 235.1 283.2 234.9Q283.4 234.7 283.7 234.7L283.7 234.7Q284.0 234.7 284.2 234.9Q284.4 235.1 284.4 235.4L284.4 235.4Q284.4 235.6 284.2 235.8Q284.0 236.0 283.7 236.0ZM286.9 235.0L287.8 235.0L287.8 243L286.9 243L286.9 235.0ZM292.8 243.1L292.8 243.1Q292.0 243.1 291.5 242.7Q290.9 242.4 290.6 241.7Q290.2 241.0 290.2 240.0L290.2 240.0Q290.2 239.1 290.6 238.4Q290.9 237.7 291.5 237.3Q292.0 236.9 292.8 236.9L292.8 236.9Q293.4 236.9 293.7 237.1Q294.1 237.3 294.2 237.6Q294.4 237.8 294.5 238.0L294.5 238.0L294.6 238.0L294.6 235.0L295.6 235.0L295.6 243L294.6 243L294.6 242.1L294.5 242.1Q294.4 242.2 294.2 242.5Q294.0 242.7 293.7 242.9Q293.3 243.1 292.8 243.1ZM292.9 242.3L292.9 242.3Q293.5 242.3 293.8 242.0Q294.2 241.7 294.4 241.2Q294.6 240.7 294.6 240.0L294.6 240.0Q294.6 239.3 294.4 238.8Q294.2 238.3 293.8 238.1Q293.5 237.8 292.9 237.8L292.9 237.8Q292.3 237.8 292.0 238.1Q291.6 238.4 291.4 238.9Q291.2 239.4 291.2 240.0L291.2 240.0Q291.2 240.6 291.4 241.1Q291.6 241.7 292.0 242.0Q292.4 242.3 292.9 242.3ZM300.8 243.1L300.8 243.1Q299.9 243.1 299.3 242.7Q298.7 242.4 298.3 241.7Q298.0 241.0 298.0 240.0Q298.0 239.1 298.3 238.4Q298.6 237.7 299.2 237.3Q299.9 236.9 300.7 236.9L300.7 236.9Q301.1 236.9 301.6 237.1Q302.1 237.2 302.5 237.6Q302.8 237.9 303.1 238.5Q303.3 239.1 303.3 239.9L303.3 239.9L303.3 240.3L298.9 240.3Q299.0 240.9 299.2 241.3L299.2 241.3Q299.4 241.8 299.8 242.0Q300.2 242.3 300.8 242.3L300.8 242.3Q301.1 242.3 301.4 242.2Q301.7 242.1 301.9 241.9Q302.1 241.7 302.3 241.3L302.3 241.3L303.2 241.6Q303.0 242.1 302.7 242.4Q302.4 242.7 301.9 242.9Q301.4 243.1 300.8 243.1ZM299.0 239.5L299.0 239.5L302.3 239.5Q302.3 239.1 302.1 238.8L302.1 238.8Q301.9 238.3 301.6 238.0Q301.2 237.8 300.7 237.8Q300.1 237.8 299.7 238.0Q299.4 238.3 299.2 238.7L299.2 238.7Q299.0 239.1 299.0 239.5ZM306.6 243L305.7 243L305.7 237.0L306.6 237.0L306.6 237.9L306.7 237.9Q306.8 237.5 307.3 237.2Q307.7 236.9 308.2 236.9L308.2 236.9Q308.3 236.9 308.5 236.9Q308.6 236.9 308.7 236.9L308.7 236.9L308.7 237.9Q308.7 237.9 308.5 237.9Q308.3 237.8 308.1 237.8L308.1 237.8Q307.7 237.8 307.4 238.0Q307.0 238.2 306.8 238.5Q306.6 238.8 306.6 239.2L306.6 239.2L306.6 243Z "/></g><defs><clipPath id="satori_bc-id-1-2-1" clip-path="url(#satori_cp-id)"><path x="335" y="226" width="106" height="25" d="M347.5,226 h81 a12.5,12.5 0 0 1 12.5,12.5 v0 a12.5,12.5 0 0 1 -12.5,12.5 h-81 a12.5,12.5 0 0 1 -12.5,-12.5 v0 a12.5,12.5 0 0 1 12.5,-12.5"/></clipPath></defs><mask id="satori_om-id-1-2-1"><rect x="336" y="227" width="104" height="23" fill="#fff" mask="url(#satori_om-id)"/><path width="106" height="25" fill="none" stroke="#000" stroke-width="2" d="M338.661,229.661 A12.5,12.5 0 0 1 347.5,226 h81 a12.5,12.5 0 0 1 12.5,12.5 v0 a12.5,12.5 0 0 1 -12.5,12.5 h-81 a12.5,12.5 0 0 1 -12.5,-12.5 v0 A12.5,12.5 0 0 1 338.661,229.661"/></mask><path x="335" y="226" width="106" height="25" fill="rgba(255,255,255,0.04)" d="M347.5,226 h81 a12.5,12.5 0 0 1 12.5,12.5 v0 a12.5,12.5 0 0 1 -12.5,12.5 h-81 a12.5,12.5 0 0 1 -12.5,-12.5 v0 a12.5,12.5 0 0 1 12.5,-12.5" clip-path="url(#satori_cp-id)" mask="url(#satori_om-id)"/><path width="106" height="25" clip-path="url(#satori_bc-id-1-2-1)" fill="none" stroke="rgba(255,255,255,0.09)" stroke-width="2" d="M338.661,229.661 A12.5,12.5 0 0 1 347.5,226 h81 a12.5,12.5 0 0 1 12.5,12.5 v0 a12.5,12.5 0 0 1 -12.5,12.5 h-81 a12.5,12.5 0 0 1 -12.5,-12.5 v0 A12.5,12.5 0 0 1 338.661,229.661"/><g mask="url(#satori_om-id)" clip-path="url(#satori_cp-id)"><path fill="rgba(255,255,255,0.55)" d="M354.0 243L353.0 243L353.0 235.0L354.0 235.0L354.0 238.5L358.2 238.5L358.2 235.0L359.2 235.0L359.2 243L358.2 243L358.2 239.4L354.0 239.4L354.0 243ZM363.7 243.1L363.7 243.1Q363.1 243.1 362.7 242.9Q362.2 242.7 361.9 242.3Q361.7 241.9 361.7 241.3L361.7 241.3Q361.7 240.8 361.9 240.5Q362.1 240.1 362.4 239.9Q362.7 239.8 363.2 239.7Q363.6 239.6 364.0 239.5L364.0 239.5Q364.5 239.5 364.9 239.4Q365.2 239.4 365.4 239.3Q365.5 239.2 365.5 239.0L365.5 239.0L365.5 238.9Q365.5 238.6 365.4 238.3Q365.3 238.0 365.0 237.9Q364.7 237.8 364.3 237.8L364.3 237.8Q363.8 237.8 363.5 237.9Q363.2 238.0 363.0 238.2Q362.9 238.4 362.8 238.6L362.8 238.6L361.8 238.3Q362.1 237.8 362.5 237.5Q362.8 237.2 363.3 237.0Q363.8 236.9 364.3 236.9L364.3 236.9Q364.6 236.9 364.9 237.0Q365.3 237.1 365.7 237.3Q366.0 237.5 366.3 237.9Q366.5 238.3 366.5 239.0L366.5 239.0L366.5 243L365.6 243L365.6 242.2L365.5 242.2Q365.4 242.4 365.2 242.6Q364.9 242.8 364.6 243.0Q364.2 243.1 363.7 243.1ZM363.9 242.3L363.9 242.3Q364.4 242.3 364.8 242.1Q365.1 241.9 365.3 241.5Q365.5 241.2 365.5 240.8L365.5 240.8L365.5 240.0Q365.5 240.1 365.3 240.1Q365.1 240.2 364.8 240.2Q364.6 240.3 364.3 240.3Q364.1 240.3 364.0 240.3L364.0 240.3Q363.6 240.4 363.3 240.5Q363.0 240.6 362.8 240.8Q362.6 241.0 362.6 241.3L362.6 241.3Q362.6 241.7 362.8 241.9Q363.0 242.1 363.2 242.2Q363.5 242.3 363.9 242.3ZM371.6 243.1L371.6 243.1Q370.8 243.1 370.2 242.7Q369.6 242.4 369.3 241.7Q368.9 241.0 368.9 240.0L368.9 240.0Q368.9 239.1 369.3 238.4Q369.6 237.7 370.2 237.3Q370.8 236.9 371.6 236.9L371.6 236.9Q372.1 236.9 372.5 237.0Q372.9 237.1 373.2 237.4Q373.5 237.6 373.7 237.9Q374.0 238.2 374.1 238.6L374.1 238.6L373.1 238.8Q373.1 238.6 372.9 238.4Q372.8 238.2 372.6 238.1Q372.4 237.9 372.2 237.9Q371.9 237.8 371.6 237.8L371.6 237.8Q371.0 237.8 370.7 238.1Q370.3 238.4 370.1 238.9Q369.9 239.4 369.9 240.0L369.9 240.0Q369.9 240.6 370.1 241.1Q370.3 241.6 370.7 242.0Q371.0 242.3 371.6 242.3L371.6 242.3Q371.9 242.3 372.2 242.2Q372.4 242.1 372.6 242.0Q372.8 241.8 373.0 241.6Q373.1 241.4 373.2 241.2L373.2 241.2L374.1 241.4Q374.0 241.8 373.7 242.1Q373.5 242.5 373.2 242.7Q372.9 242.9 372.5 243.0Q372.1 243.1 371.6 243.1ZM377.5 243L376.5 243L376.5 235.0L377.5 235.0L377.5 239.6L377.6 239.6L380.1 237.0L381.3 237.0L378.8 239.6L381.5 243L380.3 243L378.1 240.2L377.5 240.8L377.5 243ZM385.2 243.1L385.2 243.1Q384.6 243.1 384.2 242.9Q383.7 242.7 383.4 242.3Q383.2 241.9 383.2 241.3L383.2 241.3Q383.2 240.8 383.4 240.5Q383.6 240.1 383.9 239.9Q384.2 239.8 384.7 239.7Q385.1 239.6 385.5 239.5L385.5 239.5Q386.0 239.5 386.4 239.4Q386.7 239.4 386.9 239.3Q387.0 239.2 387.0 239.0L387.0 239.0L387.0 238.9Q387.0 238.6 386.9 238.3Q386.8 238.0 386.5 237.9Q386.2 237.8 385.8 237.8L385.8 237.8Q385.3 237.8 385.0 237.9Q384.7 238.0 384.5 238.2Q384.4 238.4 384.3 238.6L384.3 238.6L383.3 238.3Q383.6 237.8 384.0 237.5Q384.3 237.2 384.8 237.0Q385.3 236.9 385.8 236.9L385.8 236.9Q386.1 236.9 386.4 237.0Q386.8 237.1 387.2 237.3Q387.5 237.5 387.8 237.9Q388.0 238.3 388.0 239.0L388.0 239.0L388.0 243L387.1 243L387.1 242.2L387.0 242.2Q386.9 242.4 386.7 242.6Q386.4 242.8 386.1 243.0Q385.7 243.1 385.2 243.1ZM385.4 242.3L385.4 242.3Q385.9 242.3 386.3 242.1Q386.6 241.9 386.8 241.5Q387.0 241.2 387.0 240.8L387.0 240.8L387.0 240.0Q387.0 240.1 386.8 240.1Q386.6 240.2 386.3 240.2Q386.1 240.3 385.8 240.3Q385.6 240.3 385.4 240.3L385.4 240.3Q385.1 240.4 384.8 240.5Q384.5 240.6 384.3 240.8Q384.1 241.0 384.1 241.3L384.1 241.3Q384.1 241.7 384.3 241.9Q384.5 242.1 384.7 242.2Q385.0 242.3 385.4 242.3ZM391.8 237.0L393.1 237.0L393.1 237.8L391.8 237.8L391.8 241.4Q391.8 241.8 392.0 242.0Q392.2 242.2 392.5 242.2L392.5 242.2Q392.6 242.2 392.8 242.2Q392.9 242.2 393.0 242.2L393.0 242.2L393.2 243.0Q393.1 243.0 392.9 243.0Q392.7 243.1 392.5 243.1L392.5 243.1Q391.7 243.1 391.3 242.7Q390.9 242.3 390.9 241.5L390.9 241.5L390.9 237.8L390.0 237.8L390.0 237.0L390.9 237.0L390.9 235.6L391.8 235.6L391.8 237.0ZM396.3 239.4L396.3 239.4L396.3 243L395.3 243L395.3 235.0L396.3 235.0L396.3 238.0Q396.5 237.5 396.9 237.3L396.9 237.3Q397.4 236.9 398.1 236.9L398.1 236.9Q398.7 236.9 399.1 237.2Q399.6 237.4 399.8 237.9Q400.1 238.4 400.1 239.2L400.1 239.2L400.1 243L399.1 243L399.1 239.3Q399.1 238.6 398.8 238.2Q398.4 237.8 397.8 237.8L397.8 237.8Q397.3 237.8 397.0 238.0Q396.7 238.2 396.5 238.5Q396.3 238.9 396.3 239.4ZM405.2 243.1L405.2 243.1Q404.4 243.1 403.8 242.7Q403.2 242.4 402.9 241.7Q402.5 241.0 402.5 240.0L402.5 240.0Q402.5 239.1 402.9 238.4Q403.2 237.7 403.8 237.3Q404.4 236.9 405.2 236.9L405.2 236.9Q406.1 236.9 406.7 237.3Q407.3 237.7 407.6 238.4Q408.0 239.1 408.0 240.0L408.0 240.0Q408.0 241.0 407.6 241.7Q407.3 242.4 406.7 242.7Q406.1 243.1 405.2 243.1ZM405.2 242.3L405.2 242.3Q405.9 242.3 406.2 242.0Q406.6 241.6 406.8 241.1Q407.0 240.6 407.0 240.0L407.0 240.0Q407.0 239.4 406.8 238.9Q406.6 238.4 406.2 238.1Q405.9 237.8 405.2 237.8L405.2 237.8Q404.6 237.8 404.3 238.1Q403.9 238.4 403.7 238.9Q403.5 239.4 403.5 240.0L403.5 240.0Q403.5 240.6 403.7 241.1Q403.9 241.6 404.3 242.0Q404.6 242.3 405.2 242.3ZM411.4 239.4L411.4 239.4L411.4 243L410.4 243L410.4 237.0L411.3 237.0L411.3 238.1Q411.6 237.5 412.0 237.3L412.0 237.3Q412.5 236.9 413.2 236.9L413.2 236.9Q413.8 236.9 414.2 237.2Q414.7 237.4 414.9 237.9Q415.2 238.4 415.2 239.2L415.2 239.2L415.2 243L414.2 243L414.2 239.3Q414.2 238.6 413.9 238.2Q413.5 237.8 412.9 237.8L412.9 237.8Q412.4 237.8 412.1 238.0Q411.8 238.2 411.6 238.5Q411.4 238.9 411.4 239.4ZM419.9 243.1L419.9 243.1Q419.3 243.1 418.8 242.9Q418.4 242.8 418.0 242.4Q417.7 242.1 417.6 241.5L417.6 241.5L418.5 241.3Q418.7 241.8 419.0 242.0Q419.4 242.3 419.9 242.3L419.9 242.3Q420.6 242.3 420.9 242.0Q421.3 241.7 421.3 241.4L421.3 241.4Q421.3 241.1 421.1 240.9Q420.9 240.6 420.4 240.5L420.4 240.5L419.4 240.3Q418.6 240.1 418.2 239.7Q417.8 239.3 417.8 238.7L417.8 238.7Q417.8 238.2 418.1 237.8Q418.4 237.4 418.9 237.1Q419.4 236.9 420.0 236.9L420.0 236.9Q420.7 236.9 421.1 237.1Q421.5 237.3 421.8 237.6Q422.1 237.9 422.2 238.4L422.2 238.4L421.3 238.6Q421.2 238.3 420.9 238.0Q420.6 237.7 420.0 237.7L420.0 237.7Q419.5 237.7 419.1 238.0Q418.8 238.2 418.8 238.6L418.8 238.6Q418.8 238.9 419.0 239.1Q419.3 239.3 419.8 239.5L419.8 239.5L420.7 239.7Q421.5 239.9 421.9 240.3Q422.3 240.7 422.3 241.3L422.3 241.3Q422.3 241.8 422.0 242.2Q421.7 242.7 421.2 242.9Q420.6 243.1 419.9 243.1Z "/></g><defs><clipPath id="satori_bc-id-1-2-2" clip-path="url(#satori_cp-id)"><path x="449" y="226" width="135" height="25" d="M461.5,226 h110 a12.5,12.5 0 0 1 12.5,12.5 v0 a12.5,12.5 0 0 1 -12.5,12.5 h-110 a12.5,12.5 0 0 1 -12.5,-12.5 v0 a12.5,12.5 0 0 1 12.5,-12.5"/></clipPath></defs><mask id="satori_om-id-1-2-2"><rect x="450" y="227" width="133" height="23" fill="#fff" mask="url(#satori_om-id)"/><path width="135" height="25" fill="none" stroke="#000" stroke-width="2" d="M452.661,229.661 A12.5,12.5 0 0 1 461.5,226 h110 a12.5,12.5 0 0 1 12.5,12.5 v0 a12.5,12.5 0 0 1 -12.5,12.5 h-110 a12.5,12.5 0 0 1 -12.5,-12.5 v0 A12.5,12.5 0 0 1 452.661,229.661"/></mask><path x="449" y="226" width="135" height="25" fill="rgba(255,255,255,0.04)" d="M461.5,226 h110 a12.5,12.5 0 0 1 12.5,12.5 v0 a12.5,12.5 0 0 1 -12.5,12.5 h-110 a12.5,12.5 0 0 1 -12.5,-12.5 v0 a12.5,12.5 0 0 1 12.5,-12.5" clip-path="url(#satori_cp-id)" mask="url(#satori_om-id)"/><path width="135" height="25" clip-path="url(#satori_bc-id-1-2-2)" fill="none" stroke="rgba(255,255,255,0.09)" stroke-width="2" d="M452.661,229.661 A12.5,12.5 0 0 1 461.5,226 h110 a12.5,12.5 0 0 1 12.5,12.5 v0 a12.5,12.5 0 0 1 -12.5,12.5 h-110 a12.5,12.5 0 0 1 -12.5,-12.5 v0 A12.5,12.5 0 0 1 452.661,229.661"/><g mask="url(#satori_om-id)" clip-path="url(#satori_cp-id)"><path fill="rgba(255,255,255,0.55)" d="M470.1 243.1L470.1 243.1Q469.2 243.1 468.4 242.8Q467.7 242.4 467.4 241.7Q467.0 241.1 467.0 240.3L467.0 240.3L467.0 235.0L468.0 235.0L468.0 240.2Q468.0 240.8 468.2 241.2Q468.5 241.7 469.0 241.9Q469.4 242.2 470.1 242.2L470.1 242.2Q470.8 242.2 471.2 241.9Q471.7 241.7 471.9 241.2Q472.2 240.8 472.2 240.2L472.2 240.2L472.2 235.0L473.2 235.0L473.2 240.3Q473.2 241.1 472.8 241.7Q472.4 242.4 471.7 242.8Q471.0 243.1 470.1 243.1ZM477.1 243L476.2 243L476.2 235.0L477.6 235.0L479.6 240.0Q479.6 240.2 479.7 240.5Q479.8 240.8 479.9 241.1Q480.0 241.4 480.1 241.7L480.1 241.7Q480.1 241.8 480.2 241.9L480.2 241.9Q480.2 241.8 480.2 241.7L480.2 241.7Q480.3 241.4 480.4 241.1Q480.5 240.8 480.6 240.5Q480.7 240.2 480.8 240.0L480.8 240.0L482.7 235.0L484.2 235.0L484.2 243L483.2 243L483.2 238.4Q483.2 238.2 483.2 237.9Q483.2 237.5 483.2 237.2Q483.2 236.9 483.2 236.5L483.2 236.5Q483.2 236.3 483.2 236.1L483.2 236.1Q483.1 236.3 483.0 236.5L483.0 236.5Q482.9 236.9 482.8 237.3Q482.7 237.6 482.6 237.9Q482.5 238.2 482.4 238.4L482.4 238.4L480.6 243L479.7 243L477.9 238.4Q477.8 238.2 477.7 238.0Q477.6 237.7 477.5 237.3Q477.4 237.0 477.2 236.6L477.2 236.6Q477.2 236.3 477.1 236.1L477.1 236.1Q477.1 236.3 477.1 236.4L477.1 236.4Q477.1 236.8 477.1 237.1Q477.1 237.5 477.1 237.8Q477.1 238.2 477.1 238.4L477.1 238.4L477.1 243ZM488.1 243L487.1 243L487.1 235.0L488.1 235.0L488.1 237.7L488.1 239.2Q488.2 239.1 488.3 238.9L488.3 238.9Q488.6 238.6 488.9 238.2Q489.2 237.9 489.5 237.6L489.5 237.6L491.9 235.0L493.2 235.0L490.0 238.5L493.2 243L492.0 243L489.3 239.2L488.1 240.4L488.1 243ZM496.5 243L495.5 243L495.5 235.0L496.9 235.0L498.9 240.0Q499.0 240.2 499.1 240.5Q499.1 240.8 499.2 241.1Q499.3 241.4 499.4 241.7L499.4 241.7Q499.5 241.8 499.5 241.9L499.5 241.9Q499.5 241.8 499.5 241.7L499.5 241.7Q499.6 241.4 499.7 241.1Q499.8 240.8 499.9 240.5Q500.0 240.2 500.1 240.0L500.1 240.0L502.0 235.0L503.5 235.0L503.5 243L502.5 243L502.5 238.4Q502.5 238.2 502.5 237.9Q502.5 237.5 502.5 237.2Q502.5 236.9 502.5 236.5L502.5 236.5Q502.5 236.3 502.5 236.1L502.5 236.1Q502.4 236.3 502.4 236.5L502.4 236.5Q502.2 236.9 502.1 237.3Q502 237.6 501.9 237.9Q501.8 238.2 501.7 238.4L501.7 238.4L499.9 243L499.0 243L497.2 238.4Q497.1 238.2 497.0 238.0Q496.9 237.7 496.8 237.3Q496.7 237.0 496.6 236.6L496.6 236.6Q496.5 236.3 496.4 236.1L496.4 236.1Q496.4 236.3 496.4 236.4L496.4 236.4Q496.4 236.8 496.4 237.1Q496.4 237.5 496.4 237.8Q496.5 238.2 496.5 238.4L496.5 238.4L496.5 243Z M513.1 243.1L513.1 243.1Q512.2 243.1 511.6 242.9Q510.9 242.6 510.6 242.1Q510.2 241.6 510.2 240.9L510.2 240.9L511.2 240.9Q511.3 241.4 511.5 241.6Q511.8 241.9 512.2 242.1Q512.6 242.2 513.1 242.2L513.1 242.2Q513.6 242.2 514.0 242.0Q514.5 241.9 514.7 241.5Q515.0 241.2 515.0 240.8L515.0 240.8Q515.0 240.4 514.8 240.2Q514.5 239.9 514.2 239.8Q513.8 239.6 513.4 239.5L513.4 239.5L512.4 239.2Q511.5 239.0 510.9 238.4Q510.4 237.9 510.4 237.1L510.4 237.1Q510.4 236.5 510.8 236.0Q511.1 235.4 511.7 235.2Q512.4 234.9 513.1 234.9L513.1 234.9Q513.9 234.9 514.5 235.2Q515.1 235.4 515.5 235.9Q515.8 236.4 515.9 237.0L515.9 237.0L514.9 237.0Q514.8 236.4 514.3 236.1Q513.8 235.8 513.1 235.8L513.1 235.8Q512.6 235.8 512.2 236.0Q511.8 236.1 511.6 236.4Q511.4 236.7 511.4 237.1L511.4 237.1Q511.4 237.5 511.6 237.8Q511.9 238.0 512.3 238.2Q512.6 238.3 512.9 238.4L512.9 238.4L513.7 238.6Q514.0 238.7 514.4 238.8Q514.8 239.0 515.2 239.2Q515.5 239.5 515.7 239.9Q516.0 240.3 516.0 240.8L516.0 240.8Q516.0 241.5 515.6 242.0Q515.3 242.5 514.6 242.8Q514.0 243.1 513.1 243.1ZM520.9 243.1L520.9 243.1Q520.1 243.1 519.5 242.7Q518.8 242.4 518.5 241.7Q518.2 241.0 518.2 240.0L518.2 240.0Q518.2 239.1 518.5 238.4Q518.8 237.7 519.5 237.3Q520.1 236.9 520.9 236.9L520.9 236.9Q521.7 236.9 522.3 237.3Q523.0 237.7 523.3 238.4Q523.6 239.1 523.6 240.0L523.6 240.0Q523.6 241.0 523.3 241.7Q523.0 242.4 522.3 242.7Q521.7 243.1 520.9 243.1ZM520.9 242.3L520.9 242.3Q521.5 242.3 521.9 242.0Q522.3 241.6 522.5 241.1Q522.7 240.6 522.7 240.0L522.7 240.0Q522.7 239.4 522.5 238.9Q522.3 238.4 521.9 238.1Q521.5 237.8 520.9 237.8L520.9 237.8Q520.3 237.8 519.9 238.1Q519.5 238.4 519.3 238.9Q519.1 239.4 519.1 240.0L519.1 240.0Q519.1 240.6 519.3 241.1Q519.5 241.6 519.9 242.0Q520.3 242.3 520.9 242.3ZM526.0 235.0L527.0 235.0L527.0 243L526.0 243L526.0 235.0ZM531.7 243.1L531.7 243.1Q531.1 243.1 530.7 242.8Q530.2 242.6 530.0 242.1Q529.7 241.6 529.7 240.8L529.7 240.8L529.7 237.0L530.7 237.0L530.7 240.7Q530.7 241.4 531.0 241.8Q531.4 242.2 532.0 242.2L532.0 242.2Q532.5 242.2 532.8 242.0Q533.1 241.8 533.3 241.5Q533.5 241.1 533.5 240.6L533.5 240.6L533.5 237.0L534.5 237.0L534.5 243L533.6 243L533.6 241.9Q533.3 242.5 532.9 242.7L532.9 242.7Q532.4 243.1 531.7 243.1ZM538.3 237.0L539.6 237.0L539.6 237.8L538.3 237.8L538.3 241.4Q538.3 241.8 538.5 242.0Q538.7 242.2 539.1 242.2L539.1 242.2Q539.1 242.2 539.3 242.2Q539.4 242.2 539.5 242.2L539.5 242.2L539.7 243.0Q539.6 243.0 539.4 243.0Q539.2 243.1 539.0 243.1L539.0 243.1Q538.2 243.1 537.8 242.7Q537.4 242.3 537.4 241.5L537.4 241.5L537.4 237.8L536.5 237.8L536.5 237.0L537.4 237.0L537.4 235.6L538.3 235.6L538.3 237.0ZM542.8 243L541.8 243L541.8 237.0L542.8 237.0L542.8 243ZM542.3 236.0L542.3 236.0Q542.0 236.0 541.8 235.8Q541.6 235.6 541.6 235.4L541.6 235.4Q541.6 235.1 541.8 234.9Q542.0 234.7 542.3 234.7L542.3 234.7Q542.6 234.7 542.8 234.9Q543.0 235.1 543.0 235.4L543.0 235.4Q543.0 235.6 542.8 235.8Q542.6 236.0 542.3 236.0ZM547.9 243.1L547.9 243.1Q547.1 243.1 546.5 242.7Q545.9 242.4 545.5 241.7Q545.2 241.0 545.2 240.0L545.2 240.0Q545.2 239.1 545.5 238.4Q545.9 237.7 546.5 237.3Q547.1 236.9 547.9 236.9L547.9 236.9Q548.7 236.9 549.4 237.3Q550.0 237.7 550.3 238.4Q550.7 239.1 550.7 240.0L550.7 240.0Q550.7 241.0 550.3 241.7Q550.0 242.4 549.4 242.7Q548.7 243.1 547.9 243.1ZM547.9 242.3L547.9 242.3Q548.5 242.3 548.9 242.0Q549.3 241.6 549.5 241.1Q549.7 240.6 549.7 240.0L549.7 240.0Q549.7 239.4 549.5 238.9Q549.3 238.4 548.9 238.1Q548.5 237.8 547.9 237.8L547.9 237.8Q547.3 237.8 546.9 238.1Q546.5 238.4 546.4 238.9Q546.2 239.4 546.2 240.0L546.2 240.0Q546.2 240.6 546.4 241.1Q546.5 241.6 546.9 242.0Q547.3 242.3 547.9 242.3ZM554.0 239.4L554.0 239.4L554.0 243L553.1 243L553.1 237.0L554.0 237.0L554.0 238.1Q554.3 237.5 554.7 237.3L554.7 237.3Q555.2 236.9 555.8 236.9L555.8 236.9Q556.5 236.9 556.9 237.2Q557.4 237.4 557.6 237.9Q557.9 238.4 557.9 239.2L557.9 239.2L557.9 243L556.9 243L556.9 239.3Q556.9 238.6 556.5 238.2Q556.2 237.8 555.6 237.8L555.6 237.8Q555.1 237.8 554.8 238.0Q554.4 238.2 554.2 238.5Q554.0 238.9 554.0 239.4ZM562.6 243.1L562.6 243.1Q562.0 243.1 561.5 242.9Q561.0 242.8 560.7 242.4Q560.4 242.1 560.3 241.5L560.3 241.5L561.2 241.3Q561.3 241.8 561.7 242.0Q562.1 242.3 562.6 242.3L562.6 242.3Q563.2 242.3 563.6 242.0Q564.0 241.7 564.0 241.4L564.0 241.4Q564.0 241.1 563.8 240.9Q563.5 240.6 563.1 240.5L563.1 240.5L562.1 240.3Q561.3 240.1 560.9 239.7Q560.5 239.3 560.5 238.7L560.5 238.7Q560.5 238.2 560.8 237.8Q561.1 237.4 561.6 237.1Q562.1 236.9 562.7 236.9L562.7 236.9Q563.3 236.9 563.8 237.1Q564.2 237.3 564.5 237.6Q564.7 237.9 564.9 238.4L564.9 238.4L564.0 238.6Q563.9 238.3 563.6 238.0Q563.3 237.7 562.7 237.7L562.7 237.7Q562.2 237.7 561.8 238.0Q561.5 238.2 561.5 238.6L561.5 238.6Q561.5 238.9 561.7 239.1Q561.9 239.3 562.5 239.5L562.5 239.5L563.4 239.7Q564.2 239.9 564.6 240.3Q565.0 240.7 565.0 241.3L565.0 241.3Q565.0 241.8 564.7 242.2Q564.4 242.7 563.8 242.9Q563.3 243.1 562.6 243.1Z "/></g></svg>